<svg width="28" height="28" viewBox="0 0 28 28" fill="none" xmlns="http://www.w3.org/2000/svg">
<path d="M23.625 0H4.375C1.96263 0 0 1.96263 0 4.375V4.42969C0 6.84206 1.96263 8.80469 4.375 8.80469C4.39343 8.80469 4.41148 8.80283 4.42969 8.8019V23.625C4.42969 26.0374 6.39231 28 8.80469 28H19.25C21.6624 28 23.625 26.0374 23.625 23.625C23.625 23.0209 23.1353 22.5312 22.5312 22.5312C21.9272 22.5312 21.4375 23.0209 21.4375 23.625C21.4375 24.8312 20.4562 25.8125 19.25 25.8125H8.80469C7.5985 25.8125 6.61719 24.8312 6.61719 23.625V2.1875H21.4375V18.1562C21.4375 18.7603 21.9272 19.25 22.5312 19.25C23.1353 19.25 23.625 18.7603 23.625 18.1562V8.80469C26.0374 8.80469 28 6.84206 28 4.42969V4.375C28 1.96263 26.0374 0 23.625 0ZM4.42969 6.61998C4.41148 6.61905 4.39343 6.61719 4.375 6.61719C3.16881 6.61719 2.1875 5.63587 2.1875 4.42969V4.375C2.1875 3.16881 3.16881 2.1875 4.375 2.1875H4.42969V6.61998ZM25.8125 4.42969C25.8125 5.63587 24.8312 6.61719 23.625 6.61719V2.1875C24.8312 2.1875 25.8125 3.16881 25.8125 4.375V4.42969ZM19.366 14C19.366 11.2559 16.9618 9.02344 14.0067 9.02344C11.0515 9.02344 8.6473 11.2559 8.6473 14C8.6473 16.7441 11.0515 18.9766 14.0067 18.9766C16.9618 18.9766 19.366 16.7441 19.366 14ZM14.0067 16.7891C12.2577 16.7891 10.8348 15.5379 10.8348 14C10.8348 12.4621 12.2577 11.2109 14.0067 11.2109C15.7556 11.2109 17.1785 12.4621 17.1785 14C17.1785 15.5379 15.7557 16.7891 14.0067 16.7891ZM14.0547 21.6016C14.6588 21.6016 15.1484 22.0912 15.1484 22.6953C15.1484 23.2994 14.6588 23.7891 14.0547 23.7891C13.4506 23.7891 12.9609 23.2994 12.9609 22.6953C12.9609 22.0912 13.4506 21.6016 14.0547 21.6016ZM14.0547 6.39844C13.4506 6.39844 12.9609 5.90877 12.9609 5.30469C12.9609 4.70061 13.4506 4.21094 14.0547 4.21094C14.6588 4.21094 15.1484 4.70061 15.1484 5.30469C15.1484 5.90877 14.6588 6.39844 14.0547 6.39844Z" fill="url(#paint0_linear)"/>
<defs>
<linearGradient id="paint0_linear" x1="0" y1="14" x2="28" y2="14" gradientUnits="userSpaceOnUse">
<stop offset="0.021" stop-color="#00ACE2"/>
<stop offset="1" stop-color="#0B93B5"/>
</linearGradient>
</defs>
</svg>
