<svg width="28" height="28" viewBox="0 0 28 28" fill="none" xmlns="http://www.w3.org/2000/svg">
<g clip-path="url(#clip0)">
<path d="M13.3433 25.8125H3.3186C2.85183 25.8125 2.57006 25.5519 2.44381 25.3966C2.22549 25.1283 2.14111 24.7792 2.21203 24.4385C3.34787 18.9828 8.16272 14.9985 13.7208 14.8692C13.8133 14.8727 13.9062 14.875 13.9995 14.875C18.1005 14.875 21.437 11.5384 21.437 7.4375C21.437 3.33658 18.1005 0 13.9995 0C9.8984 0 6.56204 3.33658 6.56204 7.4375C6.56204 9.87152 7.73739 12.0364 9.55041 13.394C7.88949 13.9406 6.3309 14.791 4.9667 15.913C2.46582 17.9702 0.726925 20.8396 0.0704612 23.9926C-0.135258 24.9807 0.111263 25.9954 0.746578 26.7766C1.37869 27.5542 2.31628 28 3.3186 28H13.3433C13.9474 28 14.437 27.5104 14.437 26.9062C14.437 26.3021 13.9474 25.8125 13.3433 25.8125ZM8.74954 7.4375C8.74954 4.54269 11.1047 2.1875 13.9995 2.1875C16.8943 2.1875 19.2495 4.54269 19.2495 7.4375C19.2495 10.2909 16.9614 12.6196 14.1239 12.686C14.0831 12.6813 14.0416 12.6783 13.9995 12.6783C13.9141 12.6783 13.8284 12.6796 13.7432 12.6811C10.9669 12.5469 8.74954 10.2464 8.74954 7.4375ZM25.5924 18.7226V17.8273C25.5924 16.0486 24.1204 14.6016 22.3112 14.6016C20.5018 14.6016 19.0299 16.0486 19.0299 17.8273V18.7228C17.6768 18.886 16.6245 20.0404 16.6245 21.4366V26.9054C16.6245 27.5095 17.1142 27.9991 17.7183 27.9991H26.9058C27.5099 27.9991 27.9995 27.5095 27.9995 26.9054V21.4366C27.9995 20.0398 26.9464 18.8849 25.5924 18.7226ZM22.3112 16.7891C22.9142 16.7891 23.4049 17.255 23.4049 17.8273V18.7023H21.2174V17.8273C21.2174 17.255 21.7079 16.7891 22.3112 16.7891ZM25.812 25.8116H18.812V21.4366C18.812 21.1352 19.0573 20.8898 19.3589 20.8898H25.2652C25.5666 20.8898 25.812 21.1352 25.812 21.4366V25.8116Z" fill="url(#paint0_linear)"/>
</g>
<defs>
<linearGradient id="paint0_linear" x1="-0.000472628" y1="14" x2="27.9995" y2="14" gradientUnits="userSpaceOnUse">
<stop offset="0.0208" stop-color="#00ACE2"/>
<stop offset="1" stop-color="#0B93B5"/>
</linearGradient>
<clipPath id="clip0">
<rect width="28" height="28" fill="white"/>
</clipPath>
</defs>
</svg>
