<svg width="28" height="28" viewBox="0 0 28 28" fill="none" xmlns="http://www.w3.org/2000/svg">
<g clip-path="url(#clip0)">
<path d="M14 16.1875C12.7919 16.1875 11.8125 15.208 11.8125 14C11.8125 13.1904 12.2526 12.4841 12.9062 12.1058V5.46875C12.9062 4.86462 13.3959 4.375 14 4.375C14.6041 4.375 15.0937 4.86462 15.0937 5.46875V12.1058C15.7474 12.4841 16.1875 13.1904 16.1875 14C16.1875 14.1959 16.1612 14.3856 16.1129 14.5663L19.0116 17.465C19.4388 17.892 19.4388 18.5846 19.0116 19.0116C18.7982 19.2252 18.5181 19.332 18.2383 19.332C17.9582 19.332 17.6784 19.2252 17.465 19.0116L14.5663 16.1132C14.3856 16.1614 14.1959 16.1875 14 16.1875ZM23.9068 4.10776C21.2674 1.4646 17.757 0.00576784 14.022 0C14.0145 0 14.0077 0 14.0002 0C6.35143 0 0.0730469 6.21515 0.000628623 13.8643C-0.0303467 17.1257 1.08434 20.3113 3.13896 22.8346C3.17699 22.8812 3.17571 22.9463 3.13747 22.9846L1.24883 24.8661C0.723315 25.3917 0.567371 26.1754 0.851703 26.8627C1.13625 27.5508 1.80104 27.9959 2.54595 27.9968L7.5035 28H7.50542C8.23217 28 8.91533 27.7169 9.42931 27.203C9.94393 26.6886 10.227 26.0048 10.2266 25.2772L10.2238 20.319C10.2229 19.5745 9.77773 18.9097 9.08965 18.6252C8.40242 18.3408 7.61864 18.4968 7.09313 19.0223C7.09035 19.0251 7.08736 19.028 7.08458 19.0308L6.65563 19.4696C6.23308 19.9013 6.24077 20.5937 6.67272 21.0162C7.04677 21.3822 7.61629 21.4253 8.0367 21.1495L8.03905 25.2784C8.03905 25.4709 7.94121 25.5978 7.88268 25.6561C7.82436 25.7147 7.69768 25.8125 7.50542 25.8125C7.50521 25.8125 7.50499 25.8125 7.50499 25.8125L3.40108 25.8097L4.68282 24.5329C5.51873 23.697 5.58409 22.373 4.83513 21.4533C3.10201 19.325 2.16185 16.6372 2.18791 13.8851C2.24922 7.43088 7.54601 2.1875 14.0002 2.1875H14.0186C20.5217 2.19754 25.8125 7.49667 25.8125 14C25.8125 16.3291 25.1199 18.5963 23.8096 20.5563C23.4737 21.0583 23.6088 21.7376 24.1108 22.0735C24.6128 22.4091 25.2923 22.2743 25.6279 21.772C27.1797 19.451 28 16.7634 28 14C28 10.2644 26.5463 6.75113 23.9068 4.10776ZM20.1107 24.1114C18.2733 25.2242 16.1604 25.8125 14 25.8125C13.3959 25.8125 12.9062 26.3021 12.9062 26.9062C12.9062 27.5104 13.3959 28 14 28C16.56 28 19.065 27.3023 21.2439 25.9823C21.7607 25.6694 21.9258 24.9969 21.6129 24.4801C21.2997 23.9636 20.6272 23.7985 20.1107 24.1114Z" fill="url(#paint0_linear)"/>
</g>
<defs>
<linearGradient id="paint0_linear" x1="-3.57098e-05" y1="14" x2="28" y2="14" gradientUnits="userSpaceOnUse">
<stop stop-color="#00ACE2"/>
<stop offset="1" stop-color="#0B93B5"/>
</linearGradient>
<clipPath id="clip0">
<rect width="28" height="28" fill="white"/>
</clipPath>
</defs>
</svg>
