<svg xmlns="http://www.w3.org/2000/svg" width="30" height="30" viewBox="0 0 30 30">
  <g id="Group_461" data-name="Group 461" transform="translate(-1157 -162)">
    <g id="_1828945" data-name="1828945" transform="translate(1160.326 165.326)">
      <path id="Path_473" data-name="Path 473" d="M11.674,23.349A11.674,11.674,0,1,1,23.349,11.674,11.687,11.687,0,0,1,11.674,23.349Zm0-21.889A10.215,10.215,0,1,0,21.889,11.674,10.226,10.226,0,0,0,11.674,1.459Zm0,0"/>
      <path id="Path_474" data-name="Path 474" d="M161.546,169.458a.73.73,0,0,1-.516-1.246l7.223-7.224a.73.73,0,0,1,1.032,1.032l-7.224,7.223a.73.73,0,0,1-.516.214Zm0,0" transform="translate(-153.483 -153.443)"/>
      <path id="Path_475" data-name="Path 475" d="M168.748,169.477a.724.724,0,0,1-.516-.214l-7.223-7.223a.73.73,0,0,1,1.032-1.032l7.223,7.223a.729.729,0,0,1-.517,1.245Zm0,0" transform="translate(-153.462 -153.462)"/>
    </g>
    <rect id="Rectangle_937" data-name="Rectangle 937" width="30" height="30" transform="translate(1157 162)" fill="none"/>
  </g>
</svg>
