<svg width="28" height="28" viewBox="0 0 28 28" fill="none" xmlns="http://www.w3.org/2000/svg">
<g clip-path="url(#clip0)">
<path d="M12.88 22.9777V22.3749C11.4023 22.3238 10.259 21.1689 10.259 19.7028C10.259 19.0999 10.7478 18.6112 11.3507 18.6112C11.9535 18.6112 12.4423 19.0999 12.4423 19.7028C12.4423 20.0253 12.7138 20.194 12.9821 20.194H14.6078C15.117 20.194 15.5011 19.8362 15.5011 19.3616V19.0937C15.5011 18.6089 15.1087 18.2292 14.6078 18.2292H13.6075C11.9144 18.2292 10.5371 16.8335 10.5371 15.118V14.7199C10.5371 13.8949 10.8591 13.1256 11.4436 12.5535C11.845 12.1608 12.3399 11.8915 12.8802 11.7639V11.0244C12.8802 10.4215 13.3689 9.93279 13.9718 9.93279C14.5747 9.93279 15.0634 10.4215 15.0634 11.0244V11.7264C16.3363 11.9603 17.3023 13.0519 17.3023 14.3602C17.3023 14.9631 16.8136 15.4518 16.2107 15.4518C15.6078 15.4518 15.1191 14.9631 15.1191 14.3602C15.1191 14.0487 14.8315 13.8626 14.5535 13.8626H13.6076C13.1018 13.8626 12.7204 14.2312 12.7204 14.7199V15.118C12.7204 15.6209 13.1266 16.0459 13.6076 16.0459H14.6079C15.4273 16.0459 16.1971 16.3578 16.7752 16.924C17.3615 17.4983 17.6844 18.2688 17.6844 19.0937V19.3616C17.6844 20.9006 16.565 22.1357 15.0634 22.3454V22.9776C15.0634 23.5805 14.5747 24.0692 13.9718 24.0692C13.3687 24.0693 12.88 23.5806 12.88 22.9777ZM28 18.3383C28 18.9412 27.5113 19.4299 26.9084 19.4299C26.3055 19.4299 25.8168 18.9412 25.8168 18.3383C25.8168 14.849 23.5881 12.1319 21.2348 10.2355C22.7546 12.5524 23.5244 14.9258 23.5244 17.3013C23.5244 17.9042 23.0356 18.3929 22.4328 18.3929C21.8299 18.3929 21.3411 17.9042 21.3411 17.3013C21.3411 13.9208 19.381 10.5014 15.5153 7.13842C15.498 7.12339 15.4813 7.10884 15.4651 7.09473H11.9517C11.3259 7.36155 9.16453 8.34199 7.04074 9.99535C3.81752 12.5046 2.18318 15.3117 2.18318 18.3383C2.18318 22.8414 4.7845 25.7044 8.97274 25.8129L18.791 25.8159C21.2537 25.7605 23.2775 24.7809 24.4906 23.0569C24.8376 22.5638 25.5186 22.4454 26.0116 22.7923C26.5047 23.1393 26.6231 23.8202 26.2762 24.3133C24.6514 26.6222 22.0056 27.9311 18.8261 27.9989C18.8182 27.9991 18.8104 27.9991 18.8025 27.9991L8.95847 27.9962C8.94961 27.9962 8.94086 27.9961 8.93205 27.9959C6.32089 27.9318 4.09691 27.0107 2.50053 25.332C0.864664 23.6119 0 21.1936 0 18.3383C0 16.2567 0.61857 14.2465 1.83843 12.3634C2.78824 10.8973 4.10255 9.50913 5.74487 8.23737C7.5454 6.84311 9.33335 5.90134 10.3877 5.40379L8.91543 1.59328C8.86698 1.46777 8.84209 1.33439 8.84209 1.19985V1.0907C8.84209 0.732112 9.01824 0.396331 9.31328 0.19251C9.60838 -0.0113099 9.98473 -0.057138 10.3201 0.069737C12.777 0.999807 15.1667 0.999643 17.6255 0.0696823C17.9609 -0.057138 18.3372 -0.0112005 18.6321 0.19262C18.9271 0.39644 19.1033 0.732112 19.1033 1.0907V1.19985C19.1033 1.33439 19.0784 1.46777 19.0299 1.59328L17.5584 5.40199C18.6175 5.8991 20.4152 6.84092 22.2257 8.23573C23.8761 9.50727 25.197 10.8953 26.1516 12.3613C27.3781 14.2448 28 16.2558 28 18.3383ZM11.6931 2.72482L12.5379 4.91144H15.4074L16.2524 2.72454C14.7344 3.01838 13.2107 3.01849 11.6931 2.72482Z" fill="url(#paint0_linear)"/>
</g>
<defs>
<linearGradient id="paint0_linear" x1="9.93672e-07" y1="13.9984" x2="28.0014" y2="13.9984" gradientUnits="userSpaceOnUse">
<stop offset="0.021" stop-color="#00ACE2"/>
<stop offset="1" stop-color="#0B93B5"/>
</linearGradient>
<clipPath id="clip0">
<rect width="28" height="28" fill="white"/>
</clipPath>
</defs>
</svg>
