<svg xmlns="http://www.w3.org/2000/svg" width="21" height="21" viewBox="0 0 21 21">
  <g id="Group_459" data-name="Group 459" transform="translate(-907 -310)">
    <g id="_609478" data-name="609478" transform="translate(909.316 312.147)">
      <g id="Group_390" data-name="Group 390" transform="translate(0 0)">
        <g id="Group_389" data-name="Group 389">
          <path id="Path_437" data-name="Path 437" d="M8.184,0a.348.348,0,1,0,0,.7A7.488,7.488,0,1,1,.7,8.184a.348.348,0,1,0-.7,0A8.184,8.184,0,1,0,8.184,0Z"/>
        </g>
      </g>
      <g id="Group_392" data-name="Group 392" transform="translate(4.353 2.612)">
        <g id="Group_391" data-name="Group 391">
          <path id="Path_438" data-name="Path 438" d="M140,81.7a.348.348,0,0,0-.348.348v4.876h-3.134a.348.348,0,0,0,0,.7H140a.348.348,0,0,0,.348-.348V82.05A.348.348,0,0,0,140,81.7Z" transform="translate(-136.169 -81.702)"/>
        </g>
      </g>
    </g>
    <rect id="Rectangle_935" data-name="Rectangle 935" width="21" height="21" transform="translate(907 310)" fill="none"/>
  </g>
</svg>
