<svg width="30" height="18" viewBox="0 0 30 18" fill="none" xmlns="http://www.w3.org/2000/svg">
<path d="M21.2091 17.4894H8.73192C6.46774 17.4894 4.2963 16.5932 2.69528 14.9978C1.09427 13.4025 0.194824 11.2387 0.194824 8.98252C0.194824 6.72634 1.09427 4.56257 2.69528 2.96721C4.2963 1.37185 6.46774 0.475586 8.73192 0.475586H21.2091C23.4733 0.475586 25.6448 1.37185 27.2458 2.96721C28.8468 4.56257 29.7462 6.72634 29.7462 8.98252C29.7462 11.2387 28.8468 13.4025 27.2458 14.9978C25.6448 16.5932 23.4733 17.4894 21.2091 17.4894ZM8.73192 1.45735C6.72893 1.45735 4.80798 2.25022 3.39165 3.66155C1.97533 5.07287 1.17964 6.98703 1.17964 8.98294C1.17964 10.9789 1.97533 12.893 3.39165 14.3043C4.80798 15.7157 6.72893 16.5085 8.73192 16.5085H21.2091C23.2121 16.5085 25.1331 15.7157 26.5494 14.3043C27.9657 12.893 28.7614 10.9789 28.7614 8.98294C28.7614 6.98703 27.9657 5.07287 26.5494 3.66155C25.1331 2.25022 23.2121 1.45735 21.2091 1.45735H8.73192ZM20.962 14.095H8.97652C8.30041 14.1074 7.6286 13.9853 7.00035 13.7361C6.3721 13.4868 5.8 13.1152 5.31748 12.6432C4.83495 12.1711 4.45167 11.6079 4.19003 10.9865C3.92839 10.3652 3.79363 9.69811 3.79363 9.02427C3.79363 8.35044 3.92839 7.68336 4.19003 7.062C4.45167 6.44065 4.83495 5.87748 5.31748 5.40539C5.8 4.9333 6.3721 4.56177 7.00035 4.31248C7.6286 4.0632 8.30041 3.94117 8.97652 3.95352H20.9645C22.298 3.97789 23.5686 4.52283 24.503 5.47113C25.4373 6.41943 25.9608 7.6953 25.9608 9.02427C25.9608 10.3532 25.4373 11.6291 24.503 12.5774C23.5686 13.5257 22.298 14.0707 20.9645 14.095H20.962ZM8.97652 4.93359C7.88775 4.93359 6.84358 5.36457 6.07371 6.13172C5.30384 6.89887 4.87133 7.93936 4.87133 9.02427C4.87133 10.1092 5.30384 11.1497 6.07371 11.9168C6.84358 12.684 7.88775 13.115 8.97652 13.115H20.9645C22.0533 13.115 23.0975 12.684 23.8674 11.9168C24.6372 11.1497 25.0697 10.1092 25.0697 9.02427C25.0697 7.93936 24.6372 6.89887 23.8674 6.13172C23.0975 5.36457 22.0533 4.93359 20.9645 4.93359H8.97652Z" fill="#F1C422"/>
<path d="M21.2097 1.45703H8.73245C6.72946 1.45703 4.80851 2.2499 3.39219 3.66123C1.97586 5.07255 1.18018 6.98671 1.18018 8.98262C1.18018 10.9785 1.97586 12.8927 3.39219 14.304C4.80851 15.7153 6.72946 16.5082 8.73245 16.5082H21.2097C23.2127 16.5082 25.1336 15.7153 26.5499 14.304C27.9663 12.8927 28.762 10.9785 28.762 8.98262C28.762 6.98671 27.9663 5.07255 26.5499 3.66123C25.1336 2.2499 23.2127 1.45703 21.2097 1.45703ZM21.1703 14.5438H8.76923C7.31166 14.5258 5.91993 13.9361 4.89561 12.9027C3.8713 11.8692 3.29691 10.4752 3.29691 9.02268C3.29691 7.57014 3.8713 6.17611 4.89561 5.14266C5.91993 4.1092 7.31166 3.51957 8.76923 3.50152H21.1703C22.6279 3.51957 24.0196 4.1092 25.044 5.14266C26.0683 6.17611 26.6427 7.57014 26.6427 9.02268C26.6427 10.4752 26.0683 11.8692 25.044 12.9027C24.0196 13.9361 22.6279 14.5258 21.1703 14.5438Z" fill="#FFF7DA"/>
</svg>
