<svg width="201" height="161" viewBox="0 0 201 161" fill="none" xmlns="http://www.w3.org/2000/svg">
    <path
        d="M129.4 44.7998C124.1 57.7998 114.1 59.7998 108.6 60.5998C103.1 61.2998 94.1003 61.2998 88.7003 62.6998C78.9003 65.1998 70.5003 72.8998 67.3003 82.4998C73.2003 77.2998 80.7003 75.8998 88.5003 76.7998C96.7003 77.6998 104.1 82.1998 111.5 85.8998C118.9 89.5998 128.1 93.5998 138 90.7998C123.6 89.7998 118 84.8998 109.9 79.2998C103.6 74.9998 99.8003 72.9998 94.6003 71.7998C89.4003 70.5998 81.8003 70.9998 77.2003 73.6998C79.6003 71.0998 83.3003 68.5998 86.7003 67.3998C90.6003 65.8998 95.0003 66.4998 99.1003 66.6998C103.6 66.8998 108 66.1998 112.4 64.9998C118.2 63.1998 127.1 57.0998 129.4 44.7998Z"
        fill="url(#paint0_linear)" />
    <path
        d="M131.6 44.5996C132.8 37.5996 135.6 30.7996 139.8 24.9996C141.5 22.6996 143.4 20.4996 145.8 18.8996C148.2 17.2996 151.2 16.4996 154 16.9996C148.8 17.6996 143.7 21.0996 140.3 26.1996C136.4 32.0996 133.8 37.8996 131.6 44.5996Z"
        fill="url(#paint1_linear)" />
    <path
        d="M119.7 73.7999C120.9 80.2999 127.1 84.5999 133.1 87.3999C135.6 88.5999 138.3 89.6999 141.2 89.5999C145.3 89.4999 148.8 86.8999 152.3 84.8999C155.8 82.8999 160.3 81.3999 163.8 83.3999C161.3 87.0999 158.8 90.7999 156.3 94.3999C155.5 95.5999 154.7 96.7999 153.4 97.3999C152 97.4999 150.1 96.8999 148.9 96.2999C148.7 96.1999 148.4 95.9999 148.1 95.9999C147.7 95.9999 147.3 96.3999 147 96.5999C145.8 97.6999 143.9 98.0999 142.3 97.4999C142.3 98.7999 141.3 99.7999 140.5 100.9C140.4 101.1 140.2 101.3 140.2 101.5C140.1 102.2 140.9 102.6 141.5 102.8C142.1 101.9 142.8 100.9 143.8 100.4C144.3 100.2 144.8 100.1 145.3 99.9999C146.8 99.6999 148.4 99.4999 149.9 99.1999C149.7 99.4999 149.4 99.6999 149.1 99.8999C148.2 100.4 147.1 100.2 146.1 100.4C143.9 100.6 142 102.3 141.4 104.3C140.8 106.4 141.1 109.5 142.8 110.8C147.1 105.9 153.2 102.8 159.7 102.2C161.6 102 163.6 102 165.3 101.1C168.8 99.1999 169.2 94.3999 171.6 91.1999C173.3 88.9999 176.2 87.4999 177.2 84.8999C177.8 83.4999 177.7 81.8999 177.7 80.2999C177.6 76.7999 177.3 73.0999 175.3 70.2999C175.1 69.9999 174.8 69.5999 174.4 69.5999C174 69.5999 173.7 69.7999 173.4 70.0999C169.1 73.2999 157.5 68.5999 157.8 66.1999C158 61.5999 157.8 61.6999 156.5 56.9999C155.5 53.2999 153.8 49.7999 153 46.0999C152.1 42.3999 152 38.1999 154 34.8999C150.5 36.8999 149.3 40.2999 149.3 44.2999C149.3 48.2999 150.6 52.1999 151.7 56.0999C152.8 59.9999 153.4 61.3999 152.5 65.2999C152.2 62.0999 150.3 60.1999 148 57.9999C143.1 53.3999 138.9 48.0999 138.3 41.2999C135.8 47.1999 136.7 54.3999 140.6 59.4999C143.3 63.0999 147.3 65.6999 148.9 69.8999C150.1 73.0999 149.5 76.7999 147.5 79.4999C144.2 83.8999 137.8 84.9999 132.5 83.2999C127.4 81.6999 123.5 77.8999 119.7 73.7999ZM157.4 100.6C158.8 99.7999 160 98.6999 161.4 97.7999C162.2 97.2999 163 96.7999 163.5 96.0999C163.9 95.3999 164.1 94.5999 164.5 93.8999C164.9 93.1999 165.6 92.6999 166.2 92.1999C169.7 89.1999 172.2 84.9999 173 80.3999C173.2 80.5999 173.9 80.6999 174.2 80.5999C174.9 81.9999 174.1 83.6999 173.3 85.0999C171.1 88.7999 168.7 92.2999 166.1 95.5999C165.5 96.3999 164.8 97.1999 164 97.7999C162.1 99.0999 159.4 99.1999 157.4 100.6Z"
        fill="url(#paint2_linear)" />
    <path
        d="M164.4 11.6998C165.7 10.2998 167.3 9.69977 169.1 9.19977C166.1 4.89977 161.8 1.49977 156.7 0.499767C151.6 -0.600233 146 0.499767 141.6 3.29977C138.6 5.19977 136 7.89977 132.6 8.89977C129.5 9.69977 126.1 8.89977 123.7 6.79977C124.8 11.7998 129.3 15.8998 134.5 15.9998C131.6 16.0998 128.9 17.4998 126.7 19.4998C124.7 21.2998 123.3 23.7998 121.2 25.5998C118.1 28.0998 113.6 28.5998 110.1 26.7998C111.5 29.1998 112.9 31.0998 115.2 32.6998C117.4 34.1998 120.1 35.1998 122.5 34.2998C121.9 35.8998 121.6 37.2998 120.6 38.6998C119.6 40.0998 118.1 41.2998 116.4 41.4998C115 41.6998 107.3 37.6998 105.9 42.6998C108.8 42.0998 111.4 44.5998 113.2 46.9998C115 49.3998 117 52.0998 120 52.2998C123.5 52.4998 126 49.0998 127.5 45.8998C129.7 41.3998 131.2 36.5998 133.3 31.9998C135.4 27.3998 138 22.9998 141.9 19.7998C145.8 16.5998 151.1 14.8998 155.9 16.1998C160.7 17.4998 164.7 22.3998 164 27.3998C163.7 29.3998 162.4 31.5998 160.3 31.5998C159.5 31.5998 158.8 31.2998 158.2 30.7998C155.5 29.0998 153.3 25.7998 154 22.6998C152.4 24.7998 152.1 27.7998 153 30.2998C153.9 32.7998 155.8 34.7998 158.1 36.1998C160.4 37.5998 163.1 38.1998 165.7 38.6998C166.1 40.9998 166.5 43.3998 167.8 45.1998C169.2 47.0998 171.9 48.0998 173.9 46.9998C176 45.7998 176.6 42.0998 178.6 40.7998C175.1 36.4998 171.5 31.8998 170.9 26.3998C170.8 25.0998 170.8 23.7998 170.6 22.4998C170.2 19.9998 168.8 17.5998 167.5 15.3998L164.4 11.6998ZM135.5 18.6998C141.2 12.4998 149.9 8.19977 158.1 10.1998C150.3 10.2998 142.7 14.5998 137.2 20.0998C131.7 25.5998 129.2 35.1998 125.2 41.9998C128.3 34.1998 129.8 24.9998 135.5 18.6998Z"
        fill="url(#paint3_linear)" />
    <path
        d="M41.6001 87.2999C48.3001 92.5999 58.2001 93.5999 65.8001 89.7999C69.9001 87.7999 73.3001 84.4999 77.5001 82.7999C84.6001 79.7999 92.9001 81.4999 99.9001 84.5999C106.9 87.6999 113.5 91.9999 120.8 94.3999C114.7 94.1999 108.7 93.6999 102.8 92.1999C100 91.4999 91.9001 85.4999 82.5001 88.8999C72.1001 92.5999 66.7001 96.5999 62.1001 97.3999C53.3001 98.8999 46.1001 95.2999 41.6001 87.2999Z"
        fill="url(#paint4_linear)" />
    <path
        d="M12.1001 84.7998C15.1001 82.2998 19.3001 81.8998 23.1001 82.6998C32.7001 84.8998 38.9001 94.0998 47.5001 98.6998C59.6001 105 75.3001 101 85.6001 91.9998C80.0001 103.5 66.2001 109.8 53.7001 107.4C31.2001 103.1 26.5001 83.2998 12.1001 84.7998Z"
        fill="url(#paint5_linear)" />
    <path d="M0 135V116.5H10.3V119.7H3.6V124.2H10V127.4H3.6V131.9H10.3V135.1H0V135Z" fill="white" />
    <path
        d="M25.1001 135L26.9001 116.5H30.8001L35.2001 128.1L39.6001 116.5H43.5001L45.3001 135H41.7001L40.6001 123L36.4001 134.5H34.2001L29.9001 123L28.7001 135H25.1001Z"
        fill="white" />
    <path d="M60.7998 135V116.5H64.3998V135H60.7998Z" fill="white" />
    <path
        d="M80.7998 135V116.5H87.0998C88.3998 116.5 89.4998 116.7 90.3998 117.2C91.2998 117.6 92.0998 118.3 92.5998 119.1C93.0998 119.9 93.3998 120.9 93.3998 122.1C93.3998 123 93.1998 123.9 92.8998 124.6C92.5998 125.3 92.0998 126 91.4998 126.5C90.8998 127 90.0998 127.4 89.2998 127.6L95.3998 135H90.7998L85.4998 128H84.5998V135H80.7998ZM84.3998 124.9H85.9998C86.7998 124.9 87.3998 124.8 87.8998 124.6C88.3998 124.4 88.7998 124.1 89.0998 123.6C89.3998 123.2 89.4998 122.7 89.4998 122.1C89.4998 121.2 89.1998 120.5 88.5998 120C87.9998 119.5 87.0998 119.3 85.9998 119.3H84.4998V124.9H84.3998Z"
        fill="white" />
    <path
        d="M106.6 135L114 116.5H117.4L124.8 135H121L119.4 130.8H112.1L110.5 135H106.6ZM113.4 127.5H118.2L115.8 121.3L113.4 127.5Z"
        fill="white" />
    <path d="M140.4 135V119.7H135.7V116.5H148.7V119.7H144V135H140.4Z" fill="white" />
    <path d="M162.9 135V116.5H173.2V119.7H166.5V124.2H172.9V127.4H166.5V131.9H173.2V135.1H162.9V135Z" fill="white" />
    <path
        d="M193.8 135.3C192.9 135.3 192.1 135.2 191.4 135C190.7 134.8 190 134.6 189.5 134.3C188.9 134 188.4 133.7 188 133.4C187.6 133.1 187.3 132.8 187 132.6L188.9 129.6C189.1 129.8 189.4 130.1 189.8 130.3C190.1 130.6 190.5 130.8 191 131.1C191.5 131.4 191.9 131.5 192.4 131.7C192.9 131.9 193.4 131.9 194 131.9C194.5 131.9 195 131.8 195.4 131.7C195.8 131.5 196.1 131.3 196.3 131C196.5 130.7 196.6 130.3 196.6 129.8C196.6 129.4 196.5 129 196.3 128.7C196.1 128.4 195.8 128.1 195.5 127.9C195.2 127.7 194.7 127.4 194.2 127.2C193.7 127 193.1 126.7 192.4 126.4C191.9 126.2 191.4 125.9 191 125.6C190.5 125.3 190.1 125 189.8 124.6C189.4 124.2 189.2 123.8 189 123.3C188.8 122.8 188.7 122.3 188.7 121.7C188.7 121 188.8 120.3 189.1 119.7C189.4 119 189.8 118.5 190.3 118C190.8 117.5 191.5 117.1 192.2 116.8C192.9 116.5 193.7 116.4 194.6 116.4C195.3 116.4 195.9 116.5 196.6 116.7C197.3 116.9 197.9 117.1 198.5 117.4C199.1 117.7 199.6 118 200 118.4L198.5 121.3C198.2 121 197.8 120.8 197.4 120.6C197 120.4 196.6 120.2 196.1 120.1C195.6 120 195.2 119.9 194.7 119.9C194.2 119.9 193.7 120 193.3 120.2C192.9 120.4 192.6 120.6 192.4 120.9C192.2 121.2 192.1 121.6 192.1 121.9C192.1 122.2 192.2 122.5 192.3 122.7C192.4 122.9 192.6 123.1 192.9 123.3C193.2 123.5 193.4 123.6 193.8 123.8C194.1 123.9 194.5 124.1 194.9 124.3C195.8 124.7 196.6 125 197.3 125.4C198 125.8 198.6 126.2 199.1 126.6C199.6 127 200 127.5 200.3 128.1C200.6 128.7 200.7 129.4 200.7 130.2C200.7 131.4 200.4 132.4 199.9 133.2C199.3 134 198.5 134.7 197.5 135.1C196.3 135.1 195.1 135.3 193.8 135.3Z"
        fill="white" />
    <path d="M0.899902 160.4V142.8H2.4999V150.9H12.0999V142.8H13.6999V160.4H12.0999V152.3H2.4999V160.4H0.899902Z"
        fill="white" />
    <path
        d="M29.0001 160.8C27.8001 160.8 26.6001 160.6 25.5001 160.1C24.4001 159.6 23.5001 159 22.7001 158.1C21.9001 157.3 21.3001 156.3 20.8001 155.2C20.3001 154.1 20.1001 152.9 20.1001 151.6C20.1001 150.3 20.3001 149.1 20.8001 148C21.3001 146.9 21.9001 145.9 22.7001 145.1C23.5001 144.3 24.5001 143.6 25.5001 143.1C26.5001 142.6 27.7001 142.4 29.0001 142.4C30.2001 142.4 31.4001 142.6 32.5001 143.1C33.6001 143.6 34.5001 144.2 35.3001 145.1C36.1001 145.9 36.7001 146.9 37.2001 148C37.7001 149.1 37.9001 150.3 37.9001 151.6C37.9001 152.9 37.7001 154.1 37.2001 155.2C36.7001 156.3 36.1001 157.3 35.3001 158.1C34.5001 158.9 33.5001 159.6 32.5001 160.1C31.4001 160.5 30.2001 160.8 29.0001 160.8ZM29.0001 159.2C30.0001 159.2 30.9001 159 31.8001 158.6C32.7001 158.2 33.4001 157.7 34.1001 157C34.8001 156.3 35.3001 155.5 35.6001 154.6C36.0001 153.7 36.1001 152.7 36.1001 151.6C36.1001 150.5 35.9001 149.6 35.6001 148.6C35.3001 147.6 34.7001 146.9 34.1001 146.2C33.4001 145.5 32.7001 145 31.8001 144.6C30.9001 144.2 30.0001 144 29.0001 144C28.0001 144 27.1001 144.2 26.2001 144.6C25.3001 145 24.6001 145.5 23.9001 146.2C23.3001 146.9 22.7001 147.7 22.4001 148.6C22.1001 149.5 21.9001 150.5 21.9001 151.6C21.9001 152.7 22.1001 153.6 22.4001 154.6C22.8001 155.5 23.3001 156.3 23.9001 157C24.5001 157.7 25.3001 158.2 26.2001 158.6C27.1001 159 28.0001 159.2 29.0001 159.2Z"
        fill="white" />
    <path
        d="M44.2998 160.4V142.8H48.8998C50.0998 142.8 50.9998 143 51.8998 143.4C52.6998 143.8 53.3998 144.4 53.7998 145.1C54.2998 145.8 54.4998 146.7 54.4998 147.8C54.4998 148.7 54.2998 149.6 53.8998 150.3C53.4998 151 52.9998 151.6 52.2998 152.1C51.5998 152.5 50.7998 152.8 49.7998 152.9L55.6998 160.5H53.5998L47.9998 153.1H45.9998V160.5H44.2998V160.4ZM45.8998 151.6H48.4998C49.3998 151.6 50.1998 151.4 50.7998 151.1C51.3998 150.8 51.8998 150.4 52.2998 149.8C52.6998 149.2 52.7998 148.6 52.7998 147.8C52.7998 146.6 52.3998 145.7 51.5998 145.1C50.7998 144.4 49.7998 144.1 48.3998 144.1H45.7998V151.6H45.8998Z"
        fill="white" />
    <path
        d="M65.2998 160.8C64.3998 160.8 63.5998 160.7 62.8998 160.4C62.1998 160.1 61.5998 159.8 61.0998 159.4C60.5998 159 60.1998 158.6 59.8998 158.3C59.5998 158 59.3998 157.7 59.2998 157.5L60.1998 156.3C60.2998 156.5 60.4998 156.8 60.7998 157.1C61.0998 157.4 61.3998 157.8 61.7998 158.1C62.1998 158.4 62.6998 158.7 63.2998 159C63.8998 159.3 64.4998 159.4 65.2998 159.4C65.9998 159.4 66.6998 159.3 67.1998 159C67.7998 158.7 68.2998 158.4 68.5998 157.9C68.9998 157.4 69.0998 156.8 69.0998 156C69.0998 155.4 68.9998 154.8 68.6998 154.4C68.3998 154 68.0998 153.6 67.6998 153.3C67.2998 153 66.7998 152.7 66.1998 152.5C65.5998 152.3 65.0998 152 64.3998 151.8C63.9998 151.6 63.4998 151.4 63.0998 151.2C62.5998 151 62.1998 150.7 61.7998 150.4C61.3998 150.1 61.0998 149.7 60.7998 149.2C60.4998 148.7 60.3998 148.1 60.3998 147.4C60.3998 146.8 60.4998 146.2 60.7998 145.6C61.0998 145 61.3998 144.5 61.7998 144.1C62.1998 143.7 62.7998 143.3 63.3998 143.1C63.9998 142.9 64.6998 142.7 65.3998 142.7C66.0998 142.7 66.7998 142.8 67.2998 143C67.7998 143.2 68.3998 143.5 68.8998 143.9C69.2998 144.3 69.6998 144.6 69.8998 145L69.0998 146.1C68.8998 145.8 68.5998 145.5 68.2998 145.2C67.8998 144.9 67.4998 144.7 66.9998 144.5C66.4998 144.3 65.9998 144.2 65.3998 144.2C64.6998 144.2 64.0998 144.4 63.4998 144.7C62.9998 145 62.5998 145.4 62.2998 145.9C61.9998 146.4 61.8998 146.9 61.8998 147.5C61.8998 148 61.9998 148.4 62.1998 148.8C62.3998 149.2 62.6998 149.4 62.9998 149.7C63.2998 149.9 63.6998 150.1 64.0998 150.3C64.4998 150.5 64.8998 150.6 65.2998 150.8C65.9998 151.1 66.6998 151.3 67.2998 151.6C67.8998 151.9 68.4998 152.2 68.9998 152.6C69.4998 153 69.8998 153.5 70.1998 154C70.4998 154.6 70.5998 155.3 70.5998 156.1C70.5998 157.2 70.2998 158.1 69.8998 158.8C69.3998 159.5 68.6998 160.1 67.8998 160.5C67.0998 160.9 66.3998 160.8 65.2998 160.8Z"
        fill="white" />
    <path d="M77.2002 160.4V142.8H86.1002V144.2H78.9002V150.8H85.9002V152.2H78.9002V158.9H86.1002V160.3H77.2002V160.4Z"
        fill="white" />
    <path
        d="M99.7002 160.4V142.8H104.3C105.5 142.8 106.4 143 107.3 143.4C108.1 143.8 108.8 144.4 109.2 145.1C109.7 145.8 109.9 146.7 109.9 147.8C109.9 148.7 109.7 149.6 109.3 150.3C108.9 151 108.4 151.6 107.7 152.1C107 152.5 106.2 152.8 105.2 152.9L111.1 160.5H109L103.4 153.1H101.4V160.5H99.7002V160.4ZM101.3 151.6H103.9C104.8 151.6 105.6 151.4 106.2 151.1C106.8 150.8 107.3 150.4 107.7 149.8C108.1 149.2 108.2 148.6 108.2 147.8C108.2 146.6 107.8 145.7 107 145.1C106.2 144.4 105.2 144.1 103.8 144.1H101.2V151.6H101.3Z"
        fill="white" />
    <path
        d="M114.6 160.4L121.5 142.8H123L129.9 160.4H128.1L126 154.8H118.4L116.2 160.4H114.6ZM119.1 153.4H125.6L122.4 145L119.1 153.4Z"
        fill="white" />
    <path
        d="M143.4 160.8C142.1 160.8 140.9 160.6 139.7 160.1C138.6 159.6 137.6 159 136.7 158.2C135.8 157.4 135.2 156.4 134.7 155.3C134.2 154.2 134 153 134 151.7C134 150.4 134.2 149.2 134.7 148.1C135.2 147 135.8 146 136.7 145.2C137.5 144.4 138.5 143.7 139.7 143.3C140.8 142.8 142.1 142.6 143.4 142.6C144.5 142.6 145.5 142.8 146.5 143.1C147.5 143.4 148.3 143.9 149.1 144.4L148.3 145.8C147.7 145.3 146.9 144.9 146.1 144.6C145.3 144.3 144.4 144.2 143.5 144.2C142.4 144.2 141.4 144.4 140.4 144.8C139.5 145.2 138.7 145.7 138 146.4C137.3 147.1 136.8 147.9 136.4 148.8C136 149.7 135.8 150.7 135.8 151.8C135.8 152.9 136 153.8 136.4 154.8C136.8 155.7 137.3 156.5 138 157.2C138.7 157.9 139.5 158.4 140.4 158.8C141.3 159.2 142.4 159.4 143.5 159.4C144.4 159.4 145.3 159.3 146.1 159C146.9 158.7 147.7 158.3 148.3 157.8L149.1 159.2C148.4 159.8 147.5 160.2 146.6 160.5C145.7 160.8 144.5 160.8 143.4 160.8Z"
        fill="white" />
    <path d="M154.6 160.4V142.8H156.2V160.4H154.6Z" fill="white" />
    <path d="M163.7 160.4V142.8H165.3L174.8 157.6V142.8H176.4V160.4H174.8L165.3 145.6V160.4H163.7Z" fill="white" />
    <path
        d="M191.4 160.8C190.2 160.8 189 160.6 188 160.1C187 159.6 186 159 185.2 158.1C184.4 157.3 183.8 156.3 183.4 155.2C183 154.1 182.7 152.9 182.7 151.6C182.7 150.4 182.9 149.3 183.3 148.2C183.7 147.1 184.3 146.1 185 145.3C185.7 144.5 186.7 143.8 187.8 143.3C188.9 142.8 190.1 142.5 191.5 142.5C192.4 142.5 193.3 142.6 194.1 142.8C194.9 143 195.7 143.3 196.3 143.8C196.9 144.3 197.6 144.7 198.1 145.2L197.3 146.4C196.6 145.6 195.8 145 194.8 144.6C193.8 144.1 192.7 143.9 191.5 143.9C190.4 143.9 189.4 144.1 188.5 144.5C187.6 144.9 186.9 145.5 186.3 146.2C185.7 146.9 185.2 147.7 184.9 148.6C184.6 149.5 184.4 150.5 184.4 151.5C184.4 152.6 184.6 153.6 184.9 154.5C185.3 155.4 185.7 156.3 186.4 157C187 157.7 187.8 158.2 188.6 158.6C189.4 159 190.4 159.2 191.3 159.2C192.1 159.2 192.9 159.1 193.6 158.8C194.4 158.5 195 158.2 195.7 157.7C196.3 157.2 196.8 156.6 197.2 155.9C197.6 155.2 197.7 154.4 197.7 153.6V153H191.2V151.7H199.4V153.3C199.4 154.5 199.2 155.6 198.7 156.6C198.2 157.5 197.6 158.3 196.8 158.9C196 159.5 195.1 160 194.2 160.3C193.3 160.6 192.4 160.8 191.4 160.8Z"
        fill="white" />
    <defs>
        <linearGradient id="paint0_linear" x1="68.9128" y1="62.9503" x2="139.809" y2="69.0783"
            gradientUnits="userSpaceOnUse">
            <stop offset="0.00561798" stop-color="#A67033" />
            <stop offset="0.5281" stop-color="#FFF8DF" />
            <stop offset="0.6404" stop-color="#FFD75F" />
            <stop offset="0.7543" stop-color="#DAB051" />
            <stop offset="1" stop-color="#8C6034" />
        </linearGradient>
        <linearGradient id="paint1_linear" x1="132.853" y1="29.9057" x2="152.787" y2="31.6286"
            gradientUnits="userSpaceOnUse">
            <stop offset="0.00561798" stop-color="#A67033" />
            <stop offset="0.5281" stop-color="#FFF8DF" />
            <stop offset="0.6404" stop-color="#FFD75F" />
            <stop offset="0.7543" stop-color="#DAB051" />
            <stop offset="1" stop-color="#8C6034" />
        </linearGradient>
        <linearGradient id="paint2_linear" x1="119.991" y1="70.4799" x2="178.53" y2="75.5397"
            gradientUnits="userSpaceOnUse">
            <stop offset="0.00561798" stop-color="#A67033" />
            <stop offset="0.5281" stop-color="#FFF8DF" />
            <stop offset="0.6404" stop-color="#FFD75F" />
            <stop offset="0.7543" stop-color="#DAB051" />
            <stop offset="1" stop-color="#8C6034" />
        </linearGradient>
        <linearGradient id="paint3_linear" x1="107.621" y1="23.5735" x2="179.759" y2="29.8087"
            gradientUnits="userSpaceOnUse">
            <stop offset="0.00561798" stop-color="#A67033" />
            <stop offset="0.5281" stop-color="#FFF8DF" />
            <stop offset="0.6404" stop-color="#FFD75F" />
            <stop offset="0.7543" stop-color="#DAB051" />
            <stop offset="1" stop-color="#8C6034" />
        </linearGradient>
        <linearGradient id="paint4_linear" x1="41.6751" y1="86.8518" x2="121.053" y2="93.7129"
            gradientUnits="userSpaceOnUse">
            <stop offset="0.00561798" stop-color="#A67033" />
            <stop offset="0.5281" stop-color="#FFF8DF" />
            <stop offset="0.6404" stop-color="#FFD75F" />
            <stop offset="0.7543" stop-color="#DAB051" />
            <stop offset="1" stop-color="#8C6034" />
        </linearGradient>
        <linearGradient id="paint5_linear" x1="11.3674" y1="92.7318" x2="84.9771" y2="99.0943"
            gradientUnits="userSpaceOnUse">
            <stop offset="0.00561798" stop-color="#A67033" />
            <stop offset="0.5281" stop-color="#FFF8DF" />
            <stop offset="0.6404" stop-color="#FFD75F" />
            <stop offset="0.7543" stop-color="#DAB051" />
            <stop offset="1" stop-color="#8C6034" />
        </linearGradient>
    </defs>
</svg>