<svg viewBox="0 0 256 349" fill="none" xmlns="http://www.w3.org/2000/svg">
    <path
        d="M12.4685 337.576L19.3323 344.437C21.9315 347.035 25.3431 348.456 28.9983 348.456H226.422C230.077 348.456 233.489 347.035 236.088 344.437L243.642 336.886C246.242 334.287 247.663 330.877 247.663 327.223V183.748H246.729V327.223C246.729 330.633 245.389 333.8 242.993 336.236L235.438 343.787C233.042 346.183 229.834 347.522 226.422 347.522H28.9983C25.5868 347.522 22.4189 346.183 19.9821 343.787L13.1183 336.926C10.7221 334.531 9.38187 331.324 9.38187 327.913V183.748H8.44775V327.913C8.48837 331.567 9.90985 334.977 12.4685 337.576Z"
        fill="#F1C422" />
    <path
        d="M3.08665 232.67C1.09657 234.659 0 237.339 0 240.14V298.805C0 301.606 1.09657 304.286 3.08665 306.275L8.8132 311.999L8.56952 227.148L3.08665 232.67Z"
        fill="#F1C422" />
    <path
        d="M252.618 248.137C254.608 246.148 255.704 243.468 255.704 240.667V183.748H247.054L247.094 253.659L252.618 248.137Z"
        fill="#F1C422" />
    <path
        d="M12.4685 10.8398L19.3323 4.01925C21.9315 1.42095 25.3431 0 28.9983 0H226.422C230.077 0 233.489 1.42095 236.088 4.01925L243.642 11.5706C246.242 14.1689 247.663 17.5791 247.663 21.233V183.708H246.729V21.1924C246.729 17.7821 245.389 14.6155 242.993 12.1795L235.438 4.62823C233.042 2.23292 229.834 0.893167 226.422 0.893167H28.9983C25.5868 0.893167 22.4189 2.23292 19.9821 4.62823L13.1183 11.53C10.7221 13.9253 9.38187 17.1326 9.38187 20.5428V183.708H8.44775V20.5022C8.48837 16.8484 9.90985 13.4381 12.4685 10.8398Z"
        fill="#F1C422" />
    <path opacity="0.6" fill-rule="evenodd" clip-rule="evenodd" id="bg"
        d="M229.225 11.124L236.291 18.1881C238.606 20.5023 239.906 23.6689 239.906 26.9168V177H240V320.744C240 324.134 238.698 327.439 236.379 329.855L229.299 337.228C226.98 339.644 223.847 341 220.552 341H33.7975C30.5425 341 27.3689 339.644 25.0497 337.228L18.6212 330.533C16.302 328.117 15 324.854 15 321.422V177H15.271V26.2672C15.271 23.0194 16.5706 19.8527 18.8856 17.5386L25.3432 11.124C27.6582 8.80989 30.7855 7.51074 34.0752 7.51074H220.493C223.742 7.51074 226.91 8.80989 229.225 11.124Z" />
    <path opacity="0.1" fill-rule="evenodd" clip-rule="evenodd"
        d="M229.225 10.6133L236.291 17.6774C238.606 19.9915 239.906 23.1582 239.906 26.4061V176.489H240V320.233C240 323.623 238.698 326.929 236.379 329.344L229.299 336.718C226.98 339.133 223.847 340.489 220.552 340.489H33.7975C30.5425 340.489 27.3689 339.133 25.0497 336.718L18.6212 330.022C16.302 327.607 15 324.344 15 320.911V176.489H15.271V25.7565C15.271 22.5086 16.5706 19.3419 18.8856 17.0278L25.3432 10.6133C27.6582 8.29915 30.7855 7 34.0752 7H220.493C223.742 7 226.91 8.29915 229.225 10.6133Z"
        fill="url(#paint0_linear_horse)" />
    <path class="logo"
        d="M173.1 61.5H172.8C168.8 61.4 165.1 59.8 162.3 56.9C159.5 54 157.9 50.2 157.9 46.1C157.9 43.4 156.8 40.8 155 39C153.2 37.2 150.6 36 148 36H108C105.4 36 102.9 37.1 101 39C99.1 40.9 98.1 43.5 98.1 46.1C98.1 50.1 96.5 54 93.7 56.9C90.9 59.8 87.1 61.4 83.2 61.4H82.9C80.3 61.4 77.8 62.5 75.9 64.4C74 66.3 73 68.9 73 71.5V132.4C73 134.2 73.5 136 74.4 137.5C75.3 139.1 76.6 140.3 78.1 141.2L123.2 166.6C124.7 167.4 126.3 167.9 128 167.9C129.7 167.9 131.3 167.5 132.8 166.6L177.9 141.2C179.5 140.3 180.7 139 181.6 137.5C182.5 135.9 183 134.2 183 132.4V71.6C183 68.9 182 66.4 180.1 64.5C178.2 62.6 175.7 61.5 173.1 61.5ZM178.1 132.6C178.1 133.5 177.9 134.4 177.4 135.2C176.9 136 176.3 136.6 175.5 137.1L130.4 162.5C129.6 162.9 128.8 163.1 128 163.1C127.1 163.1 126.3 162.9 125.6 162.5L80.4 137.1C79.6 136.7 79 136 78.5 135.2C78 134.4 77.8 133.5 77.8 132.6V71.6C77.8 70.2 78.3 68.9 79.3 68C80.3 67.1 81.5 66.5 82.9 66.5C83 66.5 83.2 66.5 83.3 66.5C88.5 66.4 93.5 64.3 97.2 60.5C100.9 56.7 103 51.6 103 46.2C103 44.8 103.5 43.5 104.5 42.6C105.4 41.6 106.7 41.1 108.1 41.1H147.9C148.6 41.1 149.2 41.2 149.8 41.5C150.4 41.8 151 42.1 151.4 42.6C151.8 43.1 152.2 43.7 152.5 44.3C152.8 44.9 152.9 45.6 152.9 46.3C152.9 51.6 155 56.8 158.7 60.6C162.4 64.4 167.4 66.6 172.6 66.6C172.7 66.6 172.9 66.6 173 66.6C174.3 66.6 175.6 67.2 176.5 68.1C177.4 69.1 178 70.4 178 71.7L178.1 132.6ZM170.2 74.1C164.1 72.7 158.5 69.5 154.1 65C149.7 60.5 146.5 54.8 145.1 48.7C145 48.2 144.7 47.7 144.2 47.3C143.8 47 143.2 46.8 142.7 46.8H113.2C112.7 46.8 112.1 47 111.7 47.3C111.3 47.6 111 48.1 110.8 48.7C109.3 54.9 106.2 60.6 101.8 65C97.4 69.5 91.8 72.6 85.7 74.1C85.2 74.2 84.7 74.5 84.3 75C84 75.4 83.8 76 83.8 76.5V130.3C83.8 130.7 83.9 131.2 84.1 131.6C84.3 132 84.6 132.3 85 132.5L126.7 156C127.1 156.2 127.5 156.3 127.9 156.3C128.3 156.3 128.7 156.2 129.1 156L170.9 132.5C171.3 132.3 171.6 132 171.8 131.6C172 131.2 172.1 130.8 172.1 130.3V76.5C172.1 75.9 171.9 75.4 171.6 75C171.3 74.5 170.8 74.2 170.2 74.1ZM139.5 87.9L141.9 89.9C151 101.8 158.3 114.4 157.4 117C155 121.6 153.3 122 152.9 122.1C151.9 122.2 150.9 121 150.3 120.2C149.7 119.4 149.1 118.6 148.6 117.9C145.2 113.3 142.4 109.7 135.7 108.4C133.1 107.9 132.9 104.2 132.9 103.4C132.8 100.4 134.1 97.6 135.6 97.2L134.5 92.4C130.1 93.4 127.9 98.7 128 103.5C127.9 105.3 128.3 107.1 129.1 108.7C129.9 110.3 131.1 111.6 132.6 112.5L130.4 149.6L127.9 151L102 136.4C105.8 132 108.2 126.5 108.8 120.7C108.9 114.9 110 109.2 111.8 103.8C112.4 105.7 113.5 107.3 115.1 108.4L116.6 105.5C115.3 104.8 114.3 101.5 113.8 98.9C114.2 98.2 114.5 97.5 115 96.9C115.4 99.3 116.6 101.5 118.5 103L120.2 100.2C119 99.4 118.1 96.2 117.8 93.6C118.5 92.9 119.2 92.2 120 91.6C120.1 94 121.1 96.4 122.7 98.1L124.7 95.5C123.5 93.7 123 91.6 123.1 89.5C127.2 87.3 132 86.5 136.6 87.3L138 87.6L139.2 87.8L139.5 87.9ZM140.3 83C135.6 82.4 126.8 82.2 122.5 84.2C118.2 86.1 114.5 89.2 111.7 93.1C106.7 101.4 104.1 111 104 120.7C103.2 125.7 101.1 130.3 97.7 133.9L88.6 128.8V78.4C94.8 76.6 100.5 73.2 105.1 68.5C109.7 63.8 113.1 58.1 114.9 51.7H140.9C142.7 58.1 146.1 63.8 150.7 68.5C155.3 73.2 161 76.6 167.2 78.4V128.8L135.4 146.7L137.3 113.9C140.3 115.4 142.9 117.8 144.6 120.8C145.2 121.6 145.8 122.3 146.4 123.2C147.1 124.4 148.1 125.3 149.3 126C150.5 126.7 151.8 127 153.2 127C156.2 126.7 158.9 124.2 161.5 119.4C164.5 113.8 150.1 92.7 141.8 83.9L140.3 83ZM142.5 101.7L141.5 96.8L146 95.9L147 100.8L142.5 101.7Z" />
    <path
        d="M3.08665 115.746C1.09657 113.797 0 111.118 0 108.316V49.6515C0 46.8502 1.09657 44.1707 3.08665 42.1814L8.8132 36.457L8.56952 121.308L3.08665 115.746Z"
        fill="#F1C422" />
    <path
        d="M252.618 149.809C254.608 151.798 255.704 154.478 255.704 157.279V183.709H247.054L247.094 144.328L252.618 149.809Z"
        fill="#F1C422" />
    <defs>
        <linearGradient id="paint0_linear_horse" x1="131.206" y1="91.7116" x2="357.281" y2="173.75"
            gradientUnits="userSpaceOnUse">
            <stop offset="0.0970642" stop-color="white" stop-opacity="0" />
            <stop offset="0.0989583" stop-color="white" />
            <stop offset="0.800554" stop-color="white" stop-opacity="0" />
        </linearGradient>
    </defs>
</svg>