<svg xmlns="http://www.w3.org/2000/svg" width="37.571" height="41.817" viewBox="0 0 37.571 41.817">
  <g id="Group_327" data-name="Group 327" transform="translate(-2311.868 -163.447)">
    <path id="Path_309" data-name="Path 309" d="M2454.629,205.149c.382,7.321.783,14.667,1.172,21.821.02.365.017.556-.4.556h-4.351c-.51,0-.538-.137-.584-.593l-2.845-21.058-.446-12.528c1.134-.438,3.3-1.644,4.525-1.162,2.23.881,2.652,7.693,2.815,10.857.036.7.073,1.4.109,2.106Z" transform="translate(-106.676 -22.569)" fill="#fff" fill-rule="evenodd"/>
    <path id="Path_310" data-name="Path 310" d="M2314.513,204.864c-.387,7.416-.793,14.858-1.187,22.106-.02.365-.016.556.4.556h4.352c.51,0,.538-.137.584-.593l2.845-21.058.446-12.528c-1.134-.438-3.3-1.644-4.525-1.162-2.2.867-2.639,7.486-2.808,10.71q-.051.984-.1,1.968Z" transform="translate(-1.144 -22.569)" fill="#fff" fill-rule="evenodd"/>
    <path id="Path_311" data-name="Path 311" d="M2377.164,164.9h3.53a.462.462,0,0,1,.46.459v3.5h-3.99a.461.461,0,0,1-.46-.459v-3.037a.461.461,0,0,1,.46-.459Z" transform="translate(-51.115 -1.148)" fill="#ff0a05" fill-rule="evenodd"/>
    <path id="Path_312" data-name="Path 312" d="M2376.019,164.06a.155.155,0,0,0-.153.154v3.037a.155.155,0,0,0,.153.15h3.683v-3.187a.155.155,0,0,0-.153-.154Zm4.3,3.957h-4.3a.768.768,0,0,1-.767-.767v-3.037a.768.768,0,0,1,.767-.767h3.53a.768.768,0,0,1,.767.767v3.8Z" transform="translate(-49.97)" fill-rule="evenodd"/>
    <path id="Path_313" data-name="Path 313" d="M2407.988,165.362V168.4a.461.461,0,0,1-.46.459h-3.991v-3.5a.462.462,0,0,1,.46-.459h3.53a.461.461,0,0,1,.46.459Z" transform="translate(-72.27 -1.148)" fill="#ff0a05" fill-rule="evenodd"/>
    <path id="Path_314" data-name="Path 314" d="M2402.7,167.4h3.684a.155.155,0,0,0,.153-.15v-3.037a.156.156,0,0,0-.153-.154h-3.53a.156.156,0,0,0-.153.154V167.4Zm3.684.616h-4.3v-3.8a.769.769,0,0,1,.768-.767h3.53a.768.768,0,0,1,.767.767v3.037a.768.768,0,0,1-.767.767Z" transform="translate(-71.126)" fill-rule="evenodd"/>
    <path id="Path_315" data-name="Path 315" d="M2356.833,214.573c.669-.017.845-.2.859-.934l.677-17.937,3.548-16.532-9.142-3.525c-.611.6-9.58.6-10.129,0l-9.142,3.525,3.549,16.532.677,17.937c.014.763.206.934.957.934h17.867c.093,0,.186,0,.278,0Z" transform="translate(-17.057 -9.617)" fill="#fff" fill-rule="evenodd"/>
    <path id="Path_316" data-name="Path 316" d="M2389.9,216.078h4.543v-38.52l-4.543.023v38.5Z" transform="translate(-61.52 -11.125)" fill="#ff0a05" fill-rule="evenodd"/>
    <path id="Path_317" data-name="Path 317" d="M2314.5,205.1c-.388,7.415-.793,14.857-1.188,22.109-.02.365-.017.556.4.556h4.349c.512,0,.539-.141.586-.6l2.534-18.768-3.632-16.022a.949.949,0,0,0-.137.043c-2.2.867-2.638,7.489-2.809,10.71q-.051.984-.1,1.969Z" transform="translate(-1.136 -22.812)" fill="#fff" fill-rule="evenodd"/>
    <path id="Path_318" data-name="Path 318" d="M2313.841,311.218c-.175,3.251-.352,6.485-.526,9.682-.02.365-.017.556.4.556h4.349c.512,0,.539-.141.586-.6l1.3-9.642Z" transform="translate(-1.136 -116.499)" fill="#ff0a05" fill-rule="evenodd"/>
    <path id="Path_319" data-name="Path 319" d="M2457.434,205.1c.388,7.415.794,14.857,1.188,22.109.02.365.017.556-.4.556h-4.348c-.512,0-.539-.141-.586-.6l-2.534-18.768,3.632-16.022a.961.961,0,0,1,.137.043c2.2.867,2.638,7.489,2.809,10.71q.051.984.1,1.969Z" transform="translate(-109.495 -22.812)" fill="#fff" fill-rule="evenodd"/>
    <path id="Path_320" data-name="Path 320" d="M2462.686,311.218c.174,3.251.352,6.485.526,9.682.02.365.017.556-.4.556h-4.348c-.512,0-.539-.141-.586-.6l-1.3-9.642Z" transform="translate(-114.084 -116.499)" fill="#ff0a05" fill-rule="evenodd"/>
    <path id="Path_321" data-name="Path 321" d="M2316.8,178.014l3.5,16.3.678,17.961c.011.593.06.643.651.643h18.046c.591,0,.639-.05.65-.636l.679-17.967,3.5-16.3-8.766-3.378a9.058,9.058,0,0,1-2.4.345c-.927.05-1.932.063-2.72.067-1.072,0-2.15-.02-3.219-.1a6.045,6.045,0,0,1-1.843-.308l-8.753,3.375Zm27.343,34.884a.764.764,0,0,0,.232.023h4.351a.561.561,0,0,0,.093-.007,1.9,1.9,0,0,0,0-.224l-.111-2.042c-.378-6.95-.769-14.131-1.138-21.242l-.016-.318a54.49,54.49,0,0,0-.6-6.334c-.53-3.06-1.281-4.151-1.871-4.5l-3.45,16.076,2.467,18.262a1.719,1.719,0,0,0,.048.3Zm2-34.466a4.647,4.647,0,0,1,.337.546c1.119,2.119,1.49,6.167,1.688,10.08l.016.318c.369,7.107.759,14.292,1.137,21.238l.111,2.042a.88.88,0,0,1-.154.69.736.736,0,0,1-.548.187h-4.351c-.746,0-.836-.345-.89-.87l-2-14.814-.546,14.452c-.017.921-.336,1.232-1.264,1.232H2321.63c-.928,0-1.248-.311-1.265-1.239l-.546-14.446-2,14.824c-.052.515-.143.86-.888.86h-4.343c-.467,0-.717-.207-.718-.686,0-.067,0-.131.007-.191l.112-2.049c.377-6.943.768-14.128,1.137-21.232l.016-.318c.213-4.2.624-8.547,1.943-10.509a2.766,2.766,0,0,1,1.536-1.121l9.054-3.492c.066.07.108.141.2.174a18.989,18.989,0,0,0,4.125.325q.634.005,1.269,0a15.957,15.957,0,0,0,4.244-.365l.135-.131,8.521,3.288.522.2a2.8,2.8,0,0,1,1.453,1Zm-33.656,34.482a.567.567,0,0,0,.093.007h4.351a.765.765,0,0,0,.232-.023,1.629,1.629,0,0,0,.047-.3l2.468-18.269-3.45-16.076c-.59.348-1.341,1.443-1.871,4.5a54.475,54.475,0,0,0-.6,6.334l-.016.318c-.369,7.107-.759,14.288-1.137,21.235l-.112,2.049a1.954,1.954,0,0,0,0,.224Z" transform="translate(0 -8.269)" fill-rule="evenodd"/>
  </g>
</svg>
