<svg width="32" height="36" viewBox="0 0 32 36" fill="none" xmlns="http://www.w3.org/2000/svg">
<path fill-rule="evenodd" clip-rule="evenodd" d="M30.7359 16.2964C31.0611 22.5278 31.4025 28.7863 31.7346 34.8828C31.7516 35.1926 31.7482 35.3558 31.3974 35.3558H27.691C27.2565 35.3558 27.2326 35.2371 27.1933 34.8496L24.7701 16.9161L24.3901 6.24602C25.3556 5.87214 27.2072 4.84531 28.2443 5.25674C30.1436 6.00706 30.5028 11.8099 30.6419 14.5039C30.6727 15.102 30.7038 15.6995 30.7351 16.2964H30.7359Z" fill="#FF0A05"/>
<path fill-rule="evenodd" clip-rule="evenodd" d="M1.27862 16.057C0.949128 22.3737 0.602513 28.7108 0.267046 34.8858C0.249974 35.1957 0.253405 35.3588 0.604237 35.3588H4.31063C4.74512 35.3588 4.76903 35.2401 4.80829 34.8526L7.23094 16.9191L7.60981 6.24905C6.64438 5.87517 4.793 4.84823 3.75587 5.25967C1.88562 5.99804 1.50828 11.6361 1.36573 14.3813C1.33671 14.9402 1.30817 15.499 1.28029 16.0578L1.27862 16.057Z" fill="#FF0A05"/>
<path fill-rule="evenodd" clip-rule="evenodd" d="M1.07515 18.791H2.05505L1.03076 19.531L1.07432 18.7927L1.07515 18.791Z" fill="white"/>
<path fill-rule="evenodd" clip-rule="evenodd" d="M5.09716 24.7245H6.12145L5.93806 26.2013L5.77759 26.4147L5.83823 27.0053L5.6513 28.5077L4.20938 27.4586L1.87738 29.1582L2.77454 26.4147L0.718262 24.926L0.730141 24.7212L3.32264 24.7271L4.20938 21.9785L5.09633 24.7271L5.09716 24.7245Z" fill="white"/>
<path fill-rule="evenodd" clip-rule="evenodd" d="M0.384047 30.6533H2.05541L0.311523 31.9133L0.38488 30.6559L0.384047 30.6533Z" fill="white"/>
<path fill-rule="evenodd" clip-rule="evenodd" d="M5.09576 12.8656H5.52256L5.83412 14.4157L5.64301 14.5539L6.21236 16.2945L6.39242 17.1907L4.20797 15.5971L1.87598 17.2992L2.77314 14.5549L1.37061 13.539L1.40812 12.8638H3.32102L4.20797 10.1152L5.09492 12.8638L5.09576 12.8656Z" fill="white"/>
<path fill-rule="evenodd" clip-rule="evenodd" d="M30.9242 18.791H29.9443L30.9686 19.531L30.9251 18.7927L30.9242 18.791Z" fill="white"/>
<path fill-rule="evenodd" clip-rule="evenodd" d="M26.9029 24.7245H25.8784L26.062 26.2013L26.2225 26.4147L26.1618 27.0053L26.3488 28.5077L27.7905 27.4586L30.1227 29.1582L29.2255 26.4147L31.2818 24.926L31.2699 24.7212L28.6774 24.7271L27.7905 21.9785L26.9037 24.7271L26.9029 24.7245Z" fill="white"/>
<path fill-rule="evenodd" clip-rule="evenodd" d="M31.6162 30.6533H29.9448L31.6887 31.9133L31.6154 30.6559L31.6162 30.6533Z" fill="white"/>
<path fill-rule="evenodd" clip-rule="evenodd" d="M26.9016 12.8656H26.4748L26.1633 14.4157L26.3544 14.5539L25.785 16.2945L25.605 17.1907L27.7894 15.5971L30.1214 17.2992L29.2243 14.5549L30.6276 13.539L30.5901 12.8638H28.6772L27.7903 10.1152L26.9033 12.8638L26.9016 12.8656Z" fill="white"/>
<path fill-rule="evenodd" clip-rule="evenodd" d="M12.0783 0.261719H15.0855C15.1894 0.261944 15.2889 0.303327 15.3623 0.376756C15.4357 0.450185 15.4771 0.549667 15.4773 0.653511V3.63009H12.0783C11.9745 3.62986 11.8748 3.58848 11.8014 3.51505C11.7279 3.44162 11.6867 3.34214 11.6865 3.2383V0.653511C11.6867 0.549667 11.7279 0.450185 11.8014 0.376756C11.8748 0.303327 11.9745 0.261944 12.0783 0.261719Z" fill="white"/>
<path fill-rule="evenodd" clip-rule="evenodd" d="M12.0774 0.523292C12.0431 0.523955 12.0104 0.537889 11.9862 0.562263C11.9619 0.586637 11.948 0.6195 11.9476 0.653855V3.23854C11.948 3.27289 11.9619 3.30575 11.9862 3.33013C12.0104 3.3545 12.0431 3.36854 12.0774 3.3692H15.2145V0.653855C15.214 0.619355 15.2001 0.586348 15.1757 0.561951C15.1513 0.537553 15.1183 0.523735 15.0838 0.523292H12.0774ZM15.7376 3.89239H12.0774C11.9042 3.89194 11.7382 3.8229 11.6158 3.70035C11.4934 3.5778 11.4245 3.41173 11.4243 3.23854V0.653855C11.4243 0.480588 11.4932 0.314431 11.6156 0.191832C11.7381 0.0692337 11.9042 0.000226198 12.0774 0H15.0847C15.2579 0.000226198 15.424 0.0692337 15.5465 0.191832C15.6689 0.314431 15.7376 0.480588 15.7376 0.653855V3.89239Z" fill="black"/>
<path fill-rule="evenodd" clip-rule="evenodd" d="M20.3129 0.653511V3.2383C20.3127 3.34214 20.2713 3.44162 20.1979 3.51505C20.1244 3.58848 20.025 3.62986 19.9211 3.63009H16.5229V0.653511C16.5232 0.549667 16.5646 0.450185 16.638 0.376756C16.7114 0.303327 16.8109 0.261944 16.9147 0.261719H19.922C20.0258 0.261944 20.1253 0.303327 20.1987 0.376756C20.2721 0.450185 20.3135 0.549667 20.3137 0.653511H20.3129Z" fill="white"/>
<path fill-rule="evenodd" clip-rule="evenodd" d="M16.7845 3.3692H19.9216C19.9561 3.36876 19.9891 3.35484 20.0135 3.33044C20.0379 3.30604 20.0518 3.27304 20.0522 3.23854V0.653855C20.0518 0.619355 20.0379 0.586348 20.0135 0.561951C19.9891 0.537553 19.9561 0.523735 19.9216 0.523292H16.9144C16.8799 0.523735 16.8468 0.537553 16.8225 0.561951C16.7981 0.586348 16.7841 0.619355 16.7837 0.653855V3.3692H16.7845ZM19.9216 3.89239H16.2612V0.653855C16.2615 0.480657 16.3304 0.31459 16.4528 0.192041C16.5751 0.0694909 16.7412 0.000451479 16.9144 0H19.9216C20.0948 0.000451479 20.2608 0.0694909 20.3832 0.192041C20.5056 0.31459 20.5743 0.480657 20.5745 0.653855V3.23854C20.5745 3.4118 20.5058 3.57806 20.3834 3.70066C20.2609 3.82326 20.0948 3.89217 19.9216 3.89239Z" fill="black"/>
<path fill-rule="evenodd" clip-rule="evenodd" d="M23.7711 35.3546C24.3413 35.341 24.4915 35.1839 24.5026 34.5582L25.0797 19.2829L28.1023 5.1984L20.3159 2.19629C19.7952 2.70333 12.1561 2.70333 11.6883 2.19629L3.90186 5.1984L6.92449 19.2829L7.50134 34.5582C7.51329 35.2104 7.67725 35.3563 8.3166 35.3563H23.5348C23.6133 35.3563 23.6926 35.3563 23.7711 35.3563V35.3546Z" fill="#1356A3"/>
<path fill-rule="evenodd" clip-rule="evenodd" d="M4.20216 5.36472L7.18291 19.2495L7.7608 34.5486C7.77019 35.054 7.81195 35.0941 8.31473 35.0941H23.6857C24.1885 35.0941 24.2302 35.0541 24.2396 34.5539L24.8175 19.2503L27.7976 5.36555L20.3311 2.4864C19.6645 2.67617 18.9753 2.77494 18.2823 2.78004C17.4927 2.82443 16.6375 2.83639 15.9657 2.83724C15.0524 2.83724 14.134 2.82265 13.224 2.7518C12.6906 2.74504 12.1614 2.65638 11.655 2.4889L4.19966 5.36389L4.20216 5.36472ZM27.4911 35.0754C27.5555 35.0916 27.6219 35.0979 27.6882 35.0941H31.3946C31.4209 35.0942 31.4471 35.0925 31.4732 35.089C31.4768 35.0251 31.4768 34.961 31.4732 34.897L31.3784 33.1582C31.0565 27.241 30.7236 21.1224 30.4095 15.0677L30.3951 14.7962C30.3296 12.9892 30.1585 11.1876 29.8829 9.40059C29.4322 6.79624 28.792 5.86665 28.2901 5.56874L25.351 19.2615L27.4527 34.8141C27.4583 34.9022 27.4716 34.9897 27.4927 35.0754H27.4911ZM29.1906 5.72067C29.2974 5.86871 29.3937 6.02421 29.4784 6.18592C30.431 7.98959 30.7475 11.4365 30.9165 14.7698L30.9303 15.0403C31.2444 21.0949 31.5773 27.2128 31.8991 33.1291L31.994 34.8679C32.014 34.9696 32.0126 35.0743 31.99 35.1754C31.9674 35.2765 31.924 35.3718 31.8625 35.4552C31.7999 35.5128 31.7261 35.557 31.6457 35.5849C31.5654 35.6128 31.4802 35.6239 31.3954 35.6174H27.6891C27.054 35.6174 26.9772 35.3229 26.9311 34.8748L25.2239 22.2585L24.7596 34.5675C24.7451 35.3503 24.4736 35.6174 23.6832 35.6174H8.31223C7.52179 35.6174 7.25035 35.351 7.23584 34.5623L6.77069 22.2585L5.06348 34.8833C5.01909 35.3221 4.94144 35.6166 4.30636 35.6166H0.607676C0.209896 35.6166 -0.00354092 35.439 -0.00439453 35.0302C-0.00439453 34.9755 -0.00432618 34.9208 0.00164907 34.8679L0.0962627 33.1249C0.418072 27.2094 0.750987 21.089 1.06511 15.0395L1.07887 14.7698C1.25983 11.1949 1.61064 7.48931 2.73398 5.81966C3.04388 5.35672 3.5073 5.01813 4.04253 4.86362L11.754 1.88965C11.7972 1.95295 11.856 2.00415 11.9246 2.03824C13.0821 2.25871 14.2605 2.35117 15.4383 2.31395C15.7979 2.31793 16.1578 2.31793 16.518 2.31395C17.7313 2.37246 18.9471 2.26886 20.1331 2.00583L20.2483 1.89392L27.504 4.69294L27.9487 4.86362C28.4424 5.0076 28.8764 5.30695 29.1864 5.71723L29.1906 5.72067ZM0.5239 35.089C0.549929 35.0925 0.576203 35.0942 0.602466 35.0941H4.30886C4.37544 35.0979 4.44215 35.0916 4.50684 35.0754C4.52769 34.9914 4.54096 34.9056 4.54623 34.8192L6.64857 19.258L3.70971 5.5653C3.20779 5.86321 2.56743 6.79364 2.11587 9.39799C1.84037 11.1853 1.66948 12.9872 1.60383 14.7945L1.59007 15.0651C1.27595 21.118 0.943032 27.2358 0.621222 33.1513L0.526609 34.8944C0.52275 34.9583 0.52275 35.0225 0.526609 35.0864L0.5239 35.089Z" fill="black"/>
<path fill-rule="evenodd" clip-rule="evenodd" d="M15.9998 7.1084L17.9298 13.0914L24.2149 13.0794L19.1233 16.7652L21.077 22.7405L15.9998 19.0359L10.9225 22.7405L12.8765 16.7652L7.78467 13.0794L14.0698 13.0914L16.0006 7.1084H15.9998Z" fill="white"/>
</svg>
