<svg width="32" height="36" viewBox="0 0 32 36" fill="none" xmlns="http://www.w3.org/2000/svg">
<g clip-path="url(#clip0)">
<path fill-rule="evenodd" clip-rule="evenodd" d="M12.079 0.262207H15.0856C15.1894 0.262432 15.2889 0.303784 15.3623 0.377211C15.4358 0.450637 15.4771 0.550164 15.4773 0.654004V3.63503H12.079C11.9751 3.6348 11.8756 3.59345 11.8022 3.52002C11.7288 3.4466 11.6872 3.34707 11.687 3.24323V0.658267C11.6872 0.554427 11.7288 0.4549 11.8022 0.381473C11.8756 0.308047 11.9751 0.266695 12.079 0.26647V0.262207Z" fill="#00ACE2"/>
<path fill-rule="evenodd" clip-rule="evenodd" d="M12.0786 0.522955C12.0442 0.523397 12.0113 0.537262 11.9869 0.561606C11.9626 0.585949 11.9487 0.618844 11.9483 0.653268V3.23823C11.9487 3.27266 11.9626 3.30555 11.9869 3.32989C12.0113 3.35424 12.0442 3.3681 12.0786 3.36854H15.2154V0.653268C15.215 0.618844 15.2011 0.585949 15.1767 0.561606C15.1524 0.537262 15.1197 0.523397 15.0852 0.522955H12.0786ZM15.7411 3.89151H12.0786C11.9055 3.89129 11.7395 3.82239 11.617 3.69992C11.4946 3.57746 11.4255 3.41142 11.4253 3.23823V0.653268C11.4255 0.48008 11.4946 0.31404 11.617 0.191577C11.7395 0.0691143 11.9055 0.00022536 12.0786 0H15.0852C15.2584 0.00022536 15.4244 0.0691143 15.5469 0.191577C15.6693 0.31404 15.7382 0.48008 15.7384 0.653268V3.88981L15.7411 3.89151Z" fill="black"/>
<path fill-rule="evenodd" clip-rule="evenodd" d="M20.3126 0.653371V3.23835C20.3121 3.34212 20.2708 3.44152 20.1974 3.51489C20.124 3.58827 20.0246 3.6297 19.9208 3.63014H16.5225V0.649121C16.5227 0.545281 16.564 0.445754 16.6375 0.372328C16.7109 0.298901 16.8104 0.257549 16.9142 0.257324H19.9208C20.0247 0.257549 20.1242 0.298901 20.1976 0.372328C20.271 0.445754 20.3124 0.545281 20.3126 0.649121V0.653371Z" fill="#00ACE2"/>
<path fill-rule="evenodd" clip-rule="evenodd" d="M16.7833 3.36672H19.9203C19.9547 3.36628 19.9876 3.35242 20.012 3.32807C20.0363 3.30373 20.05 3.27083 20.0504 3.23641V0.651447C20.05 0.617023 20.0363 0.584128 20.012 0.559785C19.9876 0.535441 19.9547 0.521575 19.9203 0.521134H16.9137C16.8792 0.521575 16.8463 0.535441 16.822 0.559785C16.7976 0.584128 16.7837 0.617023 16.7833 0.651447V3.36672ZM19.9203 3.88969H16.2578V0.65315C16.2578 0.479813 16.3266 0.31356 16.4491 0.190913C16.5716 0.0682656 16.7378 -0.000750864 16.9112 -0.000976562H19.9175C20.0909 -0.000750864 20.2571 0.0682656 20.3796 0.190913C20.5021 0.31356 20.5709 0.479813 20.5709 0.65315V3.23811C20.5707 3.4113 20.5018 3.57734 20.3794 3.6998C20.2569 3.82227 20.0907 3.89117 19.9175 3.89139L19.9203 3.88969Z" fill="black"/>
<path fill-rule="evenodd" clip-rule="evenodd" d="M30.7337 16.296C31.0591 22.5306 31.4005 28.7856 31.7327 34.8814C31.7488 35.1914 31.7464 35.3549 31.3921 35.3549H27.6853C27.251 35.3549 27.2271 35.2357 27.1879 34.8481L24.7648 16.9152L24.3857 6.24396C25.3507 5.87005 27.1963 4.84287 28.2397 5.25426C30.139 6.00377 30.4994 11.8074 30.6383 14.5014C30.6695 15.0999 30.7004 15.6981 30.731 16.296H30.7337Z" fill="#00ACE2"/>
<path fill-rule="evenodd" clip-rule="evenodd" d="M1.27752 16.0524C0.947902 22.3679 0.602093 28.7064 0.266515 34.8814C0.249481 35.1914 0.253012 35.3549 0.607328 35.3549H4.31302C4.74825 35.3549 4.77208 35.2357 4.81041 34.8481L7.22937 16.9152L7.60928 6.24396C6.64343 5.87005 4.79848 4.84287 3.75512 5.25426C1.88133 5.9927 1.50755 11.6311 1.3636 14.3753C1.33465 14.9341 1.30617 15.4931 1.27835 16.0524H1.27752Z" fill="#00ACE2"/>
<path fill-rule="evenodd" clip-rule="evenodd" d="M23.7673 35.354C24.3371 35.3404 24.4869 35.1837 24.4979 34.5577L25.0754 19.2821L28.0974 5.20057L20.3109 2.19824C19.7905 2.70927 12.1515 2.70927 11.6839 2.19824L3.89404 5.20057L6.91603 19.2821L7.49348 34.5577C7.5054 35.2092 7.66896 35.3549 8.3086 35.3549H23.5271C23.6063 35.3549 23.6856 35.3549 23.7639 35.3549L23.7673 35.354Z" fill="#00ACE2"/>
<path fill-rule="evenodd" clip-rule="evenodd" d="M22.1777 35.3702L5.80078 4.50558L11.5925 2.2417L11.8753 2.88219L24.7813 27.2014L24.3197 35.3779L22.1785 35.3719L22.1777 35.3702Z" fill="#FFF223"/>
<path fill-rule="evenodd" clip-rule="evenodd" d="M26.217 4.469L20.4492 2.29883L7.16748 27.2977L7.66487 35.2792L9.81975 35.3703L26.217 4.469Z" fill="#FFF223"/>
<path fill-rule="evenodd" clip-rule="evenodd" d="M0.714689 26.6348C0.566489 29.4037 0.414778 32.1573 0.266579 34.8803C0.249544 35.1911 0.252224 35.3538 0.607392 35.3538H4.31142C4.7475 35.3538 4.77065 35.2337 4.81068 34.8428L5.91775 26.6313L0.714689 26.6348Z" fill="#FFF223"/>
<path fill-rule="evenodd" clip-rule="evenodd" d="M31.2846 26.6348C31.4328 29.4037 31.5837 32.1573 31.7327 34.8803C31.7498 35.1911 31.7462 35.3538 31.3919 35.3538H27.6879C27.2518 35.3538 27.2286 35.2337 27.1886 34.8428L26.0815 26.6313L31.2846 26.6348Z" fill="#FFF223"/>
<path fill-rule="evenodd" clip-rule="evenodd" d="M4.19985 5.3648L7.18087 19.2478L7.75915 34.5456C7.76852 35.0507 7.81017 35.0916 8.31269 35.0916H23.6838C24.1872 35.0916 24.2288 35.0507 24.2373 34.5507L24.8148 19.2478L27.7958 5.3648L20.3306 2.48598C19.6654 2.6749 18.978 2.77373 18.2865 2.77983C17.4978 2.82326 16.6417 2.83518 15.9696 2.83604C15.0566 2.83604 14.1385 2.82156 13.228 2.75087C12.6947 2.7441 12.1657 2.65562 11.6593 2.48853L4.20401 5.36309L4.19985 5.3648ZM27.4893 35.0754C27.5539 35.0914 27.6204 35.0978 27.6868 35.0941H31.3936C31.4201 35.0944 31.4466 35.0927 31.4728 35.089C31.4764 35.0252 31.4764 34.9612 31.4728 34.8974L31.3782 33.1581C31.0562 27.2412 30.7232 21.1225 30.4098 15.0676L30.3953 14.7968C30.33 12.9895 30.1595 11.1876 29.8843 9.40025C29.4329 6.79654 28.7932 5.86646 28.2907 5.5675L25.3515 19.2606L27.4527 34.813C27.4586 34.9012 27.4722 34.9887 27.4935 35.0745L27.4893 35.0754ZM29.1927 5.72082C29.2992 5.86891 29.3951 6.02429 29.4797 6.18585C30.4328 7.9898 30.7487 11.4359 30.9174 14.7695L30.9311 15.0395C31.2454 21.0935 31.5784 27.2114 31.8995 33.1283L31.9941 34.8676C32.0141 34.9691 32.0127 35.0737 31.9901 35.1748C31.9676 35.2758 31.9243 35.371 31.8629 35.4544C31.8003 35.5119 31.7265 35.5559 31.6462 35.5837C31.5659 35.6116 31.4808 35.6226 31.3961 35.6162H27.6893C27.0539 35.6162 26.9774 35.3224 26.9314 34.8744L25.228 22.2578L24.763 34.5669C24.7485 35.3496 24.4767 35.6162 23.6863 35.6162H8.31539C7.52499 35.6162 7.25316 35.3496 7.23868 34.5618L6.77373 22.2578L5.07028 34.8829C5.02599 35.3224 4.94856 35.6162 4.31318 35.6162H0.614969C0.216363 35.6162 0.00341821 35.4391 0.00341821 35.0302C0.00341821 34.9749 0.00329844 34.9204 0.00840876 34.8676L0.103853 33.1249C0.425803 27.2097 0.757943 21.0927 1.07223 15.0395L1.08595 14.7704C1.26652 11.1931 1.61732 7.48984 2.74074 5.82046C3.05063 5.35758 3.51401 5.01887 4.04909 4.86398L11.7605 1.89062C11.8167 1.95195 11.8525 2.00986 11.9308 2.03882C13.0886 2.25953 14.267 2.35208 15.445 2.31478C15.805 2.31876 16.1651 2.31876 16.5251 2.31478C17.7383 2.37323 18.9538 2.26954 20.1397 2.00646L20.2547 1.89403L27.5132 4.69279L27.957 4.86314C28.4511 5.00788 28.8852 5.30804 29.1952 5.71911L29.1927 5.72082ZM0.526386 35.089C0.552623 35.0927 0.579117 35.0944 0.605611 35.0941H4.3113C4.37774 35.0978 4.4445 35.0915 4.50905 35.0754C4.53012 34.9916 4.54315 34.9061 4.54815 34.8199L6.65104 19.2581L3.71181 5.56494C3.2093 5.86305 2.56958 6.79313 2.11816 9.39769C1.84304 11.1848 1.67253 12.9864 1.60726 14.7933L1.59353 15.0633C1.2801 21.1165 0.947108 27.2336 0.625158 33.1496L0.530545 34.8923C0.527111 34.9561 0.527111 35.0201 0.530545 35.0839L0.526386 35.089Z" fill="black"/>
</g>
<defs>
<clipPath id="clip0">
<path d="M0 5.99999C0 2.68629 2.68629 0 6 0H26C29.3137 0 32 2.68629 32 6V35.6173H0V5.99999Z" fill="white"/>
</clipPath>
</defs>
</svg>
