<svg width="32" height="36" viewBox="0 0 32 36" fill="none" xmlns="http://www.w3.org/2000/svg">
<g clip-path="url(#clip0)">
<path fill-rule="evenodd" clip-rule="evenodd" d="M30.7169 17.0287C31.0176 22.7464 31.4289 29.2938 31.7321 34.8821C31.7491 35.1913 31.7467 35.3549 31.3915 35.3549H27.6846C27.2511 35.3549 27.2281 35.2355 27.1881 34.848L25.0664 19.1513L25.6166 16.9282L30.7127 17.027L30.7169 17.0287Z" fill="#F8B2D1"/>
<path fill-rule="evenodd" clip-rule="evenodd" d="M1.25086 16.6668C0.949339 22.3845 0.569436 29.2947 0.267067 34.8838C0.250032 35.193 0.252712 35.3566 0.607889 35.3566H4.31202C4.74811 35.3566 4.77105 35.2373 4.81109 34.8497L6.93025 19.1684L6.34946 16.1719L1.25252 16.6668H1.25086Z" fill="#F8B2D1"/>
<path fill-rule="evenodd" clip-rule="evenodd" d="M12.0798 0.26123H15.0864C15.1903 0.261455 15.2898 0.302796 15.3632 0.376224C15.4366 0.449653 15.478 0.549156 15.4782 0.652999V3.62984H12.0798C11.9759 3.62961 11.8764 3.58827 11.803 3.51484C11.7296 3.44142 11.6882 3.34191 11.688 3.23807V0.652999C11.6882 0.549156 11.7296 0.449653 11.803 0.376224C11.8764 0.302796 11.9759 0.261455 12.0798 0.26123Z" fill="#F8B2D1"/>
<path d="M12.0801 0.522982C12.0457 0.523423 12.0128 0.537264 11.9884 0.561608C11.9641 0.585952 11.9502 0.618887 11.9497 0.653312V3.23833C11.9502 3.27275 11.9641 3.30564 11.9884 3.32998C12.0128 3.35433 12.0457 3.36822 12.0801 3.36866H15.217V0.653312C15.2165 0.618887 15.2028 0.585952 15.1785 0.561608C15.1542 0.537264 15.1212 0.523423 15.0868 0.522982H12.0801ZM15.7427 3.89164H12.0801C11.9069 3.89142 11.7409 3.82249 11.6185 3.70002C11.496 3.57755 11.427 3.41152 11.4268 3.23833V0.653312C11.427 0.480118 11.496 0.314036 11.6185 0.191569C11.7409 0.0691032 11.9069 0.000225366 12.0801 0H15.0868C15.26 0.000225366 15.426 0.0691032 15.5484 0.191569C15.6709 0.314036 15.7397 0.480118 15.74 0.653312V3.88993L15.7427 3.89164Z" fill="black"/>
<path fill-rule="evenodd" clip-rule="evenodd" d="M20.3137 0.652999V3.23807C20.3132 3.34184 20.2718 3.4412 20.1985 3.51458C20.1251 3.58797 20.0257 3.62939 19.9219 3.62984H16.5234V0.652999C16.5237 0.549156 16.565 0.449653 16.6384 0.376224C16.7119 0.302796 16.8114 0.261455 16.9152 0.26123H19.9219C20.0257 0.261455 20.1252 0.302796 20.1987 0.376224C20.2721 0.449653 20.3134 0.549156 20.3137 0.652999Z" fill="#F8B2D1"/>
<path d="M16.7833 3.36587H19.9204C19.9548 3.36543 19.9877 3.35154 20.0121 3.3272C20.0364 3.30285 20.0501 3.26997 20.0505 3.23555V0.650475C20.0501 0.61605 20.0364 0.583167 20.0121 0.558823C19.9877 0.534479 19.9548 0.520639 19.9204 0.520197H16.9137C16.8792 0.520639 16.8463 0.534479 16.822 0.558823C16.7976 0.583167 16.7837 0.61605 16.7833 0.650475V3.36587ZM19.9204 3.8888H16.2578V0.65219C16.2578 0.478849 16.3266 0.312631 16.4491 0.18998C16.5716 0.0673299 16.7378 -0.00172742 16.9112 -0.00195312H19.9176C20.0911 -0.00195312 20.2576 0.0669935 20.3803 0.189668C20.503 0.312343 20.5718 0.478702 20.5718 0.65219V3.23726C20.5716 3.4106 20.5026 3.57672 20.3799 3.69921C20.2573 3.8217 20.091 3.89052 19.9176 3.89052L19.9204 3.8888Z" fill="black"/>
<path fill-rule="evenodd" clip-rule="evenodd" d="M25.3868 17.8542L28.1022 5.20066L20.3157 2.19824C19.7952 2.70929 12.1558 2.70929 11.6882 2.19824L3.90171 5.20066V5.20747C3.85221 5.21995 3.80344 5.23559 3.75595 5.25431C1.6351 6.09157 1.42223 13.2556 1.30469 15.54H6.11966L6.92191 19.2826L7.49937 34.5577C7.5113 35.2101 7.67486 35.3558 8.31452 35.3558H23.5317C23.6101 35.3558 23.6902 35.3558 23.7686 35.3558C24.3393 35.3421 24.4882 35.1855 24.4993 34.5586L25.0759 19.2834L25.3827 17.855L25.3868 17.8542Z" fill="#F8B2D1"/>
<path fill-rule="evenodd" clip-rule="evenodd" d="M22.9804 3.22461L20.3152 2.19824C19.7948 2.70929 12.1556 2.70929 11.688 2.19824L8.8125 3.35405L16.0523 17.1958L22.9804 3.22715V3.22461Z" fill="white"/>
<path fill-rule="evenodd" clip-rule="evenodd" d="M24.7217 15.5406L24.3911 6.24466C25.357 5.87074 27.202 4.8444 28.2454 5.25494C30.3688 6.09306 30.5799 13.2784 30.6966 15.5406H24.7217Z" fill="#F8B2D1"/>
<path fill-rule="evenodd" clip-rule="evenodd" d="M6.39683 17.1275L4.96512 10.4438H1.75071L1.20215 17.854H6.55965L6.39683 17.1283V17.1275Z" fill="#811F8C"/>
<path fill-rule="evenodd" clip-rule="evenodd" d="M25.3906 17.854L27.0363 10.4438H30.2507L30.7618 17.854H25.3906Z" fill="#811F8C"/>
<path fill-rule="evenodd" clip-rule="evenodd" d="M9.71724 3.01061L16.0032 14.8499L22.306 2.97656L26.4148 4.61361L16.0024 24.2276L5.5625 4.55227L9.72078 3.01316L9.71724 3.01061Z" fill="#811F8C"/>
<path d="M4.20211 5.36391L7.18321 19.2473L7.76151 34.5455C7.77088 35.0506 7.81253 35.0914 8.31506 35.0914H23.6866C24.19 35.0914 24.2316 35.0514 24.2401 34.5506L24.8176 19.2473L27.7987 5.36391L20.3324 2.48501C19.6673 2.67432 18.9796 2.77345 18.2881 2.77972C17.4985 2.82316 16.6426 2.83506 15.9714 2.83592C15.0583 2.83592 14.1402 2.82146 13.2288 2.75076C12.6952 2.74392 12.1658 2.65541 11.659 2.48839L4.20461 5.36302L4.20211 5.36391ZM3.71053 5.56748C3.208 5.86559 2.56847 6.7957 2.11705 9.40033C1.8421 11.1878 1.67138 12.9897 1.60592 14.797C1.27033 21.4976 0.893078 28.1974 0.529384 34.8981C0.525427 34.9619 0.525427 35.0259 0.529384 35.0897C0.555326 35.0935 0.581565 35.0953 0.607779 35.0949H4.3144C4.38083 35.0985 4.44758 35.0921 4.51216 35.0761C4.53289 34.9923 4.54592 34.9068 4.55125 34.8206L6.6542 19.2584L3.7149 5.56488L3.71053 5.56748ZM1.0821 14.7663C1.26352 11.189 1.61369 7.4856 2.73714 5.81619C3.04682 5.35308 3.5101 5.01426 4.04532 4.85964L11.757 1.88623C11.8132 1.9467 11.8491 2.00548 11.9275 2.03444C13.085 2.25503 14.2632 2.34755 15.4409 2.31039C15.8009 2.31436 16.1608 2.31436 16.5208 2.31039C17.7341 2.36871 18.9498 2.26502 20.1357 2.00206L20.2507 1.88961L27.5084 4.68845L27.953 4.85881C28.4469 5.0035 28.8808 5.30371 29.1905 5.71481C29.2974 5.86274 29.3938 6.01817 29.4785 6.17988C30.4316 7.98387 30.7476 11.43 30.9162 14.7638C31.262 21.4641 31.6211 28.1645 31.9936 34.8649C32.0136 34.9664 32.0122 35.071 31.9896 35.1721C31.967 35.2731 31.9237 35.3684 31.8624 35.4517C31.7998 35.5092 31.7262 35.5532 31.6459 35.581C31.5656 35.6089 31.4805 35.62 31.3957 35.6136H27.6897C27.0552 35.6136 26.9777 35.3197 26.9326 34.8717L25.2291 22.2548L24.7648 34.5642C24.7503 35.3469 24.4787 35.6136 23.6882 35.6136H8.31589C7.52547 35.6136 7.25384 35.347 7.23936 34.5591L6.77439 22.2548L5.07091 34.8802C5.02662 35.3197 4.94895 35.6136 4.3144 35.6136H0.615473C0.216857 35.6136 0.00390653 35.4364 0.00390653 35.0275C0.00390653 34.973 0.00376679 34.9177 0.00972899 34.8649C0.37314 28.1645 0.732144 21.4641 1.08647 14.7638L1.0821 14.7663ZM30.3949 14.7918C30.3297 12.9845 30.1589 11.1826 29.8838 9.39518C29.4323 6.7914 28.7928 5.8613 28.2903 5.56234L25.3508 19.2558L27.4529 34.8087C27.4585 34.8969 27.4723 34.9844 27.4938 35.0702C27.5584 35.0863 27.625 35.0926 27.6914 35.0889H31.3974C31.4239 35.0893 31.4504 35.0876 31.4766 35.0838C31.4805 35.02 31.4805 34.9559 31.4766 34.8921C31.1129 28.1923 30.7372 21.4925 30.399 14.791L30.3949 14.7918Z" fill="black"/>
</g>
<defs>
<clipPath id="clip0">
<path d="M0 6C0 2.6863 2.68629 0 6 0H26C29.3137 0 32 2.68629 32 6V35.6174H0V6Z" fill="white"/>
</clipPath>
</defs>
</svg>
