<svg width="32" height="36" viewBox="0 0 32 36" fill="none" xmlns="http://www.w3.org/2000/svg">
<path fill-rule="evenodd" clip-rule="evenodd" d="M0.257812 35.388H4.70703C5.73099 29.3671 6.41362 22.9937 7.23194 16.9097L7.61171 6.24339C6.64663 5.86964 4.7957 4.84403 3.75894 5.25447C1.88935 5.99257 1.51236 11.6295 1.36986 14.3729C1.00891 21.2428 0.260521 28.5726 0.260521 35.3896L0.257812 35.388Z" fill="#00ACE2"/>
<path fill-rule="evenodd" clip-rule="evenodd" d="M12.0794 0.260742H15.0847C15.1884 0.261191 15.2878 0.302592 15.3611 0.375946C15.4345 0.449301 15.4759 0.548657 15.4763 0.652395V3.62864H12.0794C11.9756 3.62819 11.8763 3.58679 11.8029 3.51344C11.7296 3.44008 11.6879 3.34073 11.6875 3.23699V0.653228C11.6877 0.549421 11.7291 0.44987 11.8025 0.376467C11.8759 0.303064 11.9756 0.261801 12.0794 0.261575V0.260742Z" fill="#00ACE2"/>
<path fill-rule="evenodd" clip-rule="evenodd" d="M12.0795 0.523106C12.0451 0.523327 12.012 0.536978 11.9876 0.56123C11.9632 0.585482 11.9493 0.618381 11.9489 0.652789V3.23655C11.9493 3.27104 11.9632 3.30403 11.9876 3.32842C12.012 3.35281 12.045 3.36673 12.0795 3.36717H15.2152V0.652789C15.2148 0.618381 15.2009 0.585482 15.1765 0.56123C15.1521 0.536978 15.1192 0.523327 15.0848 0.523106H12.0795ZM15.7383 3.89101H12.0795C11.9062 3.89078 11.74 3.82188 11.6174 3.69935C11.4949 3.57682 11.426 3.41067 11.4258 3.23738V0.653622C11.4258 0.567786 11.4427 0.482829 11.4756 0.403527C11.5084 0.324225 11.5565 0.252147 11.6172 0.191451C11.6779 0.130756 11.75 0.0826378 11.8293 0.0497899C11.9086 0.0169419 11.9937 0 12.0795 0H15.0848C15.258 0.000226117 15.4241 0.0692091 15.5465 0.191764C15.6689 0.314319 15.7375 0.480417 15.7375 0.653622V3.89101H15.7383Z" fill="black"/>
<path fill-rule="evenodd" clip-rule="evenodd" d="M20.3121 0.652395V3.23616C20.3118 3.33996 20.2705 3.43951 20.1971 3.51292C20.1237 3.58632 20.0242 3.62758 19.9204 3.62781H16.5234V0.652395C16.5239 0.548657 16.5653 0.449301 16.6386 0.375946C16.712 0.302592 16.8114 0.261191 16.9151 0.260742H19.9204C20.0242 0.260968 20.1237 0.302231 20.1971 0.375634C20.2705 0.449037 20.3118 0.548588 20.3121 0.652395Z" fill="#00ACE2"/>
<path fill-rule="evenodd" clip-rule="evenodd" d="M16.7848 3.368H19.9208C19.9553 3.36778 19.9884 3.3539 20.0128 3.32946C20.0373 3.30503 20.0511 3.27194 20.0514 3.23738V0.653622C20.0507 0.619283 20.0366 0.586582 20.0122 0.562376C19.9878 0.538169 19.9551 0.524376 19.9208 0.523939H16.9154C16.8811 0.524376 16.8484 0.538169 16.824 0.562376C16.7996 0.586582 16.7855 0.619283 16.7848 0.653622V3.368ZM19.9208 3.89101H16.2617V0.653622C16.2619 0.480338 16.3311 0.31419 16.4536 0.19166C16.5761 0.0691293 16.7422 0.000225778 16.9154 0H19.9208C20.094 0.000225778 20.2601 0.0691293 20.3826 0.19166C20.5051 0.31419 20.5743 0.480338 20.5745 0.653622V3.23738C20.5743 3.41067 20.5051 3.57682 20.3826 3.69935C20.2601 3.82188 20.094 3.89078 19.9208 3.89101Z" fill="black"/>
<path fill-rule="evenodd" clip-rule="evenodd" d="M6.82474 19.2937L5.36896 12.6123H1.60243L1.17578 19.2937H6.82474Z" fill="#FFF223"/>
<path fill-rule="evenodd" clip-rule="evenodd" d="M31.7362 35.388H27.288C26.264 29.3671 25.5814 22.9937 24.7631 16.9097L24.3833 6.24339C25.3484 5.86964 27.1993 4.84403 28.2361 5.25447C30.1057 5.99257 30.4827 11.6295 30.6252 14.3729C30.9861 21.2428 31.7345 28.5726 31.7345 35.3896L31.7362 35.388Z" fill="#00ACE2"/>
<path fill-rule="evenodd" clip-rule="evenodd" d="M25.1719 19.2937L26.6558 12.6123H30.4956L30.9325 19.2937H25.1719Z" fill="#FFF223"/>
<path fill-rule="evenodd" clip-rule="evenodd" d="M23.7656 35.3423C24.3356 35.3295 24.4849 35.1715 24.496 34.5461L25.0728 19.272L28.0944 5.19255L20.3105 2.19141C19.79 2.69827 12.1538 2.69827 11.6862 2.19141L3.90234 5.19255L6.9239 19.272L7.50076 34.5461C7.5127 35.198 7.6766 35.344 8.31573 35.344H23.5258C23.6043 35.344 23.6837 35.344 23.7631 35.344L23.7656 35.3423Z" fill="#00ACE2"/>
<path fill-rule="evenodd" clip-rule="evenodd" d="M6.51084 17.1227H25.5464L26.9049 10.4414H5.15234L6.51084 17.1227Z" fill="#FFF223"/>
<path fill-rule="evenodd" clip-rule="evenodd" d="M4.20422 5.36265L7.18307 19.2425L7.76076 34.5353C7.77015 35.0405 7.8119 35.0806 8.31449 35.0806H23.68C24.1834 35.0806 24.2243 35.0405 24.2337 34.5396L24.8114 19.2416L27.7902 5.36181L20.3274 2.48359C19.661 2.67295 18.9721 2.77168 18.2793 2.77712C17.49 2.82149 16.6351 2.83347 15.9636 2.83347C15.0506 2.83347 14.1331 2.81898 13.2226 2.74816C12.6895 2.7414 12.1606 2.65267 11.6544 2.48525L4.20172 5.35921L4.20422 5.36265ZM27.4848 35.0636C27.5496 35.0792 27.6162 35.0852 27.6828 35.0815H31.3878C31.4141 35.0818 31.4404 35.0801 31.4664 35.0764C31.4702 35.0124 31.4702 34.9482 31.4664 34.8843L31.3724 33.1453C31.0507 27.2302 30.7179 21.1137 30.4039 15.0613L30.3904 14.7899C30.3248 12.9833 30.1538 11.182 29.8783 9.39532C29.4269 6.79274 28.7878 5.86348 28.2861 5.56483L25.3483 19.2535L27.449 34.8016C27.4547 34.8896 27.468 34.977 27.489 35.0627L27.4848 35.0636ZM29.1846 5.71847C29.2912 5.86684 29.3874 6.02254 29.4723 6.18439C30.4246 7.98742 30.741 11.4331 30.9091 14.7652L30.9228 15.0356C31.2369 21.0881 31.5697 27.2037 31.8913 33.1188L31.9859 34.857C32.0059 34.9586 32.0046 35.0633 31.982 35.1644C31.9593 35.2655 31.9161 35.3607 31.8547 35.4441C31.792 35.5014 31.7183 35.5454 31.638 35.5731C31.5577 35.6009 31.4725 35.6119 31.3878 35.6054H27.6828C27.0479 35.6054 26.9711 35.3119 26.9251 34.8639L25.2185 22.252L24.7543 34.5567C24.7398 35.34 24.4685 35.6054 23.6783 35.6054H8.31283C7.52267 35.6054 7.25049 35.3392 7.23599 34.5516L6.77184 22.252L5.06523 34.8724C5.02086 35.3119 4.94408 35.6054 4.30922 35.6054H0.611853C0.214214 35.6054 0.000853303 35.4288 0 35.0192C0 34.9646 6.83307e-05 34.9099 0.00604145 34.857L0.100621 33.1146C0.421463 27.2012 0.755133 21.083 1.06829 15.0356L1.08204 14.7661C1.26294 11.1924 1.61362 7.4874 2.73657 5.81919C3.04632 5.35621 3.50955 5.01737 4.04465 4.86256L11.7542 1.88965C11.8105 1.95109 11.8454 2.00917 11.9248 2.03818C13.0819 2.25859 14.2599 2.35102 15.4372 2.3138C15.7972 2.31778 16.1572 2.31778 16.5173 2.3138C17.7302 2.3724 18.9456 2.26883 20.1311 2.00579L20.2455 1.89392L27.4986 4.69194L27.9432 4.86256C28.4364 5.00699 28.8701 5.30613 29.1804 5.71586L29.1846 5.71847ZM0.528106 35.0772C0.554389 35.0809 0.580934 35.0826 0.607478 35.0823H4.31255C4.37878 35.086 4.44516 35.08 4.50963 35.0644C4.53045 34.9804 4.54371 34.8947 4.549 34.8084L6.65059 19.2518L3.71278 5.56316C3.21104 5.86182 2.57088 6.79106 2.12034 9.39448C1.84473 11.1812 1.6739 12.9824 1.60848 14.7891L1.5939 15.0596C1.27989 21.1112 0.947069 27.226 0.626227 33.1394L0.531648 34.8818C0.527979 34.9457 0.527979 35.0098 0.531648 35.0738L0.528106 35.0772Z" fill="black"/>
</svg>
