<svg width="32" height="36" viewBox="0 0 32 36" fill="none" xmlns="http://www.w3.org/2000/svg">
<g clip-path="url(#clip0)">
<path fill-rule="evenodd" clip-rule="evenodd" d="M12.076 0.263184H15.0831C15.1869 0.263635 15.2864 0.305123 15.3597 0.37861C15.433 0.452097 15.4742 0.551602 15.4745 0.655415V3.63272H12.076C11.9721 3.6325 11.8723 3.59107 11.7988 3.51756C11.7252 3.44405 11.6838 3.3444 11.6836 3.24044V0.655415C11.6838 0.551455 11.7252 0.451809 11.7988 0.378297C11.8723 0.304786 11.9721 0.263409 12.076 0.263184Z" fill="white"/>
<path d="M12.0757 0.522851C12.0414 0.523293 12.0086 0.537131 11.9844 0.561396C11.9601 0.58566 11.9462 0.618413 11.9458 0.652725V3.2378C11.9462 3.2722 11.9599 3.3051 11.9841 3.3295C12.0084 3.3539 12.0413 3.3679 12.0757 3.36856H15.2128V0.652725C15.2123 0.618413 15.1984 0.58566 15.1742 0.561396C15.1499 0.537131 15.1171 0.523293 15.0828 0.522851H12.0757ZM15.7358 3.89156H12.0757C11.9024 3.89133 11.7362 3.82237 11.6136 3.69982C11.4911 3.57727 11.4221 3.41112 11.4219 3.2378V0.652725C11.4221 0.479412 11.4911 0.313257 11.6136 0.190706C11.7362 0.0681544 11.9024 -0.000750452 12.0757 -0.000976562H15.0828C15.256 -0.000750111 15.4221 0.0681821 15.5445 0.190758C15.6669 0.313334 15.7358 0.47949 15.7358 0.652725V3.89156Z" fill="black"/>
<path fill-rule="evenodd" clip-rule="evenodd" d="M20.3125 0.653552V3.23863C20.3123 3.34244 20.2709 3.44195 20.1975 3.51543C20.1242 3.58892 20.0249 3.63041 19.9211 3.63086H16.5225V0.653552C16.5229 0.549887 16.5643 0.450623 16.6376 0.377321C16.7109 0.304018 16.8102 0.262657 16.9139 0.262207H19.9211C20.0248 0.262657 20.124 0.304018 20.1973 0.377321C20.2706 0.450623 20.3121 0.549887 20.3125 0.653552Z" fill="white"/>
<path d="M16.7848 3.36856H19.922C19.9564 3.36812 19.9893 3.35415 20.0136 3.32971C20.0379 3.30526 20.0515 3.27226 20.0518 3.2378V0.652725C20.0511 0.618481 20.0372 0.585823 20.013 0.561604C19.9887 0.537386 19.9562 0.523507 19.922 0.522851H16.9147C16.8803 0.523288 16.8473 0.537102 16.8229 0.561344C16.7985 0.585586 16.7846 0.618335 16.7839 0.652725V3.36856H16.7848ZM19.922 3.89156H16.2617V0.652725C16.2619 0.479412 16.3309 0.313257 16.4535 0.190706C16.576 0.0681544 16.7423 -0.000750452 16.9156 -0.000976562H19.9228C20.0961 -0.000750452 20.2622 0.0681544 20.3847 0.190706C20.5073 0.313257 20.5762 0.479412 20.5765 0.652725V3.2378C20.5762 3.41112 20.5073 3.57727 20.3847 3.69982C20.2622 3.82237 20.0961 3.89133 19.9228 3.89156H19.922Z" fill="black"/>
<path fill-rule="evenodd" clip-rule="evenodd" d="M0.267055 34.8858C0.249964 35.196 0.253419 35.3592 0.60379 35.3592H4.31017C4.74429 35.3592 4.76824 35.2396 4.80755 34.8516L6.96775 18.8653C5.936 14.3168 4.90393 9.76788 3.87162 5.21875C3.83224 5.22954 3.79346 5.24241 3.75541 5.25724C1.88477 5.99644 1.50808 11.634 1.3628 14.3789C1.00958 21.2154 0.643673 28.0519 0.265386 34.8884L0.267055 34.8858Z" fill="#FF0A05"/>
<path fill-rule="evenodd" clip-rule="evenodd" d="M31.7323 34.8858C31.7494 35.196 31.7459 35.3592 31.3947 35.3592H27.6883C27.2542 35.3592 27.2303 35.2396 27.1901 34.8516L25.0308 18.8653L28.125 5.21875C28.1644 5.22953 28.2032 5.24241 28.2412 5.25724C30.1119 5.99644 30.4888 11.634 30.634 14.3789C30.9918 21.2154 31.358 28.0519 31.7323 34.8884V34.8858Z" fill="#FF0A05"/>
<path fill-rule="evenodd" clip-rule="evenodd" d="M28.0983 5.20081L20.3123 2.19873C19.7919 2.70634 12.1531 2.70549 11.6814 2.19873L3.89453 5.20081C4.90178 9.89465 5.9094 14.5885 6.91722 19.2823L7.49388 34.5576C7.50584 35.2097 7.66915 35.3558 8.30922 35.3558H23.5274C23.606 35.3558 23.6854 35.3558 23.764 35.3558C24.3348 35.343 24.4843 35.1849 24.4954 34.5593L25.0723 19.284C26.0796 14.5919 27.0869 9.89803 28.0942 5.20248L28.0983 5.20081Z" fill="white"/>
<path fill-rule="evenodd" clip-rule="evenodd" d="M4.10547 6.18457H7.2477V12.0187H5.48662L4.10547 6.18457Z" fill="#FF0A05"/>
<path fill-rule="evenodd" clip-rule="evenodd" d="M24.7466 6.18457H27.8231L26.5849 12.0187H24.7474V6.18457H24.7466Z" fill="#FF0A05"/>
<path fill-rule="evenodd" clip-rule="evenodd" d="M13.0811 6.18457H18.9136V12.0187H13.0811V6.18457Z" fill="#FF0A05"/>
<path fill-rule="evenodd" clip-rule="evenodd" d="M7.24951 12.0195H13.0819V17.8545H7.24951V12.0195Z" fill="#FF0A05"/>
<path fill-rule="evenodd" clip-rule="evenodd" d="M18.9146 12.0195H24.7469V17.8545H18.9146V12.0195Z" fill="#FF0A05"/>
<path fill-rule="evenodd" clip-rule="evenodd" d="M11.9035 2.2251L13.0819 2.54984V6.18429H7.24951V4.01199L11.9035 2.2251Z" fill="#FF0A05"/>
<path fill-rule="evenodd" clip-rule="evenodd" d="M20.2892 2.27881L24.7464 4.03921V6.18501H18.9141V2.51978L20.2892 2.27964V2.27881Z" fill="#FF0A05"/>
<path fill-rule="evenodd" clip-rule="evenodd" d="M13.083 17.8535H18.9154V23.6876H13.083V17.8535Z" fill="#FF0A05"/>
<path fill-rule="evenodd" clip-rule="evenodd" d="M13.082 29.5225H18.9144V35.3573H13.082V29.5225Z" fill="#FF0A05"/>
<path fill-rule="evenodd" clip-rule="evenodd" d="M7.25 23.6885H13.0824V29.5225H7.25V23.6885Z" fill="#FF0A05"/>
<path fill-rule="evenodd" clip-rule="evenodd" d="M18.9141 23.6885H24.7475V29.5225H18.9141V23.6885Z" fill="#FF0A05"/>
<path fill-rule="evenodd" clip-rule="evenodd" d="M7.25112 17.8535V23.6876L6.80172 19.5455L6.58203 17.8535H7.25112Z" fill="#F14941"/>
<path fill-rule="evenodd" clip-rule="evenodd" d="M24.7461 17.8535V23.6876L25.1955 19.5455L25.4152 17.8535H24.7461Z" fill="#F14941"/>
<path d="M4.20152 5.36478C5.1951 9.99309 6.18849 14.6217 7.18207 19.2506L7.75977 34.5473C7.76917 35.0523 7.81121 35.0934 8.3137 35.0934H23.6846C24.1879 35.0934 24.2291 35.0532 24.2385 34.5524L24.816 19.2489L27.7976 5.36478L20.3314 2.48573C19.6657 2.67504 18.9776 2.77391 18.2856 2.7797C17.4959 2.82414 16.6406 2.83528 15.9689 2.83613C15.0562 2.83613 14.1376 2.82158 13.2266 2.75065C12.6932 2.7438 12.1639 2.65504 11.6575 2.48746L4.20236 5.36222L4.20152 5.36478ZM3.70998 5.56814C3.2075 5.86638 2.56744 6.79704 2.11623 9.4009C1.84058 11.1883 1.6695 12.9902 1.60362 14.7975C1.25666 21.4984 0.897739 28.1985 0.526858 34.8977C0.523002 34.9614 0.523002 35.0253 0.526858 35.0891C0.552883 35.0929 0.579211 35.0946 0.605513 35.0942H4.31168C4.37801 35.0981 4.44451 35.092 4.50905 35.0763C4.53001 34.9922 4.54329 34.9064 4.54848 34.8199L6.65068 19.2583C5.67135 14.6943 4.6915 10.1298 3.71103 5.56475L3.70998 5.56814ZM1.08141 14.771C1.26257 11.1955 1.61296 7.49007 2.73671 5.82111C3.04653 5.35798 3.50985 5.01905 4.04505 4.864L11.7566 1.89014C11.813 1.95167 11.849 2.00973 11.9277 2.03879C13.085 2.25939 14.263 2.35201 15.4406 2.31486C15.8007 2.31885 16.1609 2.31885 16.5209 2.31486C17.7342 2.37315 18.9499 2.26939 20.1357 2.00635L20.2503 1.89441L27.5088 4.69308L27.9532 4.864C28.447 5.00864 28.8811 5.30825 29.1915 5.71857C29.2982 5.86674 29.3941 6.02237 29.4785 6.18429C30.4314 7.98742 30.7477 11.4348 30.9169 14.7684C31.2587 21.4691 31.6296 28.1679 31.9945 34.8677C32.0146 34.9695 32.0134 35.0743 31.9907 35.1756C31.9681 35.2768 31.9244 35.3722 31.8628 35.4557C31.8001 35.513 31.7262 35.557 31.6458 35.5846C31.5654 35.6122 31.4802 35.623 31.3955 35.6164H27.6891C27.0542 35.6164 26.9773 35.3224 26.932 34.8746L25.2228 22.2578L24.758 34.5635C24.7435 35.3472 24.4717 35.6129 23.6812 35.6129H8.3137C7.52322 35.6129 7.25147 35.3471 7.23694 34.5584L6.77189 22.2527L5.06277 34.878C5.01833 35.3172 4.94141 35.6112 4.30647 35.6112H0.608017C0.20979 35.6112 -0.00305169 35.4343 -0.00390625 35.025C-0.00390625 34.9703 -0.00383782 34.9156 0.00214413 34.8626C0.367328 28.1634 0.726253 21.4642 1.0789 14.765L1.08141 14.771ZM30.393 14.7966C30.3273 12.9893 30.156 11.1874 29.8802 9.40001C29.429 6.79616 28.7889 5.86638 28.2864 5.56814L25.3484 19.2617L27.4498 34.8147C27.4551 34.903 27.4686 34.9905 27.4901 35.0763C27.5546 35.0921 27.6211 35.0981 27.6874 35.0942H31.3936C31.4199 35.0946 31.4462 35.0929 31.4723 35.0891C31.4763 35.0253 31.4763 34.9614 31.4723 34.8977C31.1088 28.1973 30.7496 21.4969 30.3947 14.7966H30.393Z" fill="black"/>
</g>
<defs>
<clipPath id="clip0">
<path d="M0 5.99999C0 2.68628 2.68629 0 6 0H26C29.3137 0 32 2.68629 32 6V35.6174H0V5.99999Z" fill="white"/>
</clipPath>
</defs>
</svg>
