<svg width="24" height="24" viewBox="0 0 24 24" fill="none" xmlns="http://www.w3.org/2000/svg">
    <path
        d="M18.8538 4.66407C17.6926 4.46407 16.4964 4.62679 15.3354 4.74131C14.1786 4.85542 12.9709 4.99507 11.8248 4.72379C10.4754 4.40439 9.62171 3.51984 8.9922 2.32135C8.81863 2.79095 8.6451 3.26051 8.47157 3.73016C7.33616 6.80229 6.20079 9.87442 5.06543 12.9466L2 21.2413L3.18384 21.6788L5.94257 14.2141C6.45456 14.7603 7.08667 15.1569 7.89813 15.349C9.04408 15.6201 10.252 15.4807 11.4086 15.3666C12.5695 15.2518 13.7659 15.0892 14.9271 15.2893C16.4192 15.5463 17.3833 16.4399 18.0732 17.7538C19.3823 14.2121 20.6911 10.6704 22 7.12858C21.3099 5.8147 20.3461 4.92114 18.8538 4.66407ZM18.9993 10.9699C18.4156 10.4772 17.7889 10.1478 17.0333 10.0025C16.7812 10.6844 16.5292 11.3662 16.2772 12.0481C17.0329 12.1935 17.6594 12.5229 18.2433 13.0155C18.0122 13.6409 17.7811 14.2662 17.55 14.8914C16.9663 14.3988 16.3395 14.0691 15.5839 13.924C15.815 13.2987 16.0461 12.6734 16.2772 12.0481C15.5078 11.924 14.7566 11.9247 13.9803 11.9722C13.7492 12.5975 13.518 13.2229 13.287 13.8482C12.4837 13.9131 11.6832 14.0052 10.88 14.07C11.1111 13.4446 11.3422 12.8193 11.5733 12.1941C10.7969 12.2417 10.0457 12.2425 9.27628 12.1183C9.04518 12.7436 8.81409 13.3689 8.58299 13.9941C7.82746 13.849 7.20052 13.5194 6.61689 13.0267C6.84794 12.4014 7.07908 11.7761 7.31013 11.1509C7.89398 11.6436 8.52062 11.9731 9.27628 12.1183C9.52824 11.4364 9.78033 10.7545 10.0323 10.0726C9.27667 9.92771 8.64995 9.59771 8.06614 9.10526C8.31819 8.42331 8.5702 7.74136 8.8222 7.0595C9.40605 7.55235 10.0327 7.8815 10.7883 8.02698C11.0194 7.40167 11.2505 6.7764 11.4816 6.15117C12.251 6.27525 13.0023 6.27455 13.7786 6.22691C13.5475 6.85218 13.3164 7.47749 13.0853 8.10276C13.8885 8.03787 14.689 7.94581 15.4923 7.88097C15.7233 7.2557 15.9545 6.63039 16.1856 6.00508C16.9619 5.95753 17.7131 5.95678 18.4825 6.0809C18.2514 6.70622 18.0203 7.33149 17.7892 7.95684C18.5449 8.10214 19.1714 8.43152 19.7553 8.92419C19.5034 9.6061 19.2515 10.288 18.9993 10.9699Z"
        fill="#E1BC74" />
    <path
        d="M12.3293 10.1484C12.0773 10.8303 11.8253 11.5122 11.5732 12.1941C12.3765 12.1292 13.1771 12.0371 13.9803 11.9722C14.2323 11.2904 14.4843 10.6085 14.7363 9.92664C13.933 9.99152 13.1325 10.0836 12.3293 10.1484Z"
        fill="#E1BC74" />
    <path
        d="M12.3292 10.1485C12.5813 9.46659 12.8333 8.78464 13.0853 8.10282C12.3088 8.15024 11.5578 8.15103 10.7882 8.02704C10.5362 8.7089 10.2842 9.39081 10.0322 10.0727C10.8016 10.1969 11.5529 10.1961 12.3292 10.1485Z"
        fill="#E1BC74" />
    <path
        d="M15.4923 7.88106C15.2403 8.56292 14.9883 9.24478 14.7363 9.92669C15.5127 9.87927 16.2638 9.87848 17.0333 10.0026C17.2853 9.3207 17.5373 8.63879 17.7893 7.95693C17.0199 7.8328 16.2687 7.83342 15.4923 7.88106Z"
        fill="#E1BC74" />
</svg>