<svg width="28" height="28" viewBox="0 0 28 28" fill="none" xmlns="http://www.w3.org/2000/svg">
<path d="M4.92592 10.3924V6.01944C4.92592 5.41564 4.43646 4.92619 3.83266 4.92619C3.22886 4.92619 2.73941 5.41564 2.73941 6.01944V10.3924C1.23238 10.3924 0.00634766 11.6184 0.00634766 13.1254V19.6848C0.00634766 21.1918 1.23238 22.4178 2.73941 22.4178V26.9067C2.73941 27.5105 3.22886 28 3.83266 28C4.43646 28 4.92592 27.5105 4.92592 26.9067V22.4178C6.43294 22.4178 7.65897 21.1918 7.65897 19.6848V13.1254C7.65903 11.6183 6.43294 10.3924 4.92592 10.3924ZM5.47257 19.6848C5.47257 19.9862 5.22735 20.2314 4.92597 20.2314H2.73946C2.43808 20.2314 2.19286 19.9862 2.19286 19.6848V13.1254C2.19286 12.824 2.43808 12.5788 2.73946 12.5788H4.92592C5.2273 12.5788 5.47252 12.824 5.47252 13.1254V19.6848H5.47257ZM15.1476 4.92619H15.093V3.06769C15.093 2.46389 14.6035 1.97443 13.9997 1.97443C13.3959 1.97443 12.9064 2.46389 12.9064 3.06769V4.92619H12.8518C11.3447 4.92619 10.1187 6.15222 10.1187 7.65924V11.6495C10.1187 13.1565 11.3447 14.3826 12.8518 14.3826H12.9064V20.1767C12.9064 20.7805 13.3959 21.27 13.9997 21.27C14.6035 21.27 15.093 20.7805 15.093 20.1767V14.3826H15.1476C16.6547 14.3826 17.8807 13.1565 17.8807 11.6495V7.65924C17.8807 6.15228 16.6546 4.92619 15.1476 4.92619ZM15.6942 11.6496C15.6942 11.9509 15.449 12.1962 15.1476 12.1962H12.8519C12.5505 12.1962 12.3053 11.9509 12.3053 11.6496V7.6593C12.3053 7.35792 12.5505 7.1127 12.8519 7.1127H15.1476C15.449 7.1127 15.6942 7.35792 15.6942 7.6593V11.6496ZM25.8066 12.5788V7.11264C25.8066 6.81126 25.5614 6.56604 25.26 6.56604H23.0735C22.7722 6.56604 22.5269 6.81126 22.5269 7.11264V18.0449C22.5269 18.3463 22.7722 18.5915 23.0735 18.5915H25.26C25.5614 18.5915 25.8066 18.3463 25.8066 18.0449C25.8066 17.4411 26.2961 16.9517 26.8999 16.9517C27.5037 16.9517 27.9931 17.4411 27.9931 18.0449C27.9931 19.5519 26.7671 20.778 25.2601 20.778V24.7136C25.2601 25.3174 24.7706 25.8069 24.1668 25.8069C23.563 25.8069 23.0735 25.3174 23.0735 24.7136V20.778C21.5665 20.778 20.3405 19.5519 20.3405 18.0449V7.11264C20.3405 5.60562 21.5665 4.37959 23.0735 4.37959V1.09326C23.0735 0.489452 23.563 0 24.1667 0C24.7705 0 25.26 0.489452 25.26 1.09326V4.37959C26.767 4.37959 27.9931 5.60562 27.9931 7.11264V12.5788C27.9931 13.1826 27.5036 13.6721 26.8998 13.6721C26.296 13.6721 25.8066 13.1826 25.8066 12.5788Z" fill="url(#paint0_linear)"/>
<defs>
<linearGradient id="paint0_linear" x1="0.00640384" y1="14.0004" x2="27.9923" y2="14.0004" gradientUnits="userSpaceOnUse">
<stop offset="0.021" stop-color="#00ACE2"/>
<stop offset="1" stop-color="#0B93B5"/>
</linearGradient>
</defs>
</svg>
