<svg xmlns="http://www.w3.org/2000/svg" width="21" height="21" viewBox="0 0 21 21">
  <g id="Group_460" data-name="Group 460" transform="translate(-907 -341)">
    <g id="_927667" data-name="927667" transform="translate(910.655 342.69)">
      <g id="Group_416" data-name="Group 416" transform="translate(0 0)">
        <g id="Group_415" data-name="Group 415">
          <path id="Path_450" data-name="Path 450" d="M54.607,0A6.535,6.535,0,0,0,48.08,6.527a7.531,7.531,0,0,0,.554,2.513,10.527,10.527,0,0,0,.754,1.411l4.475,6.781a.851.851,0,0,0,1.487,0l4.476-6.781a10.482,10.482,0,0,0,.754-1.411,7.529,7.529,0,0,0,.553-2.513A6.535,6.535,0,0,0,54.607,0Zm5.266,8.742a9.645,9.645,0,0,1-.688,1.286L54.71,16.81c-.088.134-.116.134-.2,0l-4.476-6.781a9.649,9.649,0,0,1-.688-1.287,6.836,6.836,0,0,1-.494-2.215,5.759,5.759,0,1,1,11.519,0A6.842,6.842,0,0,1,59.873,8.742Z" transform="translate(-48.08 0)"/>
          <path id="Path_451" data-name="Path 451" d="M115.536,64.008a3.456,3.456,0,1,0,3.456,3.456A3.46,3.46,0,0,0,115.536,64.008Zm0,6.143a2.688,2.688,0,1,1,2.688-2.688A2.691,2.691,0,0,1,115.536,70.151Z" transform="translate(-109.008 -60.936)"/>
        </g>
      </g>
    </g>
    <rect id="Rectangle_936" data-name="Rectangle 936" width="21" height="21" transform="translate(907 341)" fill="none"/>
  </g>
</svg>
