<svg width="134" height="31" viewBox="0 0 134 31" fill="none" xmlns="http://www.w3.org/2000/svg">
    <path
        d="M0 13.4384V1.05225H6.87691V3.19472H2.40358V6.20758H6.67661V8.35006H2.40358V11.3629H6.87691V13.5054H0V13.4384Z"
        fill="white" />
    <path
        d="M16.7578 13.4384L17.9596 1.05225H20.5635L23.5012 8.81873L26.4389 1.05225H29.0428L30.2446 13.4384H27.841L27.1066 5.40415L24.3024 13.1037H22.8335L19.9626 5.40415L19.1614 13.4384H16.7578Z"
        fill="white" />
    <path d="M40.5938 13.4384V1.05225H42.9973V13.4384H40.5938Z" fill="white" />
    <path
        d="M53.9473 13.4384V1.05225H58.1535C59.0215 1.05225 59.7559 1.18615 60.3568 1.52091C60.9577 1.78872 61.4918 2.25739 61.8257 2.79301C62.1595 3.32863 62.3598 3.99815 62.3598 4.80158C62.3598 5.40415 62.2263 6.00672 62.026 6.47539C61.8257 6.94406 61.4918 7.41272 61.0912 7.74749C60.6906 8.08225 60.1565 8.35006 59.6224 8.48396L63.6951 13.4384H60.6239L57.0853 8.75177H56.4844V13.4384H53.9473ZM56.3508 6.67625H57.4191C57.9532 6.67625 58.3538 6.60929 58.6877 6.47539C59.0215 6.34148 59.2886 6.14063 59.4889 5.80586C59.6892 5.53805 59.7559 5.20329 59.7559 4.80158C59.7559 4.19901 59.5556 3.73034 59.155 3.39558C58.7544 3.06082 58.1535 2.92692 57.4191 2.92692H56.4176V6.67625H56.3508Z"
        fill="white" />
    <path
        d="M71.1738 13.4384L76.1145 1.05225H78.3846L83.3253 13.4384H80.7882L79.7199 10.6264H74.846L73.7777 13.4384H71.1738ZM75.7139 8.41701H78.9187L77.3163 4.26596L75.7139 8.41701Z"
        fill="white" />
    <path d="M93.7396 13.4384V3.19472H90.6016V1.05225H99.2812V3.19472H96.1432V13.4384H93.7396Z" fill="white" />
    <path
        d="M108.762 13.4384V1.05225H115.639V3.19472H111.165V6.20758H115.438V8.35006H111.165V11.3629H115.639V13.5054H108.762V13.4384Z"
        fill="white" />
    <path
        d="M129.394 13.6442C128.793 13.6442 128.259 13.5773 127.791 13.4434C127.324 13.3095 126.856 13.1756 126.523 12.9747C126.122 12.7739 125.788 12.573 125.521 12.3721C125.254 12.1713 125.054 11.9704 124.854 11.8365L126.122 9.82796C126.256 9.96186 126.456 10.1627 126.723 10.2966C126.923 10.4975 127.19 10.6314 127.524 10.8322C127.858 11.0331 128.125 11.1 128.459 11.2339C128.793 11.3679 129.127 11.3679 129.527 11.3679C129.861 11.3679 130.195 11.3009 130.462 11.2339C130.729 11.1 130.929 10.9661 131.063 10.7653C131.196 10.5644 131.263 10.2966 131.263 9.96186C131.263 9.69405 131.196 9.42623 131.063 9.22538C130.929 9.02452 130.729 8.82367 130.529 8.68976C130.328 8.55586 129.995 8.355 129.661 8.22109C129.327 8.08719 128.926 7.88633 128.459 7.68548C128.125 7.55157 127.791 7.35071 127.524 7.14985C127.19 6.949 126.923 6.74814 126.723 6.48033C126.456 6.21252 126.322 5.94471 126.189 5.60995C126.055 5.27519 125.989 4.94042 125.989 4.53871C125.989 4.07004 126.055 3.60138 126.256 3.19966C126.456 2.73099 126.723 2.39623 127.057 2.06147C127.391 1.72671 127.858 1.4589 128.325 1.25805C128.793 1.05719 129.327 0.990234 129.928 0.990234C130.395 0.990234 130.796 1.05718 131.263 1.19109C131.73 1.32499 132.131 1.4589 132.532 1.65976C132.932 1.86062 133.266 2.06147 133.533 2.32928L132.532 4.2709C132.331 4.07005 132.064 3.93614 131.797 3.80223C131.53 3.66833 131.263 3.53442 130.929 3.46747C130.595 3.40052 130.328 3.33357 129.995 3.33357C129.661 3.33357 129.327 3.40052 129.06 3.53442C128.793 3.66833 128.592 3.80224 128.459 4.00309C128.325 4.20395 128.259 4.47176 128.259 4.67262C128.259 4.87347 128.325 5.07433 128.392 5.20823C128.459 5.34214 128.592 5.47605 128.793 5.60995C128.993 5.74386 129.127 5.81081 129.394 5.94471C129.594 6.01167 129.861 6.14557 130.128 6.27948C130.729 6.54729 131.263 6.74814 131.73 7.01595C132.198 7.28376 132.598 7.55157 132.932 7.81938C133.266 8.08719 133.533 8.42195 133.733 8.82367C133.934 9.22538 134 9.69404 134 10.2297C134 11.0331 133.8 11.7026 133.466 12.2382C133.066 12.7739 132.532 13.2425 131.864 13.5103C131.063 13.5103 130.262 13.6442 129.394 13.6442Z"
        fill="white" />
    <path
        d="M0.599609 30.4516V18.668H1.66787V24.0911H8.07742V18.668H9.14567V30.4516H8.07742V25.0285H1.66787V30.4516H0.599609Z"
        fill="white" />
    <path
        d="M19.3621 30.7172C18.5609 30.7172 17.7597 30.5833 17.0253 30.2485C16.2909 29.9138 15.69 29.5121 15.1558 28.9095C14.6217 28.3739 14.2211 27.7043 13.8873 26.9679C13.5535 26.2314 13.4199 25.428 13.4199 24.5576C13.4199 23.6872 13.5535 22.8838 13.8873 22.1473C14.2211 21.4108 14.6217 20.7413 15.1558 20.2057C15.69 19.6701 16.3576 19.2014 17.0253 18.8666C17.693 18.5319 18.4941 18.3979 19.3621 18.3979C20.1633 18.3979 20.9645 18.5319 21.6989 18.8666C22.4334 19.2014 23.0342 19.6031 23.5684 20.2057C24.1025 20.7413 24.5031 21.4108 24.8369 22.1473C25.1708 22.8838 25.3043 23.6872 25.3043 24.5576C25.3043 25.428 25.1708 26.2314 24.8369 26.9679C24.5031 27.7043 24.1025 28.3739 23.5684 28.9095C23.0342 29.4451 22.3666 29.9138 21.6989 30.2485C20.9645 30.5164 20.1633 30.7172 19.3621 30.7172ZM19.3621 29.646C20.0298 29.646 20.6307 29.5121 21.2316 29.2443C21.8325 28.9764 22.2998 28.6417 22.7672 28.173C23.2345 27.7043 23.5684 27.1687 23.7687 26.5662C24.0357 25.9636 24.1025 25.2941 24.1025 24.5576C24.1025 23.8211 23.969 23.2185 23.7687 22.549C23.5684 21.8795 23.1678 21.4108 22.7672 20.9421C22.2998 20.4735 21.8325 20.1387 21.2316 19.8709C20.6307 19.6031 20.0298 19.4692 19.3621 19.4692C18.6944 19.4692 18.0936 19.6031 17.4927 19.8709C16.8918 20.1387 16.4244 20.4735 15.957 20.9421C15.5564 21.4108 15.1558 21.9464 14.9555 22.549C14.7552 23.1516 14.6217 23.8211 14.6217 24.5576C14.6217 25.2941 14.7552 25.8966 14.9555 26.5662C15.2226 27.1687 15.5564 27.7043 15.957 28.173C16.3576 28.6417 16.8918 28.9764 17.4927 29.2443C18.0936 29.5121 18.6944 29.646 19.3621 29.646Z"
        fill="white" />
    <path
        d="M29.5781 30.4516V18.668H32.6494C33.4506 18.668 34.0515 18.8019 34.6524 19.0697C35.1865 19.3375 35.6538 19.7392 35.9209 20.2079C36.2547 20.6765 36.3883 21.2791 36.3883 22.0156C36.3883 22.6182 36.2547 23.2207 35.9877 23.6894C35.7206 24.1581 35.3868 24.5598 34.9194 24.8946C34.4521 25.1624 33.9179 25.3632 33.2503 25.4302L37.1895 30.5186H35.7874L32.0485 25.5641H30.7131V30.5186H29.5781V30.4516ZM30.6464 24.5598H32.3823C32.9832 24.5598 33.5173 24.4259 33.9179 24.225C34.3185 24.0242 34.6524 23.7564 34.9194 23.3546C35.1865 22.9529 35.2532 22.5512 35.2532 22.0156C35.2532 21.2122 34.9862 20.6096 34.4521 20.2079C33.9179 19.7392 33.2503 19.5384 32.3155 19.5384H30.5796V24.5598H30.6464Z"
        fill="white" />
    <path
        d="M43.5978 30.72C42.9969 30.72 42.4627 30.653 41.9954 30.4521C41.528 30.2513 41.1274 30.0504 40.7936 29.7826C40.4598 29.5148 40.1927 29.247 39.9924 29.0461C39.7921 28.8453 39.6586 28.6444 39.5918 28.5105L40.1927 27.7071C40.2595 27.841 40.393 28.0419 40.5933 28.2427C40.7936 28.4436 40.9939 28.7114 41.261 28.9122C41.528 29.1131 41.8618 29.314 42.2624 29.5148C42.663 29.7157 43.0636 29.7826 43.5978 29.7826C44.0651 29.7826 44.5325 29.7157 44.8663 29.5148C45.2669 29.314 45.6008 29.1131 45.8011 28.7783C46.0681 28.4436 46.1349 28.0419 46.1349 27.5062C46.1349 27.1045 46.0681 26.7028 45.8678 26.435C45.6675 26.1672 45.4672 25.8994 45.2002 25.6985C44.9331 25.4977 44.5993 25.2968 44.1987 25.1629C43.7981 25.029 43.4642 24.8281 42.9969 24.6942C42.7298 24.5603 42.396 24.4264 42.1289 24.2925C41.7951 24.1586 41.528 23.9578 41.261 23.7569C40.9939 23.556 40.7936 23.2882 40.5933 22.9535C40.393 22.6187 40.3262 22.217 40.3262 21.7483C40.3262 21.3466 40.393 20.9449 40.5933 20.5432C40.7936 20.1415 40.9939 19.8067 41.261 19.5389C41.528 19.2711 41.9286 19.0033 42.3292 18.8694C42.7298 18.7355 43.1972 18.6016 43.6645 18.6016C44.1319 18.6016 44.5993 18.6685 44.9331 18.8024C45.2669 18.9363 45.6675 19.1372 46.0014 19.405C46.2684 19.6728 46.5355 19.8737 46.669 20.1415L46.1349 20.878C46.0014 20.6771 45.8011 20.4762 45.6008 20.2754C45.3337 20.0745 45.0666 19.9406 44.7328 19.8067C44.399 19.6728 44.0651 19.6058 43.6645 19.6058C43.1972 19.6058 42.7966 19.7398 42.396 19.9406C42.0621 20.1415 41.7951 20.4093 41.5948 20.744C41.3945 21.0788 41.3277 21.4136 41.3277 21.8153C41.3277 22.15 41.3945 22.4179 41.528 22.6857C41.6616 22.9535 41.8618 23.0874 42.0621 23.2882C42.2624 23.4221 42.5295 23.556 42.7966 23.69C43.0636 23.8239 43.3307 23.8908 43.5978 24.0247C44.0651 24.2256 44.5325 24.3595 44.9331 24.5603C45.3337 24.7612 45.7343 24.9621 46.0681 25.2299C46.4019 25.4977 46.669 25.8324 46.8693 26.1672C47.0696 26.5689 47.1364 27.0376 47.1364 27.5732C47.1364 28.3097 46.9361 28.9122 46.669 29.3809C46.3352 29.8496 45.8678 30.2513 45.3337 30.5191C44.7996 30.7869 44.3322 30.72 43.5978 30.72Z"
        fill="white" />
    <path
        d="M51.543 30.4516V18.668H57.4852V19.6053H52.678V24.0242H57.3516V24.9615H52.678V29.4473H57.4852V30.3847H51.543V30.4516Z"
        fill="white" />
    <path
        d="M66.5645 30.4516V18.668H69.6357C70.4369 18.668 71.0378 18.8019 71.6387 19.0697C72.1728 19.3375 72.6402 19.7392 72.9072 20.2079C73.2411 20.6765 73.3746 21.2791 73.3746 22.0156C73.3746 22.6182 73.2411 23.2207 72.974 23.6894C72.7069 24.1581 72.3731 24.5598 71.9057 24.8946C71.4384 25.1624 70.9043 25.3632 70.2366 25.4302L74.1758 30.5186H72.7737L69.0348 25.5641H67.6995V30.5186H66.5645V30.4516ZM67.6327 24.5598H69.3686C69.9695 24.5598 70.5037 24.4259 70.9043 24.225C71.3049 24.0242 71.6387 23.7564 71.9057 23.3546C72.1728 22.9529 72.2396 22.5512 72.2396 22.0156C72.2396 21.2122 71.9725 20.6096 71.4384 20.2079C70.9043 19.7392 70.2366 19.5384 69.3019 19.5384H67.5659V24.5598H67.6327Z"
        fill="white" />
    <path
        d="M76.5137 30.4516L81.1205 18.668H82.122L86.7289 30.4516H85.5271L84.125 26.7023H79.0508L77.5819 30.4516H76.5137ZM79.5181 25.7649H83.8579L81.7214 20.1409L79.5181 25.7649Z"
        fill="white" />
    <path
        d="M95.7448 30.7161C94.8768 30.7161 94.0756 30.5822 93.2744 30.2475C92.54 29.9127 91.8723 29.511 91.2714 28.9753C90.6705 28.4397 90.2699 27.7702 89.9361 27.0337C89.6023 26.2973 89.4688 25.4938 89.4688 24.6234C89.4688 23.7531 89.6023 22.9496 89.9361 22.2132C90.2699 21.4767 90.6705 20.8071 91.2714 20.2715C91.8056 19.7359 92.4732 19.2672 93.2744 18.9994C94.0088 18.6647 94.8768 18.5308 95.7448 18.5308C96.4792 18.5308 97.1469 18.6647 97.8145 18.8655C98.4822 19.0664 99.0163 19.4011 99.5504 19.7359L99.0163 20.6732C98.6157 20.3385 98.0816 20.0707 97.5475 19.8698C97.0133 19.669 96.4124 19.602 95.8115 19.602C95.0771 19.602 94.4094 19.7359 93.7418 20.0037C93.1409 20.2715 92.6068 20.6063 92.1394 21.0749C91.672 21.5436 91.3382 22.0792 91.0711 22.6818C90.8041 23.2844 90.6705 23.9539 90.6705 24.6904C90.6705 25.4269 90.8041 26.0294 91.0711 26.699C91.3382 27.3015 91.672 27.8372 92.1394 28.3058C92.6068 28.7745 93.1409 29.1093 93.7418 29.3771C94.3427 29.6449 95.0771 29.7788 95.8115 29.7788C96.4124 29.7788 97.0133 29.7118 97.5475 29.511C98.0816 29.3101 98.6157 29.0423 99.0163 28.7075L99.5504 29.6449C99.0831 30.0466 98.4822 30.3144 97.8813 30.5153C97.2804 30.7161 96.4792 30.7161 95.7448 30.7161Z"
        fill="white" />
    <path d="M103.221 30.4516V18.668H104.289V30.4516H103.221Z" fill="white" />
    <path
        d="M109.297 30.4516V18.668H110.365L116.708 28.5769V18.668H117.776V30.4516H116.708L110.365 20.5426V30.4516H109.297Z"
        fill="white" />
    <path
        d="M127.789 30.721C126.988 30.721 126.187 30.5871 125.519 30.2524C124.851 29.9176 124.184 29.5159 123.65 28.9133C123.115 28.3777 122.715 27.7082 122.448 26.9717C122.181 26.2352 121.98 25.4318 121.98 24.5614C121.98 23.758 122.114 23.0215 122.381 22.285C122.648 21.5486 123.049 20.879 123.516 20.3434C123.983 19.8078 124.651 19.3391 125.386 19.0044C126.12 18.6696 126.921 18.4688 127.856 18.4688C128.457 18.4688 129.058 18.5357 129.592 18.6696C130.126 18.8035 130.66 19.0044 131.061 19.3391C131.461 19.6739 131.929 19.9417 132.262 20.2765L131.728 21.0799C131.261 20.5443 130.727 20.1426 130.059 19.8748C129.392 19.54 128.657 19.4061 127.856 19.4061C127.121 19.4061 126.454 19.54 125.853 19.8078C125.252 20.0756 124.785 20.4773 124.384 20.946C123.983 21.4147 123.65 21.9503 123.449 22.5529C123.249 23.1554 123.115 23.8249 123.115 24.4945C123.115 25.2309 123.249 25.9005 123.449 26.503C123.716 27.1056 123.983 27.7082 124.451 28.1769C124.851 28.6455 125.386 28.9803 125.92 29.2481C126.454 29.5159 127.121 29.6498 127.722 29.6498C128.256 29.6498 128.791 29.5829 129.258 29.382C129.792 29.1811 130.193 28.9803 130.66 28.6455C131.061 28.3108 131.395 27.909 131.662 27.4404C131.929 26.9717 131.995 26.4361 131.995 25.9005V25.4988H127.656V24.6284H133.13V25.6996C133.13 26.503 132.997 27.2395 132.663 27.909C132.329 28.5116 131.929 29.0472 131.395 29.4489C130.86 29.8507 130.259 30.1854 129.659 30.3863C129.058 30.5871 128.457 30.721 127.789 30.721Z"
        fill="white" />
</svg>