<svg width="97" height="65" viewBox="0 0 97 65" fill="none" xmlns="http://www.w3.org/2000/svg">
    <path
        d="M68.3381 26.125C65.2504 33.7196 59.4247 34.888 56.2205 35.3554C53.0164 35.7643 47.7732 35.7643 44.6273 36.5822C38.918 38.0427 34.0244 42.5411 32.1602 48.1494C35.5974 45.1115 39.9667 44.2937 44.5108 44.8194C49.2879 45.3452 53.5989 47.9741 57.91 50.1357C62.2211 52.2972 67.5808 54.634 73.3483 52.9983C64.9592 52.4141 61.6967 49.5515 56.9779 46.2799C53.3076 43.7679 51.0939 42.5995 48.0645 41.8984C45.0351 41.1974 40.6075 41.4311 37.9277 43.0084C39.3258 41.4895 41.4814 40.029 43.4621 39.328C45.7342 38.4516 48.2975 38.8022 50.6861 38.919C53.3076 39.0358 55.871 38.6269 58.4343 37.9259C61.8133 36.8743 66.9982 33.3107 68.3381 26.125Z"
        fill="url(#paint0_linear)" />
    <path
        d="M69.6172 26.0107C70.3163 21.9213 71.9475 17.9487 74.3943 14.5604C75.3847 13.2167 76.4916 11.9315 77.8898 10.9967C79.2879 10.062 81.0357 9.59465 82.6669 9.88675C79.6375 10.2957 76.6664 12.282 74.6856 15.2614C72.4135 18.7082 70.8989 22.0966 69.6172 26.0107Z"
        fill="url(#paint1_linear)" />
    <path
        d="M62.6855 43.0741C63.3846 46.8714 66.9966 49.3834 70.4921 51.0192C71.9485 51.7202 73.5215 52.3629 75.2109 52.3044C77.5995 52.246 79.6385 50.7271 81.6775 49.5587C83.7165 48.3903 86.3381 47.514 88.3771 48.6824C86.9207 50.8439 85.4643 53.0055 84.0078 55.1086C83.5418 55.8096 83.0757 56.5107 82.3184 56.8612C81.5027 56.9196 80.3959 56.5691 79.6968 56.2186C79.5802 56.1602 79.4055 56.0433 79.2307 56.0433C78.9977 56.0433 78.7646 56.277 78.5899 56.3938C77.8908 57.0365 76.7839 57.2701 75.8518 56.9196C75.8518 57.6791 75.2692 58.2633 74.8031 58.9059C74.7449 59.0228 74.6284 59.1396 74.6284 59.2564C74.5701 59.6654 75.0362 59.8991 75.3857 60.0159C75.7352 59.4901 76.1431 58.9059 76.7256 58.6138C77.0169 58.497 77.3082 58.4386 77.5995 58.3801C78.4734 58.2049 79.4055 58.088 80.2793 57.9128C80.1628 58.088 79.9881 58.2049 79.8133 58.3217C79.289 58.6138 78.6481 58.497 78.0656 58.6138C76.7839 58.7307 75.677 59.7238 75.3274 60.8922C74.9779 62.119 75.1527 63.93 76.1431 64.6895C78.6481 61.8269 82.2018 60.0159 85.9886 59.6654C87.0955 59.5485 88.2606 59.5485 89.251 59.0228C91.29 57.9128 91.5231 55.1086 92.9212 53.2392C93.9116 51.9539 95.6011 51.0776 96.1837 49.5587C96.5332 48.7408 96.4749 47.8061 96.4749 46.8714C96.4167 44.8267 96.2419 42.6651 95.0768 41.0294C94.9603 40.8541 94.7855 40.6204 94.5524 40.6204C94.3194 40.6204 94.1446 40.7373 93.9699 40.9125C91.4648 42.782 84.7069 40.0362 84.8817 38.6341C84.9982 35.9468 84.8817 36.0052 84.1243 33.2595C83.5418 31.0979 82.5514 29.0532 82.0853 26.8917C81.561 24.7301 81.5027 22.2765 82.6679 20.3486C80.6289 21.517 79.9298 23.5033 79.9298 25.8401C79.9298 28.1769 80.6871 30.4553 81.328 32.7337C81.9688 35.0121 82.3184 35.83 81.794 38.1084C81.6193 36.2389 80.5124 35.1289 79.1724 33.8437C76.3178 31.1564 73.871 28.0601 73.5215 24.0875C72.065 27.5343 72.5893 31.7406 74.8614 34.72C76.4343 36.8231 78.7646 38.342 79.6968 40.7957C80.3959 42.6651 80.0463 44.8267 78.8812 46.404C76.9587 48.9745 73.2302 49.6171 70.1425 48.624C67.1714 47.6893 64.8993 45.4693 62.6855 43.0741ZM84.6487 58.7307C85.4643 58.2633 86.1634 57.6207 86.979 57.0949C87.445 56.8028 87.9111 56.5107 88.2024 56.1017C88.4354 55.6928 88.5519 55.2254 88.7849 54.8165C89.018 54.4076 89.4258 54.1155 89.7753 53.8234C91.8143 52.0708 93.2708 49.6171 93.7368 46.9298C93.8534 47.0466 94.2612 47.105 94.4359 47.0466C94.8437 47.8645 94.3777 48.8577 93.9116 49.6755C92.6299 51.8371 91.2318 53.8818 89.7171 55.8096C89.3675 56.277 88.9597 56.7444 88.4937 57.0949C87.3868 57.8544 85.8138 57.9128 84.6487 58.7307Z"
        fill="url(#paint2_linear)" />
    <path
        d="M88.7272 6.78881C89.4845 5.97092 90.4166 5.6204 91.4653 5.3283C89.7175 2.81624 87.2125 0.829954 84.2413 0.245753C81.2702 -0.396868 78.0078 0.245753 75.4444 1.88152C73.6967 2.9915 72.182 4.56884 70.2013 5.15304C68.3953 5.6204 66.4145 5.15304 65.0163 3.92622C65.6572 6.84723 68.2788 9.24245 71.3082 9.30087C69.6187 9.35929 68.0457 10.1772 66.7641 11.3456C65.5989 12.3971 64.7833 13.8576 63.5599 14.9092C61.7539 16.3697 59.1323 16.6618 57.0933 15.6102C57.9089 17.0123 58.7245 18.1223 60.0644 19.057C61.3461 19.9333 62.9191 20.5175 64.3172 19.9918C63.9677 20.9265 63.7929 21.7444 63.2103 22.5622C62.6278 23.3801 61.7539 24.0812 60.7635 24.198C59.9479 24.3148 55.4621 21.978 54.6465 24.899C56.336 24.5485 57.8506 26.009 58.8993 27.4111C59.9479 28.8132 61.1131 30.3905 62.8608 30.5074C64.8998 30.6242 66.3563 28.6379 67.2301 26.7685C68.5118 24.1396 69.3857 21.3354 70.6091 18.6481C71.8325 15.9608 73.3472 13.3903 75.6192 11.5208C77.8913 9.65139 80.9789 8.65825 83.7753 9.41771C86.5716 10.1772 88.9019 13.0398 88.4941 15.9608C88.3194 17.1292 87.562 18.4144 86.3386 18.4144C85.8725 18.4144 85.4647 18.2391 85.1152 17.947C83.5422 16.9539 82.2606 15.026 82.6684 13.215C81.7363 14.4418 81.5615 16.1944 82.0858 17.6549C82.6101 19.1154 83.717 20.2839 85.0569 21.1017C86.3969 21.9196 87.9698 22.2701 89.4845 22.5622C89.7175 23.9059 89.9506 25.308 90.7079 26.3595C91.5235 27.4695 93.0965 28.0537 94.2616 27.4111C95.485 26.7101 95.8346 24.5485 96.9997 23.7891C94.9607 21.277 92.8635 18.5897 92.5139 15.3766C92.4557 14.6171 92.4557 13.8576 92.3391 13.0982C92.1061 11.6377 91.2905 10.2356 90.5332 8.95035L88.7272 6.78881ZM71.8907 10.8782C75.2114 7.25617 80.2798 4.7441 85.0569 5.9125C80.5129 5.97092 76.0853 8.48299 72.8811 11.6961C69.6769 14.9092 68.2205 20.5175 65.8902 24.4901C67.6962 19.9333 68.57 14.5587 71.8907 10.8782Z"
        fill="url(#paint3_linear)" />
    <path
        d="M17.1875 50.955C21.0908 54.0513 26.8583 54.6355 31.2858 52.4155C33.6744 51.2471 35.6551 49.3192 38.102 48.3261C42.2382 46.5735 47.0736 47.5666 51.1517 49.3777C55.2297 51.1887 59.0747 53.7008 63.3275 55.1028C59.7738 54.986 56.2783 54.6939 52.8411 53.8176C51.2099 53.4086 46.491 49.9034 41.0148 51.8897C34.9561 54.0513 31.8101 56.3881 29.1303 56.8554C24.0036 57.7317 19.8091 55.6286 17.1875 50.955Z"
        fill="url(#paint4_linear)" />
    <path
        d="M0 49.4987C1.74773 48.0382 4.19454 47.8045 6.40833 48.2718C12.0011 49.5571 15.613 54.9317 20.6232 57.6191C27.6723 61.2995 36.8188 58.9627 42.8193 53.7049C39.5569 60.4232 31.5173 64.1037 24.2351 62.7016C11.1272 60.1895 8.38909 48.6224 0 49.4987Z"
        fill="url(#paint5_linear)" />
    <defs>
        <linearGradient id="paint0_linear" x1="33.0996" y1="36.7286" x2="74.4039" y2="40.2888"
            gradientUnits="userSpaceOnUse">
            <stop offset="0.00561798" stop-color="#A67033" />
            <stop offset="0.5281" stop-color="#FFF8DF" />
            <stop offset="0.6404" stop-color="#FFD75F" />
            <stop offset="0.7543" stop-color="#DAB051" />
            <stop offset="1" stop-color="#8C6034" />
        </linearGradient>
        <linearGradient id="paint1_linear" x1="70.3471" y1="17.4265" x2="81.9605" y2="18.4275"
            gradientUnits="userSpaceOnUse">
            <stop offset="0.00561798" stop-color="#A67033" />
            <stop offset="0.5281" stop-color="#FFF8DF" />
            <stop offset="0.6404" stop-color="#FFD75F" />
            <stop offset="0.7543" stop-color="#DAB051" />
            <stop offset="1" stop-color="#8C6034" />
        </linearGradient>
        <linearGradient id="paint2_linear" x1="62.8548" y1="41.1345" x2="96.9596" y2="44.0742"
            gradientUnits="userSpaceOnUse">
            <stop offset="0.00561798" stop-color="#A67033" />
            <stop offset="0.5281" stop-color="#FFF8DF" />
            <stop offset="0.6404" stop-color="#FFD75F" />
            <stop offset="0.7543" stop-color="#DAB051" />
            <stop offset="1" stop-color="#8C6034" />
        </linearGradient>
        <linearGradient id="paint3_linear" x1="55.6493" y1="13.7254" x2="97.6765" y2="17.348"
            gradientUnits="userSpaceOnUse">
            <stop offset="0.00561798" stop-color="#A67033" />
            <stop offset="0.5281" stop-color="#FFF8DF" />
            <stop offset="0.6404" stop-color="#FFD75F" />
            <stop offset="0.7543" stop-color="#DAB051" />
            <stop offset="1" stop-color="#8C6034" />
        </linearGradient>
        <linearGradient id="paint4_linear" x1="17.2312" y1="50.6932" x2="63.4769" y2="54.6793"
            gradientUnits="userSpaceOnUse">
            <stop offset="0.00561798" stop-color="#A67033" />
            <stop offset="0.5281" stop-color="#FFF8DF" />
            <stop offset="0.6404" stop-color="#FFD75F" />
            <stop offset="0.7543" stop-color="#DAB051" />
            <stop offset="1" stop-color="#8C6034" />
        </linearGradient>
        <linearGradient id="paint5_linear" x1="-0.426827" y1="54.1325" x2="42.4581" y2="57.829"
            gradientUnits="userSpaceOnUse">
            <stop offset="0.00561798" stop-color="#A67033" />
            <stop offset="0.5281" stop-color="#FFF8DF" />
            <stop offset="0.6404" stop-color="#FFD75F" />
            <stop offset="0.7543" stop-color="#DAB051" />
            <stop offset="1" stop-color="#8C6034" />
        </linearGradient>
    </defs>
</svg>