<svg width="168" height="135" viewBox="0 0 168 135" fill="none" xmlns="http://www.w3.org/2000/svg">
<g clip-path="url(#clip0)">
<path d="M108.425 37.6113C103.984 48.5255 95.6051 50.2046 90.9966 50.8763C86.3881 51.4639 78.847 51.4639 74.3223 52.6393C66.1108 54.7382 59.0724 61.2027 56.3911 69.2625C61.3348 64.8968 67.619 63.7214 74.1547 64.477C81.0255 65.2326 87.226 69.0106 93.4265 72.1169C99.627 75.2233 107.336 78.5815 115.631 76.2307C103.565 75.3912 98.8729 71.2774 92.0859 66.5759C86.8071 62.9658 83.623 61.2867 79.2659 60.2792C74.9088 59.2718 68.5407 59.6076 64.6864 61.8744C66.6973 59.6916 69.7976 57.5927 72.6465 56.5852C75.9143 55.3259 79.6011 55.8296 83.0365 55.9975C86.8071 56.1654 90.4939 55.5777 94.1806 54.5703C99.0405 53.0591 106.498 47.9378 108.425 37.6113Z" fill="url(#paint0_linear)"/>
<path d="M110.269 37.4443C111.274 31.5675 113.62 25.8585 117.139 20.9891C118.564 19.0581 120.156 17.2111 122.167 15.8678C124.178 14.5246 126.691 13.8529 129.038 14.2727C124.681 14.8604 120.407 17.7149 117.558 21.9966C114.29 26.9499 112.112 31.8193 110.269 37.4443Z" fill="url(#paint1_linear)"/>
<path d="M100.297 61.9584C101.303 67.4155 106.498 71.0256 111.525 73.3763C113.62 74.3838 115.882 75.3073 118.312 75.2233C121.748 75.1394 124.68 72.9565 127.613 71.2774C130.546 69.5983 134.316 68.339 137.249 70.0181C135.154 73.1244 133.059 76.2308 130.965 79.2532C130.294 80.2606 129.624 81.2681 128.535 81.7718C127.362 81.8558 125.77 81.352 124.764 80.8483C124.597 80.7644 124.345 80.5964 124.094 80.5964C123.759 80.5964 123.424 80.9323 123.172 81.1002C122.167 82.0237 120.575 82.3595 119.234 81.8558C119.234 82.9472 118.396 83.7867 117.726 84.7103C117.642 84.8782 117.474 85.0461 117.474 85.214C117.391 85.8017 118.061 86.1375 118.564 86.3054C119.066 85.5498 119.653 84.7103 120.491 84.2905C120.91 84.1226 121.329 84.0386 121.748 83.9547C123.005 83.7028 124.345 83.5349 125.602 83.283C125.435 83.5349 125.183 83.7028 124.932 83.8707C124.178 84.2905 123.256 84.1226 122.418 84.2905C120.575 84.4584 118.983 85.8856 118.48 87.5647C117.977 89.3278 118.229 91.9304 119.653 93.0218C123.256 88.908 128.367 86.3054 133.814 85.8017C135.406 85.6338 137.081 85.6338 138.506 84.8782C141.439 83.283 141.774 79.2532 143.785 76.5666C145.209 74.7196 147.639 73.4603 148.477 71.2774C148.98 70.102 148.896 68.7588 148.896 67.4155C148.812 64.477 148.561 61.3707 146.885 59.02C146.717 58.7681 146.466 58.4323 146.131 58.4323C145.796 58.4323 145.544 58.6002 145.293 58.852C141.69 61.5386 131.97 57.5927 132.222 55.5778C132.389 51.7158 132.222 51.7998 131.132 47.8539C130.294 44.7476 128.87 41.8091 128.2 38.7028C127.446 35.5964 127.362 32.0703 129.038 29.2998C126.105 30.9789 125.099 33.8334 125.099 37.1916C125.099 40.5498 126.189 43.8241 127.11 47.0983C128.032 50.3726 128.535 51.5479 127.781 54.8222C127.529 52.1356 125.937 50.5405 124.01 48.6935C119.904 44.8315 116.385 40.3819 115.882 34.6729C113.788 39.6263 114.542 45.6711 117.81 49.9528C120.072 52.9752 123.424 55.158 124.764 58.6841C125.77 61.3707 125.267 64.477 123.591 66.7438C120.826 70.4379 115.463 71.3614 111.023 69.9341C106.749 68.5909 103.481 65.4006 100.297 61.9584ZM131.886 84.4584C133.059 83.7867 134.065 82.8632 135.238 82.1076C135.908 81.6879 136.579 81.2681 136.998 80.6804C137.333 80.0927 137.5 79.4211 137.836 78.8334C138.171 78.2457 138.757 77.8259 139.26 77.4061C142.193 74.8875 144.287 71.3614 144.958 67.4994C145.125 67.6673 145.712 67.7513 145.963 67.6673C146.55 68.8427 145.879 70.27 145.209 71.4453C143.366 74.5517 141.355 77.4901 139.176 80.2606C138.673 80.9323 138.087 81.6039 137.417 82.1076C135.825 83.1991 133.562 83.283 131.886 84.4584Z" fill="url(#paint2_linear)"/>
<path d="M137.752 9.82256C138.841 8.64719 140.182 8.14346 141.69 7.72368C139.176 4.11361 135.573 1.25913 131.3 0.419577C127.027 -0.50393 122.334 0.419577 118.648 2.77032C116.134 4.36547 113.955 6.63226 111.106 7.47182C108.509 8.14346 105.66 7.47182 103.649 5.70876C104.571 9.90652 108.341 13.3487 112.698 13.4326C110.269 13.5166 108.006 14.692 106.163 16.3711C104.487 17.8823 103.314 19.9811 101.554 21.4923C98.9568 23.5912 95.1862 24.011 92.2536 22.4998C93.4266 24.5147 94.5997 26.1099 96.5269 27.4532C98.3703 28.7125 100.633 29.552 102.644 28.7964C102.141 30.1397 101.889 31.3151 101.052 32.4905C100.214 33.6658 98.9568 34.6733 97.5324 34.8412C96.3593 35.0091 89.9074 31.6509 88.7344 35.8487C91.1643 35.3449 93.3429 37.4438 94.8511 39.4588C96.3593 41.4737 98.0351 43.7405 100.549 43.9084C103.482 44.0763 105.576 41.2218 106.833 38.5352C108.677 34.7573 109.933 30.7274 111.693 26.8655C113.453 23.0035 115.631 19.3095 118.899 16.6229C122.167 13.9364 126.608 12.5091 130.63 13.6005C134.652 14.692 138.003 18.8058 137.417 23.0035C137.165 24.6826 136.076 26.5296 134.316 26.5296C133.646 26.5296 133.06 26.2778 132.557 25.858C130.294 24.4308 128.451 21.6602 129.038 19.0576C127.697 20.8207 127.446 23.3393 128.2 25.4382C128.954 27.5371 130.546 29.2162 132.473 30.3916C134.4 31.567 136.663 32.0707 138.841 32.4905C139.176 34.4214 139.511 36.4364 140.601 37.9476C141.774 39.5427 144.036 40.3823 145.712 39.4588C147.472 38.4513 147.974 35.3449 149.65 34.2535C146.717 30.6435 143.701 26.7815 143.198 22.164C143.114 21.0726 143.114 19.9811 142.947 18.8897C142.612 16.7908 141.439 14.7759 140.349 12.9289L137.752 9.82256ZM113.536 15.6994C118.312 10.4942 125.602 6.88413 132.473 8.56323C125.937 8.64719 119.569 12.2573 114.961 16.8748C110.352 21.4923 108.258 29.552 104.906 35.261C107.503 28.7125 108.76 20.9886 113.536 15.6994Z" fill="url(#paint3_linear)"/>
<path d="M34.8569 73.2928C40.4709 77.7424 48.7662 78.582 55.1342 75.3917C58.5697 73.7126 61.4185 70.942 64.9377 69.5148C70.8869 66.9962 77.8415 68.4234 83.7068 71.026C89.5721 73.6286 95.1023 77.2387 101.219 79.2536C96.1078 79.0857 91.0804 78.6659 86.1367 77.4066C83.7906 76.8189 77.0036 71.7816 69.1273 74.6361C60.413 77.7424 55.8884 81.1006 52.034 81.7723C44.6604 83.0316 38.6275 80.0092 34.8569 73.2928Z" fill="url(#paint4_linear)"/>
<path d="M10.1387 71.1943C12.6524 69.0954 16.1716 68.7596 19.3556 69.4312C27.3995 71.2782 32.5945 79.0021 39.8005 82.864C49.9392 88.1532 63.0943 84.795 71.7247 77.239C67.0324 86.8939 55.4693 92.1831 44.9955 90.1682C26.1427 86.5581 22.2045 69.9349 10.1387 71.1943Z" fill="url(#paint5_linear)"/>
<path d="M0 113.339V97.8076H8.63042V100.494H3.01646V104.272H8.37905V106.959H3.01646V110.737H8.63042V113.423H0V113.339Z" fill="white"/>
<path d="M21.0312 113.339L22.5395 97.8076H25.8073L29.4941 107.546L33.1809 97.8076H36.4487L37.9569 113.339H34.9405L34.0188 103.265L30.4996 112.92H28.6562L25.0532 103.265L24.0477 113.339H21.0312Z" fill="white"/>
<path d="M50.9448 113.339V97.8076H53.9613V113.339H50.9448Z" fill="white"/>
<path d="M67.7026 113.339V97.8076H72.9814C74.0707 97.8076 74.9924 97.9755 75.7465 98.3953C76.5006 98.7311 77.171 99.3188 77.5899 99.9905C78.0089 100.662 78.2602 101.502 78.2602 102.509C78.2602 103.265 78.0927 104.02 77.8413 104.608C77.5899 105.196 77.171 105.783 76.6682 106.203C76.1655 106.623 75.4952 106.959 74.8248 107.127L79.9361 113.339H76.0817L71.6408 107.462H70.8867V113.339H67.7026ZM70.7191 104.86H72.0597C72.7301 104.86 73.2328 104.776 73.6518 104.608C74.0707 104.44 74.4059 104.188 74.6572 103.768C74.9086 103.433 74.9924 103.013 74.9924 102.509C74.9924 101.754 74.741 101.166 74.2383 100.746C73.7356 100.326 72.9814 100.158 72.0597 100.158H70.8029V104.86H70.7191Z" fill="white"/>
<path d="M89.3208 113.339L95.5213 97.8076H98.3702L104.571 113.339H101.387L100.046 109.813H93.9293L92.5886 113.339H89.3208ZM95.0186 107.043H99.0405L97.0295 101.837L95.0186 107.043Z" fill="white"/>
<path d="M117.642 113.339V100.494H113.704V97.8076H124.596V100.494H120.658V113.339H117.642Z" fill="white"/>
<path d="M136.495 113.339V97.8076H145.125V100.494H139.511V104.272H144.874V106.959H139.511V110.737H145.125V113.423H136.495V113.339Z" fill="white"/>
<path d="M162.386 113.591C161.632 113.591 160.962 113.507 160.375 113.339C159.789 113.171 159.202 113.003 158.783 112.752C158.28 112.5 157.862 112.248 157.526 111.996C157.191 111.744 156.94 111.492 156.688 111.324L158.28 108.806C158.448 108.974 158.699 109.225 159.035 109.393C159.286 109.645 159.621 109.813 160.04 110.065C160.459 110.317 160.794 110.401 161.213 110.569C161.632 110.737 162.051 110.737 162.554 110.737C162.973 110.737 163.392 110.653 163.727 110.569C164.062 110.401 164.313 110.233 164.481 109.981C164.649 109.729 164.732 109.393 164.732 108.974C164.732 108.638 164.649 108.302 164.481 108.05C164.313 107.798 164.062 107.546 163.811 107.378C163.559 107.211 163.14 106.959 162.721 106.791C162.302 106.623 161.8 106.371 161.213 106.119C160.794 105.951 160.375 105.699 160.04 105.448C159.621 105.196 159.286 104.944 159.035 104.608C158.699 104.272 158.532 103.936 158.364 103.517C158.197 103.097 158.113 102.677 158.113 102.173C158.113 101.586 158.197 100.998 158.448 100.494C158.699 99.9065 159.035 99.4867 159.454 99.0669C159.873 98.6471 160.459 98.3113 161.046 98.0595C161.632 97.8076 162.302 97.7236 163.057 97.7236C163.643 97.7236 164.146 97.8076 164.732 97.9755C165.319 98.1434 165.822 98.3113 166.324 98.5632C166.827 98.815 167.246 99.0669 167.581 99.4027L166.324 101.837C166.073 101.586 165.738 101.418 165.403 101.25C165.068 101.082 164.732 100.914 164.313 100.83C163.894 100.746 163.559 100.662 163.14 100.662C162.721 100.662 162.302 100.746 161.967 100.914C161.632 101.082 161.381 101.25 161.213 101.502C161.046 101.753 160.962 102.089 160.962 102.341C160.962 102.593 161.046 102.845 161.129 103.013C161.213 103.181 161.381 103.349 161.632 103.517C161.883 103.684 162.051 103.768 162.386 103.936C162.638 104.02 162.973 104.188 163.308 104.356C164.062 104.692 164.732 104.944 165.319 105.28C165.905 105.615 166.408 105.951 166.827 106.287C167.246 106.623 167.581 107.043 167.833 107.546C168.084 108.05 168.168 108.638 168.168 109.309C168.168 110.317 167.916 111.156 167.497 111.828C166.995 112.5 166.324 113.087 165.486 113.423C164.481 113.423 163.476 113.591 162.386 113.591Z" fill="white"/>
<path d="M0.753906 134.664V119.888H2.09455V126.688H10.1384V119.888H11.4791V134.664H10.1384V127.863H2.09455V134.664H0.753906Z" fill="white"/>
<path d="M24.2992 135C23.2937 135 22.2882 134.832 21.3665 134.412C20.4448 133.992 19.6907 133.488 19.0204 132.733C18.35 132.061 17.8473 131.222 17.4283 130.298C17.0094 129.375 16.8418 128.367 16.8418 127.276C16.8418 126.184 17.0094 125.177 17.4283 124.253C17.8473 123.33 18.35 122.49 19.0204 121.819C19.6907 121.147 20.5286 120.559 21.3665 120.139C22.2044 119.72 23.2099 119.552 24.2992 119.552C25.3046 119.552 26.3101 119.72 27.2318 120.139C28.1535 120.559 28.9076 121.063 29.578 121.819C30.2483 122.49 30.751 123.33 31.17 124.253C31.5889 125.177 31.7565 126.184 31.7565 127.276C31.7565 128.367 31.5889 129.375 31.17 130.298C30.751 131.222 30.2483 132.061 29.578 132.733C28.9076 133.404 28.0697 133.992 27.2318 134.412C26.3101 134.748 25.3046 135 24.2992 135ZM24.2992 133.656C25.1371 133.656 25.8912 133.488 26.6453 133.153C27.3994 132.817 27.9859 132.397 28.5725 131.809C29.159 131.222 29.578 130.55 29.8293 129.794C30.1645 129.039 30.2483 128.199 30.2483 127.276C30.2483 126.352 30.0807 125.597 29.8293 124.757C29.578 123.917 29.0752 123.33 28.5725 122.742C27.9859 122.154 27.3994 121.735 26.6453 121.399C25.8912 121.063 25.1371 120.895 24.2992 120.895C23.4612 120.895 22.7071 121.063 21.953 121.399C21.1989 121.735 20.6124 122.154 20.0258 122.742C19.5231 123.33 19.0203 124.001 18.769 124.757C18.5176 125.513 18.35 126.352 18.35 127.276C18.35 128.199 18.5176 128.955 18.769 129.794C19.1041 130.55 19.5231 131.222 20.0258 131.809C20.5286 132.397 21.1989 132.817 21.953 133.153C22.7071 133.488 23.4612 133.656 24.2992 133.656Z" fill="white"/>
<path d="M37.1191 134.664V119.888H40.9735C41.979 119.888 42.7331 120.056 43.4872 120.391C44.1575 120.727 44.7441 121.231 45.0792 121.819C45.4982 122.406 45.6658 123.162 45.6658 124.085C45.6658 124.841 45.4982 125.597 45.163 126.184C44.8279 126.772 44.4089 127.276 43.8224 127.696C43.2358 128.031 42.5655 128.283 41.7276 128.367L46.6713 134.748H44.9117L40.2194 128.535H38.5436V134.748H37.1191V134.664ZM38.4598 127.276H40.6383C41.3925 127.276 42.0628 127.108 42.5655 126.856C43.0683 126.604 43.4872 126.268 43.8224 125.765C44.1575 125.261 44.2413 124.757 44.2413 124.085C44.2413 123.078 43.9062 122.322 43.2358 121.819C42.5655 121.231 41.7276 120.979 40.5546 120.979H38.376V127.276H38.4598Z" fill="white"/>
<path d="M54.7154 135C53.9613 135 53.291 134.916 52.7044 134.664C52.1179 134.412 51.6152 134.16 51.1962 133.824C50.7773 133.488 50.4421 133.153 50.1907 132.901C49.9394 132.649 49.7718 132.397 49.688 132.229L50.4421 131.222C50.5259 131.39 50.6935 131.641 50.9448 131.893C51.1962 132.145 51.4476 132.481 51.7828 132.733C52.1179 132.985 52.5369 133.237 53.0396 133.488C53.5424 133.74 54.0451 133.824 54.7154 133.824C55.302 133.824 55.8885 133.74 56.3074 133.488C56.8102 133.237 57.2291 132.985 57.4805 132.565C57.8157 132.145 57.8995 131.641 57.8995 130.97C57.8995 130.466 57.8157 129.962 57.5643 129.626C57.3129 129.291 57.0616 128.955 56.7264 128.703C56.3912 128.451 55.9723 128.199 55.4695 128.031C54.9668 127.863 54.5478 127.612 53.9613 127.444C53.6261 127.276 53.2072 127.108 52.872 126.94C52.4531 126.772 52.1179 126.52 51.7828 126.268C51.4476 126.016 51.1962 125.681 50.9448 125.261C50.6935 124.841 50.6097 124.337 50.6097 123.75C50.6097 123.246 50.6935 122.742 50.9448 122.238C51.1962 121.735 51.4476 121.315 51.7828 120.979C52.1179 120.643 52.6207 120.307 53.1234 120.14C53.6261 119.972 54.2127 119.804 54.7992 119.804C55.3857 119.804 55.9723 119.888 56.3912 120.056C56.8102 120.223 57.3129 120.475 57.7319 120.811C58.067 121.147 58.4022 121.399 58.5698 121.735L57.8995 122.658C57.7319 122.406 57.4805 122.154 57.2291 121.903C56.894 121.651 56.5588 121.483 56.1399 121.315C55.7209 121.147 55.302 121.063 54.7992 121.063C54.2127 121.063 53.7099 121.231 53.2072 121.483C52.7882 121.735 52.4531 122.07 52.2017 122.49C51.9503 122.91 51.8665 123.33 51.8665 123.834C51.8665 124.253 51.9503 124.589 52.1179 124.925C52.2855 125.261 52.5369 125.429 52.7882 125.681C53.0396 125.848 53.3748 126.016 53.7099 126.184C54.0451 126.352 54.3803 126.436 54.7154 126.604C55.302 126.856 55.8885 127.024 56.3912 127.276C56.894 127.528 57.3967 127.779 57.8157 128.115C58.2346 128.451 58.5698 128.871 58.8212 129.291C59.0725 129.794 59.1563 130.382 59.1563 131.054C59.1563 131.977 58.905 132.733 58.5698 133.321C58.1508 133.908 57.5643 134.412 56.894 134.748C56.2237 135.084 55.6371 135 54.7154 135Z" fill="white"/>
<path d="M64.686 134.664V119.888H72.1434V121.063H66.1105V126.604H71.9758V127.779H66.1105V133.404H72.1434V134.58H64.686V134.664Z" fill="white"/>
<path d="M83.5391 134.664V119.888H87.3934C88.3989 119.888 89.153 120.056 89.9071 120.391C90.5775 120.727 91.164 121.231 91.4992 121.819C91.9181 122.406 92.0857 123.162 92.0857 124.085C92.0857 124.841 91.9181 125.597 91.583 126.184C91.2478 126.772 90.8288 127.276 90.2423 127.696C89.6558 128.031 88.9854 128.283 88.1475 128.367L93.0912 134.748H91.3316L86.6393 128.535H84.9635V134.748H83.5391V134.664ZM84.8797 127.276H87.0583C87.8124 127.276 88.4827 127.108 88.9854 126.856C89.4882 126.604 89.9071 126.268 90.2423 125.765C90.5775 125.261 90.6613 124.757 90.6613 124.085C90.6613 123.078 90.3261 122.322 89.6558 121.819C88.9855 121.231 88.1475 120.979 86.9745 120.979H84.7959V127.276H84.8797Z" fill="white"/>
<path d="M96.0239 134.664L101.805 119.888H103.062L108.844 134.664H107.336L105.576 129.962H99.208L97.3646 134.664H96.0239ZM99.7945 128.787H105.241L102.56 121.735L99.7945 128.787Z" fill="white"/>
<path d="M120.156 135C119.066 135 118.061 134.832 117.055 134.412C116.134 133.992 115.296 133.488 114.542 132.817C113.788 132.145 113.285 131.306 112.866 130.382C112.447 129.459 112.279 128.451 112.279 127.36C112.279 126.268 112.447 125.261 112.866 124.337C113.285 123.414 113.788 122.574 114.542 121.903C115.212 121.231 116.05 120.643 117.055 120.307C117.977 119.888 119.066 119.72 120.156 119.72C121.077 119.72 121.915 119.888 122.753 120.14C123.591 120.391 124.261 120.811 124.932 121.231L124.261 122.406C123.759 121.987 123.088 121.651 122.418 121.399C121.748 121.147 120.994 121.063 120.239 121.063C119.318 121.063 118.48 121.231 117.642 121.567C116.888 121.903 116.217 122.322 115.631 122.91C115.044 123.498 114.625 124.169 114.29 124.925C113.955 125.681 113.788 126.52 113.788 127.444C113.788 128.367 113.955 129.123 114.29 129.962C114.625 130.718 115.044 131.389 115.631 131.977C116.217 132.565 116.888 132.985 117.642 133.32C118.396 133.656 119.318 133.824 120.239 133.824C120.994 133.824 121.748 133.74 122.418 133.488C123.088 133.237 123.759 132.901 124.261 132.481L124.932 133.656C124.345 134.16 123.591 134.496 122.837 134.748C122.083 135 121.077 135 120.156 135Z" fill="white"/>
<path d="M129.54 134.664V119.888H130.881V134.664H129.54Z" fill="white"/>
<path d="M137.165 134.664V119.888H138.506L146.466 132.313V119.888H147.806V134.664H146.466L138.506 122.238V134.664H137.165Z" fill="white"/>
<path d="M160.375 135C159.37 135 158.364 134.832 157.526 134.412C156.688 133.992 155.851 133.488 155.18 132.733C154.51 132.061 154.007 131.222 153.672 130.298C153.337 129.375 153.085 128.367 153.085 127.276C153.085 126.268 153.253 125.345 153.588 124.421C153.923 123.498 154.426 122.658 155.013 121.986C155.599 121.315 156.437 120.727 157.359 120.307C158.28 119.888 159.286 119.636 160.459 119.636C161.213 119.636 161.967 119.72 162.638 119.888C163.308 120.056 163.978 120.307 164.481 120.727C164.984 121.147 165.57 121.483 165.989 121.903L165.319 122.91C164.732 122.238 164.062 121.735 163.224 121.399C162.386 120.979 161.465 120.811 160.459 120.811C159.537 120.811 158.699 120.979 157.945 121.315C157.191 121.651 156.605 122.154 156.102 122.742C155.599 123.33 155.18 124.001 154.929 124.757C154.677 125.513 154.51 126.352 154.51 127.192C154.51 128.115 154.677 128.955 154.929 129.71C155.264 130.466 155.599 131.222 156.186 131.809C156.688 132.397 157.359 132.817 158.029 133.153C158.699 133.488 159.537 133.656 160.291 133.656C160.962 133.656 161.632 133.572 162.219 133.32C162.889 133.069 163.392 132.817 163.978 132.397C164.481 131.977 164.9 131.473 165.235 130.886C165.57 130.298 165.654 129.626 165.654 128.955V128.451H160.208V127.36H167.078V128.703C167.078 129.71 166.911 130.634 166.492 131.473C166.073 132.229 165.57 132.901 164.9 133.404C164.23 133.908 163.475 134.328 162.721 134.58C161.967 134.832 161.213 135 160.375 135Z" fill="white"/>
</g>
<defs>
<linearGradient id="paint0_linear" x1="57.7423" y1="52.8497" x2="117.149" y2="57.9744" gradientUnits="userSpaceOnUse">
<stop offset="0.00561798" stop-color="#A67033"/>
<stop offset="0.5281" stop-color="#FFF8DF"/>
<stop offset="0.6404" stop-color="#FFD75F"/>
<stop offset="0.7543" stop-color="#DAB051"/>
<stop offset="1" stop-color="#8C6034"/>
</linearGradient>
<linearGradient id="paint1_linear" x1="111.318" y1="25.108" x2="128.021" y2="26.5489" gradientUnits="userSpaceOnUse">
<stop offset="0.00561798" stop-color="#A67033"/>
<stop offset="0.5281" stop-color="#FFF8DF"/>
<stop offset="0.6404" stop-color="#FFD75F"/>
<stop offset="0.7543" stop-color="#DAB051"/>
<stop offset="1" stop-color="#8C6034"/>
</linearGradient>
<linearGradient id="paint2_linear" x1="100.541" y1="59.1711" x2="149.592" y2="63.4026" gradientUnits="userSpaceOnUse">
<stop offset="0.00561798" stop-color="#A67033"/>
<stop offset="0.5281" stop-color="#FFF8DF"/>
<stop offset="0.6404" stop-color="#FFD75F"/>
<stop offset="0.7543" stop-color="#DAB051"/>
<stop offset="1" stop-color="#8C6034"/>
</linearGradient>
<linearGradient id="paint3_linear" x1="90.1767" y1="19.7912" x2="150.623" y2="25.0056" gradientUnits="userSpaceOnUse">
<stop offset="0.00561798" stop-color="#A67033"/>
<stop offset="0.5281" stop-color="#FFF8DF"/>
<stop offset="0.6404" stop-color="#FFD75F"/>
<stop offset="0.7543" stop-color="#DAB051"/>
<stop offset="1" stop-color="#8C6034"/>
</linearGradient>
<linearGradient id="paint4_linear" x1="34.9198" y1="72.9166" x2="101.433" y2="78.6544" gradientUnits="userSpaceOnUse">
<stop offset="0.00561798" stop-color="#A67033"/>
<stop offset="0.5281" stop-color="#FFF8DF"/>
<stop offset="0.6404" stop-color="#FFD75F"/>
<stop offset="0.7543" stop-color="#DAB051"/>
<stop offset="1" stop-color="#8C6034"/>
</linearGradient>
<linearGradient id="paint5_linear" x1="9.52478" y1="77.8536" x2="71.2045" y2="83.1745" gradientUnits="userSpaceOnUse">
<stop offset="0.00561798" stop-color="#A67033"/>
<stop offset="0.5281" stop-color="#FFF8DF"/>
<stop offset="0.6404" stop-color="#FFD75F"/>
<stop offset="0.7543" stop-color="#DAB051"/>
<stop offset="1" stop-color="#8C6034"/>
</linearGradient>
<clipPath id="clip0">
<rect width="168" height="135" fill="white"/>
</clipPath>
</defs>
</svg>
