<svg width="28" height="28" viewBox="0 0 28 28" fill="none" xmlns="http://www.w3.org/2000/svg">
<path d="M11.8125 28H4.375C1.96255 28 0 26.0374 0 23.625V4.375C0 1.96255 1.96255 0 4.375 0H11.8125C14.2249 0 16.1875 1.96255 16.1875 4.375V7.4375C16.1875 8.04163 15.6979 8.53125 15.0938 8.53125C14.4896 8.53125 14 8.04163 14 7.4375V4.375C14 3.16888 13.0186 2.1875 11.8125 2.1875H4.375C3.16888 2.1875 2.1875 3.16888 2.1875 4.375V23.625C2.1875 24.8311 3.16888 25.8125 4.375 25.8125H11.8125C13.0186 25.8125 14 24.8311 14 23.625V20.6172C14 20.0131 14.4896 19.5234 15.0938 19.5234C15.6979 19.5234 16.1875 20.0131 16.1875 20.6172V23.625C16.1875 26.0374 14.2249 28 11.8125 28ZM22.0213 21.3057L27.0323 16.3242C27.6556 15.7045 27.9989 14.8791 27.9989 14.0002C27.9989 13.1212 27.6556 12.2957 27.0323 11.676L22.0213 6.69452C21.4063 6.08313 20.4907 5.90326 19.689 6.23694C18.8905 6.56891 18.3746 7.34116 18.3746 8.20398V12.9065H5.46875C4.86462 12.9065 4.375 13.3961 4.375 14.0002C4.375 14.6043 4.86462 15.094 5.46875 15.094H18.3746C19.5809 15.094 20.5621 14.1126 20.5621 12.9065V8.32852L25.4899 13.2273C25.6974 13.4335 25.8114 13.7078 25.8114 14.0002C25.8114 14.2924 25.6974 14.567 25.4899 14.7729L20.5621 19.6719V18.594C20.5621 17.9898 20.0724 17.5002 19.4683 17.5002C18.8642 17.5002 18.3746 17.9898 18.3746 18.594V19.7962C18.3746 20.6591 18.8907 21.4313 19.6892 21.7635C19.9567 21.8748 20.2369 21.9288 20.5144 21.9288C21.0684 21.9288 21.6116 21.7131 22.0213 21.3057Z" fill="white" fill-opacity="0.5"/>
</svg>
