<svg viewBox="0 0 256 349" fill="none" xmlns="http://www.w3.org/2000/svg">
    <path
        d="M12.4685 337.576L19.3323 344.437C21.9315 347.035 25.3431 348.456 28.9983 348.456H226.422C230.077 348.456 233.489 347.035 236.088 344.437L243.642 336.886C246.242 334.287 247.663 330.877 247.663 327.223V183.748H246.729V327.223C246.729 330.633 245.389 333.8 242.993 336.236L235.438 343.787C233.042 346.183 229.834 347.522 226.422 347.522H28.9983C25.5868 347.522 22.4189 346.183 19.9821 343.787L13.1183 336.926C10.7221 334.531 9.38187 331.324 9.38187 327.913V183.748H8.44775V327.913C8.48837 331.567 9.90985 334.977 12.4685 337.576Z"
        fill="#F1C422" />
    <path
        d="M3.08665 232.67C1.09657 234.659 0 237.339 0 240.14V298.805C0 301.606 1.09657 304.286 3.08665 306.275L8.8132 311.999L8.56952 227.148L3.08665 232.67Z"
        fill="#F1C422" />
    <path
        d="M252.618 248.137C254.608 246.148 255.704 243.468 255.704 240.667V183.748H247.054L247.094 253.659L252.618 248.137Z"
        fill="#F1C422" />
    <path
        d="M12.4685 10.8398L19.3323 4.01925C21.9315 1.42095 25.3431 0 28.9983 0H226.422C230.077 0 233.489 1.42095 236.088 4.01925L243.642 11.5706C246.242 14.1689 247.663 17.5791 247.663 21.233V183.708H246.729V21.1924C246.729 17.7821 245.389 14.6155 242.993 12.1795L235.438 4.62823C233.042 2.23292 229.834 0.893167 226.422 0.893167H28.9983C25.5868 0.893167 22.4189 2.23292 19.9821 4.62823L13.1183 11.53C10.7221 13.9253 9.38187 17.1326 9.38187 20.5428V183.708H8.44775V20.5022C8.48837 16.8484 9.90985 13.4381 12.4685 10.8398Z"
        fill="#F1C422" />
    <path opacity="0.6" fill-rule="evenodd" clip-rule="evenodd" id="bg"
        d="M229.225 11.124L236.291 18.1881C238.606 20.5023 239.906 23.6689 239.906 26.9168V180H240V321.114C240 324.442 238.698 327.687 236.379 330.059L229.299 337.297C226.98 339.669 223.847 341 220.552 341H33.7975C30.5425 341 27.3689 339.669 25.0497 337.297L18.6212 330.724C16.302 328.353 15 325.15 15 321.78V180H15.271V26.2672C15.271 23.0194 16.5706 19.8527 18.8856 17.5386L25.3432 11.124C27.6582 8.80989 30.7855 7.51074 34.0752 7.51074H220.493C223.742 7.51074 226.91 8.80989 229.225 11.124Z" />

    <path opacity="0.1" fill-rule="evenodd" clip-rule="evenodd"
        d="M229.225 10.6133L236.291 17.6774C238.606 19.9915 239.906 23.1582 239.906 26.4061V176.489H240V320.233C240 323.623 238.698 326.929 236.379 329.344L229.299 336.718C226.98 339.133 223.847 340.489 220.552 340.489H33.7975C30.5425 340.489 27.3689 339.133 25.0497 336.718L18.6212 330.022C16.302 327.607 15 324.344 15 320.911V176.489H15.271V25.7565C15.271 22.5086 16.5706 19.3419 18.8856 17.0278L25.3432 10.6133C27.6582 8.29915 30.7855 7 34.0752 7H220.493C223.742 7 226.91 8.29915 229.225 10.6133Z"
        fill="url(#paint0_linear_prediction)" />
    <path
        d="M3.08665 115.746C1.09657 113.797 0 111.118 0 108.316V49.6515C0 46.8502 1.09657 44.1707 3.08665 42.1814L8.8132 36.457L8.56952 121.308L3.08665 115.746Z"
        fill="#F1C422" />
    <path
        d="M252.618 149.809C254.608 151.798 255.704 154.478 255.704 157.279V183.709H247.054L247.094 144.328L252.618 149.809Z"
        fill="#F1C422" />
    <path class="logo"
        d="M142.706 81.9485C142.719 81.4496 142.724 80.9469 142.723 80.4402V79.4785H114.154V80.4402C114.154 80.9469 114.16 81.4496 114.171 81.9485H104.522V82.9119C104.522 90.3186 109.078 96.3453 114.678 96.3453V94.4203C110.393 94.4203 106.865 89.7703 106.51 83.8736H114.246C114.91 96.1287 119.091 105.884 124.729 108.89H124.581C124.581 120.087 117.069 122.737 116.023 123.057H115.415V129.479H141.692V123.054H140.392C139.407 122.747 131.903 120.054 131.83 109.054C137.628 106.249 141.956 96.3587 142.631 83.8752H150.361C150.012 89.7736 146.484 94.422 142.192 94.422V96.347C147.793 96.347 152.348 90.3203 152.348 82.9135V81.9485H142.706ZM139.726 127.546H117.382V124.979H139.726V127.546ZM134.871 121.924C135.305 122.328 135.764 122.705 136.246 123.052H120.173C120.655 122.705 121.114 122.328 121.548 121.924C123.184 120.306 124.47 118.381 125.328 116.265C126.187 114.149 126.6 111.885 126.545 109.609C127.632 109.893 128.772 109.929 129.877 109.714C129.833 111.973 130.252 114.218 131.11 116.315C131.968 118.413 133.247 120.321 134.871 121.926V121.924ZM128.44 107.924C121.907 107.924 116.358 95.8737 116.128 81.3985H140.748C140.514 95.8787 134.972 107.93 128.439 107.93L128.44 107.924Z"
        fill="#F1C422" />
    <path class="logo"
        d="M173.435 61.4338H173.088C169.119 61.3811 165.33 59.7446 162.537 56.8773C159.743 54.0099 158.17 50.1412 158.156 46.1052C158.152 43.4244 157.102 40.8547 155.237 38.9602C153.372 37.0656 150.844 36.001 148.208 36H108.175C105.54 36.005 103.015 37.0731 101.153 38.9698C99.2914 40.8665 98.2459 43.4368 98.2459 46.1166C98.2294 50.1561 96.651 54.027 93.8516 56.8929C91.0521 59.7589 87.2564 61.39 83.2842 61.4338H82.9483C80.312 61.4368 77.7845 62.5026 75.9197 64.3976C74.0549 66.2925 73.0049 68.862 73 71.5428V132.451C73.0001 134.258 73.4771 136.032 74.3812 137.588C75.2854 139.144 76.5835 140.424 78.1403 141.296L123.369 166.73C124.843 167.563 126.501 168 128.188 168C129.874 168 131.533 167.563 133.007 166.73L178.232 141.296C179.788 140.423 181.085 139.141 181.987 137.583C182.889 136.026 183.364 134.251 183.361 132.444V71.5428C183.359 68.865 182.313 66.2972 180.452 64.4023C178.592 62.5073 176.068 61.4399 173.435 61.4338ZM178.497 132.455C178.499 133.376 178.258 134.282 177.798 135.076C177.338 135.87 176.677 136.523 175.884 136.969L130.64 162.41C129.887 162.827 129.043 163.046 128.186 163.046C127.328 163.046 126.484 162.827 125.732 162.41L80.4845 136.976C79.6925 136.53 79.0323 135.877 78.5728 135.084C78.1132 134.291 77.8711 133.387 77.8715 132.466V71.5428C77.8685 70.1762 78.3985 68.8642 79.3452 67.8943C80.292 66.9244 81.5783 66.3758 82.9222 66.3688C83.0491 66.3688 83.1872 66.3688 83.3365 66.3688C88.592 66.307 93.6127 64.1456 97.3144 60.3515C101.016 56.5573 103.102 51.4347 103.121 46.09C103.122 44.7257 103.654 43.4174 104.602 42.4513C105.549 41.4852 106.834 40.9399 108.175 40.9349H148.208C148.875 40.9359 149.536 41.0708 150.152 41.3319C150.769 41.593 151.328 41.9751 151.799 42.4564C152.27 42.9377 152.643 43.5088 152.896 44.1368C153.15 44.7649 153.279 45.4377 153.277 46.1166C153.297 51.461 155.383 56.583 159.085 60.377C162.786 64.1709 167.806 66.3326 173.061 66.3953C173.185 66.3953 173.315 66.3953 173.48 66.3953C174.816 66.4123 176.091 66.9642 177.03 67.9314C177.968 68.8986 178.494 70.203 178.493 71.5618V132.447L178.497 132.455Z"
        fill="#F1C422" />
    <path class="logo"
        d="M164.093 70.2368H163.819C160.692 70.1951 157.707 68.9015 155.506 66.6348C153.305 64.3681 152.065 61.3098 152.054 58.1192C152.051 56 151.224 53.9686 149.754 52.4709C148.285 50.9732 146.293 50.1317 144.215 50.1309H112.673C110.596 50.1348 108.606 50.9792 107.139 52.4785C105.673 53.9779 104.849 56.0098 104.849 58.1282C104.836 61.3216 103.592 64.3816 101.386 66.6472C99.1805 68.9128 96.1897 70.2022 93.0599 70.2368H92.7952C90.718 70.2392 88.7264 71.0817 87.2571 72.5797C85.7877 74.0777 84.9604 76.109 84.9565 78.2282V126.378C84.9566 127.806 85.3325 129.209 86.0449 130.438C86.7573 131.668 87.7802 132.681 89.0067 133.37L124.644 153.476C125.805 154.134 127.112 154.48 128.441 154.48C129.77 154.48 131.077 154.134 132.238 153.476L167.872 133.37C169.099 132.679 170.121 131.666 170.832 130.435C171.543 129.204 171.916 127.8 171.914 126.372V78.2282C171.912 76.1113 171.088 74.0814 169.622 72.5834C168.156 71.0855 166.168 70.2416 164.093 70.2368ZM168.081 126.381C168.083 127.109 167.893 127.824 167.531 128.452C167.168 129.08 166.648 129.597 166.022 129.949L130.374 150.061C129.78 150.39 129.115 150.563 128.44 150.563C127.764 150.563 127.099 150.39 126.506 150.061L90.8539 129.955C90.2298 129.602 89.7096 129.086 89.3475 128.459C88.9854 127.832 88.7946 127.117 88.795 126.39V78.2282C88.7926 77.1479 89.2102 76.1107 89.9562 75.344C90.7022 74.5772 91.7157 74.1436 92.7746 74.138C92.8746 74.138 92.9834 74.138 93.1011 74.138C97.242 74.0892 101.198 72.3806 104.115 69.3812C107.032 66.3818 108.675 62.3323 108.69 58.1072C108.691 57.0287 109.11 55.9945 109.857 55.2307C110.603 54.467 111.616 54.036 112.673 54.032H144.215C144.741 54.0328 145.262 54.1394 145.748 54.3458C146.233 54.5522 146.674 54.8543 147.045 55.2348C147.416 55.6153 147.71 56.0667 147.91 56.5632C148.11 57.0597 148.212 57.5915 148.21 58.1282C148.226 62.3531 149.869 66.4021 152.786 69.4014C155.702 72.4006 159.658 74.1094 163.799 74.159C163.896 74.159 163.999 74.159 164.128 74.159C165.181 74.1724 166.186 74.6087 166.925 75.3733C167.665 76.1379 168.079 77.1691 168.078 78.2432V126.375L168.081 126.381Z"
        fill="#F1C422" />
    <defs>
        <linearGradient id="paint0_linear_prediction" x1="131.206" y1="92.7116" x2="357.281" y2="174.75"
            gradientUnits="userSpaceOnUse">
            <stop offset="0.0970642" stop-color="white" stop-opacity="0" />
            <stop offset="0.0989583" stop-color="white" />
            <stop offset="0.800554" stop-color="white" stop-opacity="0" />
        </linearGradient>
    </defs>
</svg>