<svg width="33" height="35" viewBox="0 0 33 35" fill="none" xmlns="http://www.w3.org/2000/svg">
<path d="M25.1713 0.662109C25.1713 11.4752 18.1135 20.241 18.1135 20.241C14.2151 20.241 11.0557 11.4752 11.0557 0.662109H25.1713Z" fill="white"/>
<path d="M25.8257 1.69972C25.8341 1.35641 25.8379 1.01043 25.8372 0.661768V0H6.51454V0.661768C6.51454 1.01043 6.51838 1.35641 6.52605 1.69972H0V2.36264C0 7.45952 3.08117 11.6068 6.86904 11.6068V10.2821C3.97088 10.2821 1.5849 7.08218 1.34434 3.02441H6.5767C7.02558 11.4577 9.85353 18.1705 13.6667 20.2396H13.5666C13.5666 27.9445 8.48617 29.7681 7.77832 29.9883H7.36742V34.4074H25.1397V29.986H24.2603C23.5939 29.775 18.5193 27.9216 18.4698 20.352C22.3911 18.4217 25.3181 11.6159 25.775 3.02555H31.0028C30.7668 7.08448 28.3808 10.2832 25.4781 10.2832V11.6079C29.2659 11.6079 32.3471 7.46066 32.3471 2.36379V1.69972H25.8257ZM23.8103 33.077H8.69795V31.3107H23.8103V33.077ZM20.5266 29.2084C20.8199 29.4864 21.1305 29.7457 21.4566 29.9849H10.5856C10.9116 29.7457 11.2222 29.4864 11.5155 29.2084C12.6219 28.095 13.4915 26.7706 14.0721 25.3144C14.6528 23.8583 14.9326 22.3003 14.8948 20.7339C15.6306 20.9296 16.4016 20.9543 17.1484 20.8061C17.1188 22.3608 17.4026 23.9056 17.9828 25.349C18.5631 26.7924 19.4281 28.1052 20.5266 29.2096V29.2084ZM16.177 19.5744C11.7584 19.5744 8.00506 11.2822 7.84968 1.32124H24.5009C24.3432 11.2856 20.5945 19.5789 16.1759 19.5789L16.177 19.5744Z" fill="#F1C422"/>
</svg>
