<svg width="35" height="42" viewBox="0 0 35 42" fill="none" xmlns="http://www.w3.org/2000/svg">
<path d="M31 13.6685V30.3806L20.164 37L19.3236 35.0229L19.817 34.7479L19.3824 34.7212L19.9827 24.6964C19.4865 24.5152 19.0554 24.1881 18.7451 23.7573C18.4347 23.3265 18.2595 22.8118 18.2418 22.2796C18.2106 20.7665 18.0377 19.3927 19.4544 19.0753L18.699 20.7132C18.2115 20.8246 19.2768 22.1948 19.2972 23.1361C19.2972 23.3687 20.3706 24.0435 21.1834 24.1925C23.3602 24.5947 23.1801 25.6741 24.2811 27.129C24.454 27.3568 24.6413 27.6003 24.837 27.8559C25.5435 28.1385 25.7157 27.9763 26.4757 27.9819C26.9158 27.6136 27.51 27.3238 27.6721 26.7705C27.8342 26.2171 28.1369 25.7353 27.9659 25.1846C27.6721 24.3476 25.7908 20.8355 22.8864 17.0788L22.2882 16.4731C22.7661 16.312 22.8885 16.1508 22.2882 16.4731C21.3084 16.6738 22.4266 15.116 21.69 15.7983H21.2855C21.1282 15.7619 16.6233 14.5941 13.9746 18.2079C12.8004 19.8058 11.0522 23.2015 11.0522 25.8316C11.0522 27.4137 10.9766 29.3969 9.59703 30.7089V30.3903L7 29.2721L7.24013 14.7225C10.5287 13.849 14.1679 9.80156 14.9436 6H22.7767C23.5499 9.80156 27.7126 12.7951 31 13.6685Z" fill="#FFF7DA"/>
<path d="M31.85 8.11979H31.7545C30.4818 8.08794 29.3045 7.57847 28.4136 6.65504C27.5227 5.73161 27.0136 4.52161 27.0136 3.21607C27.0136 2.35633 26.6636 1.52843 26.0909 0.955269C25.5182 0.382108 24.6909 0 23.8636 0H11.1364C10.3091 0 9.51364 0.350265 8.90909 0.955269C8.30455 1.56027 7.98636 2.38817 7.98636 3.21607C7.98636 4.48976 7.47727 5.73161 6.58636 6.65504C5.69545 7.57847 4.48636 8.08794 3.24545 8.08794H3.15C2.32273 8.08794 1.52727 8.43821 0.922727 9.04321C0.318182 9.64822 0 10.4761 0 11.304V30.696C0 31.2691 0.159091 31.8423 0.445455 32.3199C0.731818 32.8294 1.14545 33.2115 1.62273 33.4981L15.9727 41.586C16.45 41.8408 16.9591 42 17.5 42C18.0409 42 18.55 41.8726 19.0273 41.586L33.3773 33.4981C33.8864 33.2115 34.2682 32.7976 34.5545 32.3199C34.8409 31.8105 35 31.2691 35 30.696V11.3359C35 10.4761 34.6818 9.68006 34.0773 9.07506C33.4727 8.47005 32.6773 8.11979 31.85 8.11979ZM33.4409 30.7597C33.4409 31.0462 33.3773 31.3328 33.2182 31.5876C33.0591 31.8423 32.8682 32.0334 32.6136 32.1926L18.2636 40.2805C18.0091 40.4079 17.7545 40.4716 17.5 40.4716C17.2136 40.4716 16.9591 40.4079 16.7364 40.2805L2.35455 32.1926C2.1 32.0652 1.90909 31.8423 1.75 31.5876C1.59091 31.3328 1.52727 31.0462 1.52727 30.7597V11.3359C1.52727 10.8901 1.68636 10.4761 2.00455 10.1895C2.32273 9.90296 2.70455 9.7119 3.15 9.7119C3.18182 9.7119 3.24545 9.7119 3.27727 9.7119C4.93182 9.68006 6.52273 9.01137 7.7 7.80136C8.87727 6.59136 9.54545 4.9674 9.54545 3.24792C9.54545 2.80212 9.70455 2.38817 10.0227 2.10159C10.3091 1.78317 10.7227 1.62396 11.1682 1.62396H23.8318C24.0545 1.62396 24.2455 1.6558 24.4364 1.75133C24.6273 1.84685 24.8182 1.94238 24.9455 2.10159C25.0727 2.2608 25.2 2.45186 25.2955 2.64291C25.3909 2.83397 25.4227 3.05686 25.4227 3.27976C25.4227 4.9674 26.0909 6.6232 27.2682 7.83321C28.4455 9.04321 30.0364 9.74374 31.6909 9.74374C31.7227 9.74374 31.7864 9.74374 31.8182 9.74374C32.2318 9.74374 32.6455 9.9348 32.9318 10.2214C33.2182 10.5398 33.4091 10.9538 33.4091 11.3677L33.4409 30.7597ZM30.9273 12.1319C28.9864 11.6861 27.2045 10.6672 25.8045 9.23427C24.4045 7.80136 23.3864 5.98635 22.9409 4.04397C22.9091 3.88476 22.8136 3.72555 22.6545 3.59818C22.5273 3.50265 22.3364 3.43897 22.1773 3.43897H12.7909C12.6318 3.43897 12.4409 3.50265 12.3136 3.59818C12.1864 3.69371 12.0909 3.85292 12.0273 4.04397C11.55 6.0182 10.5636 7.83321 9.16364 9.23427C7.76364 10.6672 5.98182 11.6543 4.04091 12.1319C3.88182 12.1638 3.72273 12.2593 3.59545 12.4185C3.5 12.5459 3.43636 12.7369 3.43636 12.8961V30.0273C3.43636 30.1547 3.46818 30.3139 3.53182 30.4412C3.59545 30.5686 3.69091 30.6641 3.81818 30.7278L17.0864 38.2108C17.2136 38.2744 17.3409 38.3063 17.4682 38.3063C17.5955 38.3063 17.7227 38.2744 17.85 38.2108L31.15 30.7278C31.2773 30.6641 31.3727 30.5686 31.4364 30.4412C31.5 30.3139 31.5318 30.1865 31.5318 30.0273V12.8961C31.5318 12.7051 31.4682 12.5459 31.3727 12.4185C31.2773 12.2593 31.1182 12.1638 30.9273 12.1319ZM21.1591 16.5262L21.9227 17.163C24.8182 20.9522 27.1409 24.9644 26.8545 25.7923C26.0909 27.257 25.55 27.3844 25.4227 27.4162C25.1045 27.4481 24.7864 27.066 24.5955 26.8112C24.4045 26.5565 24.2136 26.3017 24.0545 26.0788C22.9727 24.6141 22.0818 23.4678 19.95 23.0538C19.1227 22.8946 19.0591 21.7165 19.0591 21.4617C19.0273 20.5064 19.4409 19.6149 19.9182 19.4875L19.5682 17.9591C18.1682 18.2775 17.4682 19.9651 17.5 21.4936C17.4682 22.0667 17.5955 22.6399 17.85 23.1494C18.1045 23.6588 18.4864 24.0728 18.9636 24.3594L18.2636 36.1729L17.4682 36.6186L9.22727 31.9697C10.4364 30.5686 11.2 28.8173 11.3909 26.9704C11.4227 25.1236 11.7727 23.3086 12.3455 21.5891C12.5364 22.1941 12.8864 22.7036 13.3955 23.0538L13.8727 22.1304C13.4591 21.9075 13.1409 20.8567 12.9818 20.0288C13.1091 19.8059 13.2045 19.583 13.3636 19.392C13.4909 20.1562 13.8727 20.8567 14.4773 21.3343L15.0182 20.4428C14.6364 20.188 14.35 19.1691 14.2545 18.3412C14.4773 18.1183 14.7 17.8954 14.9545 17.7043C14.9864 18.4685 15.3045 19.2327 15.8136 19.7741L16.45 18.9462C16.0682 18.373 15.9091 17.7043 15.9409 17.0356C17.2455 16.3351 18.7727 16.0804 20.2364 16.3351L20.6818 16.4306L21.0636 16.4943L21.1591 16.5262ZM21.4136 14.9659C19.9182 14.7748 17.1182 14.7111 15.75 15.348C14.3818 15.953 13.2045 16.9401 12.3136 18.182C10.7227 20.8249 9.89545 23.8817 9.86364 26.9704C9.60909 28.5625 8.94091 30.0273 7.85909 31.1736L4.96364 29.5497V13.5011C6.93636 12.928 8.75 11.8453 10.2136 10.3487C11.6773 8.85216 12.7591 7.03715 13.3318 4.99924H21.6045C22.1773 7.03715 23.2591 8.85216 24.7227 10.3487C26.1864 11.8453 28 12.928 29.9727 13.5011V29.5497L19.8545 35.2494L20.4591 24.8052C21.4136 25.2828 22.2409 26.047 22.7818 27.0023C22.9727 27.257 23.1636 27.4799 23.3545 27.7665C23.5773 28.1486 23.8955 28.4352 24.2773 28.6581C24.6591 28.881 25.0727 28.9765 25.5182 28.9765C26.4727 28.881 27.3318 28.0849 28.1591 26.5565C29.1136 24.7733 24.5318 18.0546 21.8909 15.2525L21.4136 14.9659ZM22.1136 20.9204L21.7955 19.3601L23.2273 19.0735L23.5455 20.6338L22.1136 20.9204Z" fill="#F1C422"/>
</svg>
