<svg width="40" height="29" viewBox="0 0 40 29" fill="none" xmlns="http://www.w3.org/2000/svg">
<path d="M17.1538 11.8363H11.1714V8.20215H17.1538V11.8363ZM28.821 8.20335H22.8386V11.8375H28.8222L28.821 8.20335ZM17.1538 19.5869H11.1714V15.9528H17.1538V19.5869ZM28.821 15.954H22.8386V19.5881H28.8222L28.821 15.954Z" fill="#CEDBF4"/>
<path d="M39.5832 4.17838C39.5645 3.08247 39.1146 2.03772 38.3302 1.26928C37.5459 0.500837 36.4899 0.0702181 35.39 0.0702181C34.29 0.0702181 33.2341 0.500837 32.4498 1.26928C31.6654 2.03772 31.2154 3.08247 31.1968 4.17838V4.90568H32.8384V7.47284H6.82289V4.90928H8.46452V4.17838C8.46452 3.62967 8.35606 3.08633 8.14533 2.57938C7.9346 2.07244 7.62574 1.61182 7.23636 1.22382C6.84699 0.835821 6.38473 0.528044 5.87599 0.318061C5.36725 0.108077 4.82198 0 4.27132 0C3.72066 0 3.1754 0.108077 2.66666 0.318061C2.15791 0.528044 1.69566 0.835821 1.30628 1.22382C0.91691 1.61182 0.608041 2.07244 0.397313 2.57938C0.186585 3.08633 0.078125 3.62967 0.078125 4.17838L0.078125 4.90568H1.71855V28.5154H6.82289V20.3146H32.8384V28.5142H37.9428V4.90928H39.5832V4.17838ZM32.8384 8.92624V11.1069H29.5528V8.92984L32.8384 8.92624ZM32.8384 12.5603V15.2247H6.82289V12.5603H32.8384ZM28.0978 8.92624V11.1069H23.5644V8.92984L28.0978 8.92624ZM22.1154 8.92624V11.1069H17.8843V8.92984L22.1154 8.92624ZM16.4294 8.92624V11.1069H11.9007V8.92984L16.4294 8.92624ZM10.447 8.92624V11.1069H6.82289V8.92984L10.447 8.92624ZM1.63544 3.45828C1.79519 2.88394 2.13946 2.3776 2.61553 2.01681C3.09159 1.65602 3.67321 1.46067 4.27132 1.46067C4.86943 1.46067 5.45105 1.65602 5.92712 2.01681C6.40319 2.3776 6.74745 2.88394 6.9072 3.45828H6.82289V3.42948H1.71855V3.45828H1.63544ZM5.36915 27.0632H3.17831V4.88048H5.36554V27.0608L5.36915 27.0632ZM6.82289 18.8612V16.6817H10.4434V18.8624L6.82289 18.8612ZM11.9007 18.8612V16.6817H16.4245V18.8624L11.9007 18.8612ZM17.8831 18.8612V16.6817H22.1094V18.8624L17.8831 18.8612ZM23.5692 18.8612V16.6817H28.093V18.8624L23.5692 18.8612ZM29.5516 18.8612V16.6817H32.8384V18.8624L29.5516 18.8612ZM36.4794 27.0608H34.2922V4.88048H36.4806L36.4794 27.0608ZM37.9392 3.45828V3.42948H32.8384V3.45828H32.7553C32.9151 2.88394 33.2593 2.3776 33.7354 2.01681C34.2115 1.65602 34.7931 1.46067 35.3912 1.46067C35.9893 1.46067 36.5709 1.65602 37.047 2.01681C37.5231 2.3776 37.8673 2.88394 38.0271 3.45828H37.9392Z" fill="#F1C422"/>
</svg>
