<svg width="24" height="24" viewBox="0 0 24 24" fill="none" xmlns="http://www.w3.org/2000/svg">
    <path
        d="M4.78246 2.96335C4.51599 2.85211 4.32821 2.58917 4.32821 2.28153C4.32821 1.87277 4.65933 1.54199 5.06775 1.54199H18.7206C19.1291 1.54199 19.4602 1.87277 19.4602 2.28153C19.4602 2.58922 19.2724 2.85216 19.0059 2.96335C20.1904 3.64076 21 4.90252 21 6.36208C21 8.52877 19.2374 10.291 17.0711 10.291C16.8692 10.291 16.6749 10.2607 16.481 10.2311C15.9682 11.2321 15.3778 12.1196 14.7261 12.8007C13.4665 14.1173 12.8674 15.9395 13.1028 17.7458L13.1437 18.0585L15.4024 18.575C15.6758 18.6377 15.8694 18.8804 15.8694 19.1607V22.256H16.4703C16.8021 22.256 17.0712 22.5247 17.0712 22.8569C17.0712 23.1892 16.8021 23.4578 16.4703 23.4578C16.2826 23.4578 7.61571 23.4578 7.31826 23.4578C6.98635 23.4578 6.71736 23.1892 6.71736 22.8569C6.71736 22.5247 6.98635 22.256 7.31826 22.256H7.91912V19.1607C7.91912 18.8804 8.1127 18.6377 8.38601 18.575L10.6459 18.0578L10.6864 17.7465C10.9217 15.9373 10.3241 14.1188 9.06273 12.8007C8.41098 12.1196 7.82022 11.2328 7.30737 10.231C7.11345 10.2606 6.91917 10.291 6.71736 10.291C4.55106 10.291 2.78852 8.52877 2.78852 6.36204C2.78847 4.90252 3.59803 3.64076 4.78246 2.96335ZM19.5209 6.36208C19.5209 5.47667 19.0442 4.70681 18.3381 4.27634C18.124 5.79372 17.7037 7.36748 17.1285 8.80613C18.4523 8.77507 19.5209 7.69325 19.5209 6.36208ZM9.54368 19.2718C9.36104 19.2718 9.21334 19.4199 9.21334 19.6018V21.3712C9.21334 21.5533 9.36104 21.7013 9.54368 21.7013H14.2447C14.4274 21.7013 14.5751 21.5533 14.5751 21.3712V19.6018C14.5751 19.4198 14.4274 19.2718 14.2447 19.2718H9.54368ZM6.65989 8.80613C6.08465 7.36748 5.66429 5.79372 5.4502 4.27634C4.7442 4.70681 4.26756 5.47667 4.26756 6.36208C4.26756 7.69325 5.33609 8.77507 6.65989 8.80613Z"
        fill="#E1BC74" />
    <path
        d="M13.5589 20.8565H10.2309C10.0265 20.8565 9.86115 20.6911 9.86115 20.4867C9.86115 20.2823 10.0265 20.1169 10.2309 20.1169H13.5589C13.7632 20.1169 13.9287 20.2824 13.9287 20.4867C13.9287 20.6911 13.7632 20.8565 13.5589 20.8565Z"
        fill="#E1BC74" />
    <path
        d="M9.26117 9.5114C9.19097 9.51139 9.12235 9.49057 9.06398 9.45158C9.00562 9.41258 8.96013 9.35717 8.93327 9.29234C8.90641 9.22751 8.89938 9.15618 8.91307 9.08736C8.92676 9.01853 8.96056 8.95531 9.01019 8.90569L14.273 3.64269C14.3057 3.6088 14.3449 3.58177 14.3882 3.56317C14.4315 3.54457 14.4781 3.53479 14.5252 3.53438C14.5723 3.53397 14.6191 3.54294 14.6627 3.56079C14.7063 3.57863 14.746 3.60498 14.7793 3.63829C14.8126 3.67161 14.839 3.71123 14.8569 3.75484C14.8747 3.79845 14.8837 3.84517 14.8833 3.89229C14.8829 3.9394 14.8731 3.98596 14.8545 4.02926C14.8359 4.07255 14.8088 4.1117 14.7749 4.14444L9.51215 9.40814C9.44547 9.47443 9.35521 9.51157 9.26117 9.5114Z"
        fill="#0C2328" />
    <path
        d="M13.3888 9.51129C13.0933 9.51129 12.8044 9.42365 12.5586 9.25946C12.3129 9.09527 12.1214 8.86189 12.0083 8.58885C11.8952 8.31581 11.8656 8.01537 11.9232 7.72551C11.9809 7.43565 12.1232 7.1694 12.3322 6.96042C12.5412 6.75145 12.8074 6.60914 13.0973 6.55148C13.3871 6.49382 13.6876 6.52341 13.9606 6.63651C14.2337 6.74961 14.467 6.94113 14.6312 7.18686C14.7954 7.43259 14.8831 7.72149 14.8831 8.01703C14.8831 8.41333 14.7256 8.7934 14.4454 9.07363C14.1652 9.35385 13.7851 9.51129 13.3888 9.51129ZM13.3888 7.2925C13.2448 7.2925 13.1041 7.3352 12.9844 7.41519C12.8646 7.49518 12.7713 7.60887 12.7162 7.74189C12.6611 7.87491 12.6467 8.02128 12.6748 8.16249C12.7029 8.30371 12.7722 8.43342 12.874 8.53523C12.9758 8.63704 13.1056 8.70637 13.2468 8.73446C13.388 8.76255 13.5344 8.74813 13.6674 8.69303C13.8004 8.63794 13.9141 8.54463 13.9941 8.42491C14.0741 8.3052 14.1168 8.16445 14.1168 8.02047C14.1168 7.8274 14.0401 7.64224 13.9035 7.50572C13.767 7.3692 13.5819 7.2925 13.3888 7.2925Z"
        fill="#0C2328" />
    <path
        d="M10.4005 6.52288C10.105 6.52288 9.81607 6.43525 9.57034 6.27105C9.32461 6.10686 9.13309 5.87349 9.01999 5.60045C8.9069 5.32741 8.87731 5.02697 8.93496 4.73711C8.99262 4.44725 9.13493 4.181 9.34391 3.97202C9.55289 3.76305 9.81914 3.62073 10.109 3.56308C10.3989 3.50542 10.6993 3.53501 10.9723 3.64811C11.2454 3.7612 11.4788 3.95273 11.6429 4.19846C11.8071 4.44419 11.8948 4.73309 11.8948 5.02862C11.8948 5.42493 11.7373 5.805 11.4571 6.08522C11.1769 6.36545 10.7968 6.52288 10.4005 6.52288ZM10.4005 4.3041C10.2565 4.3041 10.1158 4.34679 9.99607 4.42678C9.87636 4.50677 9.78305 4.62047 9.72795 4.75349C9.67285 4.88651 9.65844 5.03288 9.68653 5.17409C9.71461 5.3153 9.78395 5.44502 9.88576 5.54683C9.98756 5.64863 10.1173 5.71797 10.2585 5.74606C10.3997 5.77415 10.5461 5.75973 10.6791 5.70463C10.8121 5.64953 10.9258 5.55623 11.0058 5.43651C11.0858 5.3168 11.1285 5.17605 11.1285 5.03207C11.1286 4.93641 11.1098 4.84166 11.0733 4.75325C11.0368 4.66484 10.9831 4.5845 10.9155 4.51682C10.8479 4.44914 10.7676 4.39545 10.6793 4.35882C10.5909 4.32219 10.4962 4.30333 10.4005 4.30333V4.3041Z"
        fill="#0C2328" />
</svg>