<svg width="11" height="11" viewBox="0 0 11 11" fill="none" xmlns="http://www.w3.org/2000/svg">
    <g clip-path="url(#clip0)">
        <path
            d="M7.08351 2.37451C6.91026 2.20126 6.91026 1.92037 7.08351 1.74712C7.25676 1.57388 7.53765 1.57388 7.71089 1.74712L10.3727 4.40889C10.5459 4.58214 10.5459 4.86303 10.3727 5.03627L7.71089 7.69804C7.53765 7.87129 7.25676 7.87129 7.08351 7.69804C6.91026 7.52479 6.91026 7.2439 7.08351 7.07066L8.98796 5.1662H1.1912C0.943485 5.1662 0.742676 4.96758 0.742676 4.72258C0.742676 4.47757 0.943485 4.27895 1.1912 4.27895H8.98795L7.08351 2.37451Z"
            fill="white" />
    </g>
    <defs>
        <clipPath id="clip0">
            <rect width="10.6471" height="10.6471" fill="white" transform="translate(0.299805 0.0200195)" />
        </clipPath>
    </defs>
</svg>