<svg xmlns="http://www.w3.org/2000/svg" fill="none" height="24" width="24"><g clip-path="url(#a)"><path fill="#E1BC74" d="M21.83 19.556c-1.52-.681-.9-1.149-.9-1.149.402-.092.372-.433.372-.433-.496-.279-.652-1.767-.652-1.767-.31-.808-1.614-1.368-1.614-1.368-1.179-.59-.962.033-.962.033 1.024.992.498 1.583.498 1.583l-.28 2.326c-.125 1.208-.683 1.303-.683 1.303-.59 0-.466-.837-.466-.837 0-.652.622-.591.622-.591-.094-.434.218-.652.218-.652l-.095-1.769a89.733 89.733 0 0 1-1.583-2.08c-.216-.558-.62-.248-.62-.248-2.018 1.303-5.617.342-5.617.342 0 .994-.559 1.737-.559 1.737-.56 1.15-.031 1.8-.031 1.8l2.297 1.768c.711.621.464 1.117.464 1.117h-.9c-.745 0-.25-.93-.25-.93-.587-.154-2.543-1.581-2.543-1.581-.9-.186-.342-1.551-.342-1.551 0-.901-.31-.745-.31-.745-.125.433-.9 1.459-.9 1.459-.527 2.078 1.86 3.227 1.86 3.227.531.372.313.59.313.59h-.838c-.623 0-.342-.59-.342-.59-.682-.03-1.552-1.707-1.552-1.707-1.459-1.21-.682-1.77-.682-1.77.93-.743.869-1.861.869-1.861-1.956-1.893-1.458-3.817-1.458-3.817-.53-.217-.777.404-.777.404-.527 4.034-2.295 4.065-2.295 4.065-.745-5.555 3.29-5.123 3.29-5.123.868-1.3 2.54-1.625 3.954-1.639-.875-.238-1.173-.557-1.173-.557-.86-.655.223-1.827.223-1.827a1.08 1.08 0 0 1-.27-.168c-.513-.206 1.536-.875 1.536-.875-.18-.357 3.334-.967 3.334-.967-.32-.774.338-1.313.338-1.313 1.447-.913 2.084.633 2.084.633.513-.113.467.225.38.316-.103.112-.485.089-.499.239-.02.197.2.61.104.784-.032.06-.2.114-.2.114-.084.295.006.431-.072.44-.154.013-.793.081-.793.081-.03.298-1.173 1.587-1.173 1.587.11.236.77.185 1.366.086a4.91 4.91 0 0 0 .636-.875c1.536-3.956 4.514-3.21 4.514-3.21l.636-.73-.124 1.117.652-.993-.28 1.272c.623.9.435 1.862.435 1.862.773 2.482-.092 2.483-.092 2.483-.654.094-1.15-.87-1.15-.87-.527-.34-.807-1.117-.807-1.117-.776.653-.154 3.756-.154 3.756.464 1.18-.529 2.606-.529 2.606s-.34.094.125.155c.466.063 1.924 1.49 1.924 1.49 1.582.652 1.582 3.817 1.582 3.817.28 1.213-.059 1.118-.059 1.118z"></path></g><defs><clipPath id="a"><path d="M0 0h20v20H0z" transform="translate(2 2)" fill="#fff"></path></clipPath></defs></svg>