<svg width="24" height="24" viewBox="0 0 24 24" fill="none" xmlns="http://www.w3.org/2000/svg">
    <path d="M17.902 2H6.09766V2.79059H17.902V2Z" fill="#E1BC74" />
    <path d="M16.743 21.2103H7.25684V22H16.743V21.2103Z" fill="#E1BC74" />
    <path
        d="M19.5162 2.90363L18.4576 4.17409H17.3019C17.3538 3.49238 17.3647 3.0728 17.3647 3.0728C17.3647 3.0728 14.9628 3.0728 11.9998 3.0728C9.03677 3.0728 6.63402 3.0728 6.63402 3.0728C6.63402 3.0728 6.64491 3.49238 6.69684 4.17409H5.54194L4.48336 2.90363H2.39551L2.42482 3.43962C2.42984 3.5242 2.54709 5.54254 3.36197 7.67897C4.46577 10.57 6.32415 12.2701 8.73946 12.6051C9.40861 13.7935 10.2913 14.667 11.4496 14.8788H11.4244C11.4244 14.8788 11.5007 15.3135 11.5216 15.9039C11.2184 16.0739 11.0107 16.393 11.0107 16.764C11.0107 17.0739 11.1556 17.3461 11.3784 17.5278C11.2285 18.135 10.9412 18.686 10.4077 18.9666C10.1749 19.0889 10.0459 19.1751 9.99234 19.2346H9.23274L7.87769 20.871H16.1244L14.7685 19.2346H14.0089C13.9553 19.176 13.8264 19.0897 13.5935 18.9666C13.0592 18.686 12.7736 18.135 12.6229 17.5278C12.8457 17.3469 12.9905 17.0739 12.9905 16.764C12.9905 16.393 12.7828 16.0723 12.4797 15.9039C12.4998 15.3135 12.5768 14.8788 12.5768 14.8788H12.5517C13.7099 14.667 14.5927 13.7935 15.261 12.6051C17.6771 12.2709 19.5355 10.57 20.6393 7.67897C21.455 5.54254 21.5731 3.5242 21.5764 3.43962L21.6058 2.90363H19.5162ZM3.49345 3.92033H4.00767L5.06625 5.1908H6.7898C6.97153 6.92942 7.36347 9.42178 8.19258 11.4544C4.59223 10.4167 3.69361 5.55427 3.49345 3.92033ZM11.999 7.75937C10.3056 7.75937 8.93209 7.15554 8.93209 6.41185C8.93209 5.66733 10.3047 5.06434 11.999 5.06434C13.6924 5.06434 15.0658 5.66817 15.0658 6.41185C15.0667 7.15638 13.694 7.75937 11.999 7.75937ZM15.8078 11.4544C16.6361 9.42178 17.0281 6.92942 17.2098 5.1908H18.9342L19.9928 3.92033H20.507C20.3043 5.55427 19.4065 10.4167 15.8078 11.4544Z"
        fill="#E1BC74" />
</svg>