<svg width="24" height="24" viewBox="0 0 24 24" fill="none" xmlns="http://www.w3.org/2000/svg">
    <path
        d="M9.08258 2.91471L8.75014 3.33026C8.47946 3.66861 8.10521 3.90877 7.68484 4.01386C7.06839 4.16797 6.56344 4.60874 6.32745 5.19872L6.10031 5.76656C5.96172 6.11304 5.73052 6.41473 5.43198 6.63863C4.73136 7.16409 4.44559 8.07893 4.72253 8.90976L4.8825 9.38964C5.00486 9.75674 4.97639 10.1574 4.80334 10.5035C4.488 11.1342 4.66881 11.9001 5.2329 12.3232L5.35984 12.4184C5.69912 12.6728 5.92732 13.0482 5.99704 13.4666L6.08216 13.9773C6.20546 14.7171 6.84551 15.2593 7.59549 15.2593C8.06155 15.2593 8.50235 15.4711 8.7935 15.8351L9.07205 16.1832C9.60086 16.8443 10.5 17.0813 11.286 16.7669C11.744 16.5837 12.255 16.5837 12.7131 16.7669C13.4991 17.0813 14.3982 16.8443 14.927 16.1832L15.1959 15.8472C15.4932 15.4756 15.9432 15.2593 16.4191 15.2593C17.1658 15.2593 17.8086 14.7322 17.9551 14L18.0008 13.7716C18.0724 13.4134 18.2485 13.0844 18.5068 12.826L18.9465 12.3864C19.4205 11.9123 19.538 11.1882 19.2382 10.5885C19.0393 10.1906 19.02 9.72664 19.1852 9.31358L19.2556 9.13771C19.5496 8.40257 19.3773 7.56293 18.8174 7.00307L18.5916 6.77726C18.2788 6.46445 18.0715 6.06173 17.9988 5.62538L17.9169 5.13384C17.7936 4.39406 17.1535 3.85186 16.4036 3.85186C15.9375 3.85186 15.4967 3.64 15.2056 3.27606L14.9165 2.91471C14.4125 2.28478 13.5205 2.12447 12.8287 2.53951C12.3183 2.84575 11.6807 2.84575 11.1703 2.53951C10.4786 2.12447 9.58652 2.28478 9.08258 2.91471Z"
        fill="#E1BC74" stroke="#E1BC74" />
    <path
        d="M10.1361 17.853C10.0336 17.8534 9.93158 17.8404 9.83252 17.8143C9.36666 17.6897 9.06282 17.3021 8.76939 16.9272C8.61224 16.6945 8.41553 16.4911 8.18817 16.3263C7.9275 16.2086 7.64814 16.1376 7.36287 16.1167C6.89612 16.0493 6.4139 15.9797 6.07914 15.6452C5.74439 15.3108 5.67482 14.828 5.60733 14.3612C5.58633 14.076 5.51538 13.7966 5.39774 13.5359C5.23291 13.3086 5.02956 13.1119 4.7969 12.9547C4.42201 12.6613 4.03463 12.3577 3.91006 11.8916C3.79114 11.4441 3.96952 10.9967 4.14225 10.5641C4.26967 10.3001 4.34938 10.0157 4.37771 9.72396C4.34938 9.43221 4.26967 9.14777 4.14225 8.88379C3.96922 8.45123 3.79025 8.00379 3.91006 7.55636C4.03463 7.0902 4.4223 6.78666 4.7969 6.49323C5.02953 6.336 5.23287 6.1393 5.39774 5.91201C5.51502 5.65126 5.58546 5.3719 5.60584 5.08671C5.67333 4.61996 5.7429 4.13744 6.07766 3.80269C6.41241 3.46793 6.89582 3.39806 7.36198 3.33087C7.64726 3.30987 7.92662 3.23882 8.18728 3.12098C8.41464 2.9562 8.61135 2.75285 8.76849 2.52014C9.06193 2.14525 9.36576 1.75787 9.83133 1.63331C10.2797 1.51439 10.7265 1.69277 11.1594 1.8655C11.4235 1.99272 11.708 2.07214 11.9998 2.10006C12.2915 2.07179 12.5758 1.99207 12.8397 1.8646C13.2723 1.69158 13.7194 1.5132 14.1671 1.63241C14.633 1.75698 14.9368 2.14466 15.2302 2.51955C15.3874 2.75225 15.5841 2.95561 15.8115 3.12039C16.0721 3.23758 16.3514 3.30802 16.6365 3.3285C17.1032 3.39598 17.5857 3.46555 17.9205 3.80031C18.2552 4.13506 18.3248 4.61758 18.3923 5.08404C18.4133 5.36929 18.4843 5.64863 18.6019 5.90933C18.7667 6.13675 18.9701 6.33356 19.2027 6.49085C19.5776 6.78428 19.965 7.08782 20.0896 7.55369C20.2085 8.00112 20.0301 8.44855 19.8574 8.88142C19.73 9.14539 19.6502 9.42983 19.6219 9.72158C19.6502 10.0134 19.73 10.2978 19.8577 10.5617C20.0304 10.9943 20.2094 11.4417 20.0896 11.8892C19.965 12.3553 19.5773 12.6589 19.2027 12.9523C18.9701 13.1095 18.7668 13.3062 18.6019 13.5335C18.4846 13.7943 18.4142 14.0736 18.3938 14.3588C18.3263 14.8256 18.2567 15.3081 17.922 15.6428C17.5872 15.9776 17.1047 16.0472 16.6382 16.1147C16.353 16.1355 16.0736 16.2065 15.813 16.3243C15.5856 16.489 15.3889 16.6924 15.2317 16.9251C14.9383 17.3 14.6348 17.6877 14.1689 17.8122C13.7209 17.9311 13.2737 17.7528 12.8409 17.58C12.5765 17.453 12.2918 17.3738 11.9998 17.3461C11.7081 17.3744 11.4238 17.4543 11.16 17.5818C10.8385 17.7353 10.4913 17.8272 10.1361 17.853ZM10.1358 2.18925C10.085 2.18877 10.0345 2.19497 9.98533 2.20768C9.71152 2.28082 9.47993 2.57514 9.23674 2.88701C9.03563 3.18156 8.78087 3.43561 8.48576 3.6359C8.16057 3.79475 7.80839 3.89096 7.4476 3.91952C7.10896 3.9266 6.77967 4.03195 6.49982 4.22277C6.30886 4.5029 6.2034 4.83249 6.19628 5.17144C6.16801 5.53224 6.07188 5.88446 5.91295 6.2096C5.71218 6.50517 5.45739 6.76016 5.16198 6.96117C4.85012 7.20496 4.55609 7.43685 4.48266 7.70947C4.45977 8.04083 4.53263 8.37178 4.69255 8.6629C4.85127 8.99581 4.94569 9.3557 4.97082 9.72366C4.94569 10.0916 4.85127 10.4515 4.69255 10.7844C4.53264 11.0755 4.45979 11.4065 4.48266 11.7378C4.55609 12.0117 4.85041 12.2433 5.16198 12.4864C5.45663 12.6876 5.7107 12.9424 5.91087 13.2377C6.06988 13.5629 6.16611 13.9153 6.19449 14.2762C6.20151 14.6151 6.30697 14.9446 6.49803 15.2246C6.77794 15.4155 7.10734 15.521 7.44612 15.5281C7.80699 15.5565 8.15929 15.6526 8.48457 15.8114C8.77979 16.0117 9.03465 16.2657 9.23584 16.5603C9.47993 16.8719 9.71152 17.1665 9.98474 17.2396C10.3159 17.2621 10.6466 17.1891 10.9376 17.0294C11.271 16.8707 11.6314 16.7764 11.9998 16.7515C12.3677 16.7766 12.7275 16.871 13.0603 17.0297C13.3513 17.1901 13.6825 17.263 14.014 17.2396C14.2878 17.1665 14.5194 16.8722 14.7623 16.5603C14.9636 16.2656 15.2185 16.0115 15.5139 15.8111C15.839 15.6523 16.1913 15.5562 16.552 15.5278C16.8909 15.5207 17.2204 15.4153 17.5004 15.2243C17.6913 14.9442 17.7968 14.6147 17.804 14.2759C17.8322 13.9151 17.9283 13.5629 18.0873 13.2377C18.2878 12.9422 18.5424 12.6872 18.8377 12.4861C19.1492 12.2421 19.4435 12.0105 19.517 11.7376C19.5398 11.4063 19.4669 11.0754 19.3071 10.7844C19.1484 10.4515 19.0539 10.0916 19.0288 9.72366C19.0539 9.3557 19.1484 8.99581 19.3071 8.6629C19.467 8.37167 19.5399 8.04063 19.517 7.70917C19.4435 7.43536 19.1495 7.20377 18.838 6.96087C18.5431 6.75975 18.289 6.50476 18.0888 6.20931C17.9297 5.88408 17.8335 5.53176 17.8051 5.17085C17.7976 4.83187 17.6915 4.50243 17.4998 4.22277C17.2199 4.03151 16.8904 3.92593 16.5514 3.91893C16.1907 3.89046 15.8385 3.79435 15.5133 3.6356C15.218 3.43528 14.9631 3.18112 14.762 2.88641C14.5179 2.57485 14.2863 2.28052 14.0134 2.20739C13.682 2.18428 13.351 2.25715 13.06 2.41728C12.7272 2.57565 12.3675 2.66975 11.9998 2.69466C11.632 2.66951 11.2722 2.5751 10.9394 2.41639C10.6866 2.2948 10.4147 2.21795 10.1358 2.18925Z"
        fill="#E1BC74" />
    <path
        d="M12.0003 15.2141C10.9143 15.2141 9.85281 14.8921 8.9499 14.2888C8.047 13.6855 7.34327 12.828 6.92771 11.8247C6.51214 10.8214 6.40341 9.71749 6.61527 8.65244C6.82712 7.58739 7.35004 6.60908 8.11789 5.84122C8.88575 5.07336 9.86406 4.55045 10.9291 4.33859C11.9942 4.12674 13.0981 4.23547 14.1014 4.65103C15.1046 5.0666 15.9621 5.77033 16.5654 6.67323C17.1687 7.57614 17.4907 8.63767 17.4907 9.72358C17.4892 11.1793 16.9102 12.5749 15.8809 13.6042C14.8516 14.6335 13.4559 15.2125 12.0003 15.2141ZM12.0003 4.82769C11.0319 4.82769 10.0854 5.11483 9.28024 5.6528C8.47512 6.19076 7.8476 6.9554 7.47704 7.85001C7.10648 8.74461 7.00953 9.72901 7.19844 10.6787C7.38735 11.6284 7.85363 12.5008 8.53834 13.1855C9.22304 13.8702 10.0954 14.3365 11.0451 14.5254C11.9948 14.7143 12.9792 14.6174 13.8738 14.2468C14.7684 13.8762 15.5331 13.2487 16.071 12.4436C16.609 11.6385 16.8961 10.6919 16.8961 9.72358C16.8947 8.42555 16.3785 7.18108 15.4606 6.26323C14.5428 5.34538 13.2983 4.82911 12.0003 4.82769Z"
        fill="#0B272E" />
    <path
        d="M14.1429 22.4054C14.0827 22.4054 14.0239 22.3871 13.9744 22.353C13.9248 22.3189 13.8867 22.2705 13.8652 22.2143L11.9405 17.1772C11.9275 17.1433 11.9209 17.1073 11.9209 17.071C11.9201 16.9989 11.9455 16.9289 11.9924 16.8741C12.0394 16.8193 12.1046 16.7835 12.1761 16.7732C12.2475 16.763 12.3202 16.7791 12.3806 16.8185C12.4411 16.8579 12.4851 16.918 12.5045 16.9875L14.2134 21.46L15.2367 19.9049C15.2709 19.8528 15.3207 19.8128 15.3789 19.7906C15.4371 19.7684 15.5008 19.765 15.561 19.7809L17.3561 20.2566L15.7379 16.0311C15.7115 15.9579 15.7149 15.8773 15.7473 15.8065C15.7797 15.7358 15.8385 15.6806 15.9112 15.6527C15.9838 15.6249 16.0645 15.6266 16.1358 15.6575C16.2072 15.6885 16.2636 15.7462 16.293 15.8182L18.1193 20.5848C18.1388 20.6359 18.1438 20.6913 18.1339 20.7451C18.1239 20.7989 18.0993 20.8489 18.0628 20.8896C18.0262 20.9303 17.9792 20.9601 17.9268 20.9758C17.8744 20.9914 17.8187 20.9923 17.7658 20.9784L15.6157 20.4106L14.3912 22.2716C14.3641 22.3127 14.3272 22.3465 14.2839 22.3698C14.2406 22.3932 14.1921 22.4054 14.1429 22.4054Z"
        fill="#E1BC74" />
    <path
        d="M9.85727 22.4054C9.80806 22.4054 9.75961 22.3931 9.71628 22.3698C9.67295 22.3464 9.6361 22.3127 9.60903 22.2716L8.38446 20.4105L6.23441 20.9783C6.18153 20.9923 6.12582 20.9914 6.07343 20.9757C6.02103 20.96 5.97397 20.9302 5.93743 20.8895C5.90089 20.8488 5.87628 20.7988 5.86631 20.7451C5.85634 20.6913 5.8614 20.6358 5.88092 20.5847L7.70365 15.8217C7.71683 15.7842 7.73738 15.7498 7.76411 15.7203C7.79083 15.6909 7.82318 15.6672 7.85924 15.6505C7.8953 15.6338 7.93434 15.6245 7.97405 15.6232C8.01377 15.6218 8.05335 15.6284 8.09046 15.6426C8.12757 15.6569 8.16145 15.6784 8.1901 15.7059C8.21876 15.7334 8.2416 15.7664 8.25729 15.8029C8.27297 15.8394 8.28118 15.8787 8.28142 15.9185C8.28167 15.9582 8.27394 15.9976 8.25871 16.0343L6.64349 20.2559L8.43887 19.7802C8.4991 19.7643 8.56282 19.7677 8.62102 19.7899C8.67923 19.8122 8.72897 19.8522 8.76322 19.9042L9.78652 21.4594L11.5019 16.9728C11.5248 16.9067 11.5703 16.8507 11.6305 16.8148C11.6906 16.7789 11.7614 16.7654 11.8306 16.7766C11.8997 16.7878 11.9626 16.8231 12.0083 16.8762C12.0539 16.9293 12.0794 16.9968 12.0802 17.0668C12.0802 17.1042 12.0736 17.1414 12.0605 17.1765L10.135 22.2142C10.1135 22.2704 10.0754 22.3188 10.0258 22.3529C9.97624 22.3871 9.91747 22.4054 9.85727 22.4054Z"
        fill="#E1BC74" />
    <path
        d="M9.84216 12.2973C9.78336 12.2973 9.7259 12.2799 9.67702 12.2472C9.62814 12.2145 9.59005 12.1681 9.56755 12.1138C9.54505 12.0595 9.53916 11.9997 9.55063 11.942C9.5621 11.8844 9.5904 11.8314 9.63197 11.7898L14.0394 7.38031C14.0668 7.35192 14.0996 7.32927 14.1359 7.31369C14.1722 7.29811 14.2112 7.28991 14.2507 7.28956C14.2901 7.28922 14.3293 7.29674 14.3658 7.31169C14.4024 7.32664 14.4355 7.34871 14.4635 7.37663C14.4914 7.40454 14.5134 7.43773 14.5284 7.47427C14.5433 7.51081 14.5509 7.54996 14.5505 7.58943C14.5502 7.62891 14.542 7.66792 14.5264 7.70419C14.5108 7.74046 14.4882 7.77327 14.4598 7.80069L10.0523 12.2108C9.99651 12.2663 9.92091 12.2975 9.84216 12.2973Z"
        fill="#0B272E" />
    <path
        d="M13.5159 12.4112C13.2866 12.4112 13.0624 12.3432 12.8717 12.2158C12.6811 12.0884 12.5325 11.9073 12.4447 11.6954C12.3569 11.4836 12.334 11.2505 12.3787 11.0255C12.4235 10.8006 12.5339 10.594 12.696 10.4319C12.8582 10.2697 13.0648 10.1593 13.2897 10.1146C13.5146 10.0698 13.7477 10.0928 13.9596 10.1805C14.1715 10.2683 14.3526 10.4169 14.48 10.6076C14.6074 10.7983 14.6754 11.0224 14.6754 11.2517C14.6754 11.5592 14.5532 11.8542 14.3358 12.0716C14.1183 12.289 13.8234 12.4112 13.5159 12.4112ZM13.5159 10.6896C13.4042 10.6896 13.295 10.7227 13.2021 10.7848C13.1092 10.8468 13.0368 10.935 12.994 11.0383C12.9513 11.1415 12.9401 11.255 12.9619 11.3646C12.9837 11.4742 13.0375 11.5748 13.1165 11.6538C13.1955 11.7328 13.2961 11.7866 13.4057 11.8084C13.5153 11.8302 13.6289 11.819 13.7321 11.7763C13.8353 11.7335 13.9235 11.6611 13.9856 11.5682C14.0476 11.4753 14.0808 11.3661 14.0808 11.2544C14.0808 11.1046 14.0213 10.9609 13.9153 10.855C13.8094 10.7491 13.6657 10.6896 13.5159 10.6896Z"
        fill="#0B272E" />
    <path
        d="M10.4837 9.35194C10.2544 9.35194 10.0302 9.28394 9.83952 9.15653C9.64885 9.02913 9.50023 8.84805 9.41248 8.63618C9.32472 8.42432 9.30176 8.19119 9.3465 7.96628C9.39124 7.74137 9.50166 7.53477 9.66382 7.37262C9.82597 7.21046 10.0326 7.10004 10.2575 7.0553C10.4824 7.01056 10.7155 7.03352 10.9274 7.12128C11.1392 7.20904 11.3203 7.35765 11.4477 7.54832C11.5751 7.73899 11.6431 7.96316 11.6431 8.19248C11.6431 8.49999 11.521 8.7949 11.3035 9.01234C11.0861 9.22978 10.7912 9.35194 10.4837 9.35194ZM10.4837 7.63029C10.372 7.63029 10.2627 7.66342 10.1699 7.72549C10.077 7.78755 10.0046 7.87577 9.96181 7.97899C9.91906 8.08221 9.90787 8.19578 9.92967 8.30535C9.95146 8.41493 10.0053 8.51558 10.0843 8.59457C10.1633 8.67357 10.2639 8.72737 10.3735 8.74916C10.4831 8.77096 10.5966 8.75977 10.6998 8.71702C10.8031 8.67427 10.8913 8.60187 10.9533 8.50898C11.0154 8.41608 11.0485 8.30687 11.0485 8.19515C11.0486 8.12093 11.0341 8.04741 11.0057 7.97881C10.9774 7.91021 10.9358 7.84787 10.8833 7.79535C10.8308 7.74284 10.7686 7.70117 10.7 7.67275C10.6314 7.64433 10.5579 7.6297 10.4837 7.6297V7.63029Z"
        fill="#0B272E" />
    <path
        d="M6.7041 20.1482L7.92632 16.0741H15.6671L16.8893 19.7408L15.2597 19.3334L14.0374 21.3704L12.4078 16.4815H12.0004L9.96336 21.3704L8.74114 19.3334L6.7041 20.1482Z"
        fill="#E1BC74" stroke="#E1BC74" />
</svg>