<?xml version="1.0" standalone="no"?>
<!DOCTYPE svg PUBLIC "-//W3C//DTD SVG 20010904//EN"
 "http://www.w3.org/TR/2001/REC-SVG-20010904/DTD/svg10.dtd">
<svg version="1.0" xmlns="http://www.w3.org/2000/svg"
 width="256.000000pt" height="195.000000pt" viewBox="0 0 256.000000 195.000000"
 preserveAspectRatio="xMidYMid meet">

<g transform="translate(0.000000,195.000000) scale(0.100000,-0.100000)"
fill="#000000" stroke="none">
<path d="M1135 1758 c-16 -5 -42 -11 -57 -13 -33 -5 -129 -53 -126 -63 1 -4
-5 -20 -15 -37 -9 -16 -16 -25 -17 -20 0 6 7 21 16 33 32 46 -9 20 -79 -50
-114 -115 -167 -243 -167 -403 0 -92 18 -172 56 -248 26 -51 101 -159 115
-165 4 -2 6 -11 4 -20 -1 -9 0 -11 2 -4 6 17 14 15 53 -18 32 -28 57 -40 47
-22 -6 9 85 3 95 -6 4 -4 -16 -5 -44 -3 -32 2 -48 -1 -44 -7 8 -14 -80 -20
-97 -7 -8 5 -12 16 -9 24 3 8 0 11 -7 7 -18 -12 -13 -22 26 -52 26 -19 35 -23
30 -11 -8 21 0 22 18 3 8 -7 11 -17 7 -20 -3 -4 0 -4 9 -1 8 3 23 -2 34 -11
11 -8 14 -12 6 -8 -10 5 -12 3 -7 -5 5 -7 14 -10 22 -7 15 6 7 -25 -10 -36
-15 -10 73 -47 147 -63 53 -11 58 -13 32 -18 -16 -2 9 -2 56 0 53 4 107 1 138
-7 29 -7 55 -10 58 -6 3 3 -14 8 -38 12 l-44 7 65 13 c36 8 84 21 107 29 24 9
47 14 51 11 6 -3 6 8 3 27 -6 24 -12 31 -27 29 -18 -2 -18 -2 -1 8 9 6 22 8
29 4 7 -5 8 -3 3 6 -6 10 -4 12 9 7 11 -5 15 -3 10 5 -5 8 -2 9 9 5 10 -4 16
-2 14 6 -1 7 6 11 15 11 10 -1 14 4 11 12 -3 8 -1 14 5 14 6 0 12 -6 15 -12 5
-15 57 28 57 46 0 6 -7 1 -15 -11 -11 -16 -23 -20 -50 -18 -20 2 -33 -1 -30
-6 4 -5 -10 -9 -30 -9 -23 0 -34 4 -30 10 4 6 16 8 28 5 12 -4 18 -3 12 2 -5
4 -11 14 -13 21 -2 10 2 10 18 2 11 -6 19 -7 18 -2 -5 15 61 64 74 56 7 -4 10
-4 6 1 -4 4 -1 14 7 21 31 31 104 153 125 209 31 82 39 235 16 325 -26 106
-73 187 -153 268 -40 39 -77 72 -84 72 -8 0 -8 -4 1 -15 9 -10 9 -15 1 -15
-10 0 -15 14 -12 33 2 11 -126 70 -138 63 -5 -3 -24 1 -43 8 -39 17 -244 20
-293 4z m120 -8 c4 -7 -8 -8 -37 -4 -57 9 -61 14 -10 14 22 0 44 -5 47 -10z
m100 0 c-22 -4 -47 -4 -55 1 -10 5 5 8 40 8 55 -1 55 -1 15 -9z m-155 -21
c-34 -10 -78 -11 -83 -1 -3 4 20 7 51 8 40 1 49 -1 32 -7z m188 -14 c45 -10
82 -22 82 -27 0 -5 9 -7 19 -3 11 3 22 1 26 -4 4 -7 -1 -8 -12 -4 -23 8 -18 3
40 -41 26 -20 47 -31 47 -26 0 6 -5 10 -12 10 -6 0 -8 3 -5 6 8 8 37 -14 37
-27 0 -5 -3 -8 -8 -6 -14 4 -10 -18 10 -57 16 -32 19 -51 14 -94 -7 -63 -20
-90 -74 -154 -25 -30 -42 -61 -46 -87 -7 -44 -53 -105 -85 -114 -24 -6 -40 12
-71 77 -13 27 -32 58 -42 68 -21 21 -78 24 -111 6 -41 -23 -49 -48 -16 -48 18
0 19 2 9 15 -9 11 -9 15 -1 15 13 0 31 -41 31 -71 0 -11 -13 -34 -30 -50 -16
-16 -28 -33 -27 -37 4 -15 -39 -12 -58 3 -14 12 -15 15 -4 12 22 -7 20 19 -3
40 -41 37 -56 22 -20 -19 15 -18 5 -25 -14 -10 -5 4 -1 0 8 -10 19 -17 23 -28
11 -28 -18 1 -36 19 -38 38 0 11 -16 37 -34 58 -47 53 -81 130 -81 184 l1 45
13 -30 c7 -16 25 -44 40 -62 15 -17 34 -55 42 -84 12 -38 18 -48 25 -38 5 8 9
19 9 24 0 6 -4 4 -9 -3 -6 -10 -10 -6 -15 15 -4 15 -9 37 -13 48 -3 13 -2 17
5 10 5 -5 12 -19 15 -30 5 -19 5 -19 6 1 0 11 -12 33 -29 49 -16 16 -30 25
-30 20 0 -18 -29 32 -44 76 -21 59 -20 108 4 163 10 25 17 46 13 46 -13 0 34
44 79 75 27 17 45 34 42 38 -3 3 16 8 43 12 26 4 68 13 93 20 49 15 48 15 168
-10z m-15 18 c-7 -2 -19 -2 -25 0 -7 3 -2 5 12 5 14 0 19 -2 13 -5z m97 -8
l25 -14 -28 -1 c-16 0 -26 4 -22 10 4 6 -7 8 -27 5 -29 -4 -30 -4 -8 4 34 12
32 12 60 -4z m-415 -5 c-3 -5 -12 -10 -18 -10 -7 0 -6 4 3 10 19 12 23 12 15
0z m50 0 c3 -5 -3 -10 -15 -10 -12 0 -18 5 -15 10 3 6 10 10 15 10 5 0 12 -4
15 -10z m429 -17 c10 -25 3 -23 -17 3 -13 18 -14 22 -3 18 8 -3 17 -13 20 -21z
m-524 3 c0 -2 -8 -10 -17 -17 -16 -13 -17 -12 -4 4 13 16 21 21 21 13z m561
-13 c13 -16 12 -17 -3 -4 -10 7 -18 15 -18 17 0 8 8 3 21 -13z m-501 -7 c0 -2
-7 -7 -16 -10 -8 -3 -12 -2 -9 4 6 10 25 14 25 6z m-57 -39 c-2 -4 -12 -7 -21
-5 -10 1 -23 -1 -30 -6 -11 -7 -11 -4 0 13 7 12 14 17 16 11 2 -5 10 -10 18
-10 8 0 11 7 8 18 -5 14 -4 14 4 2 6 -8 8 -18 5 -23z m542 13 c-3 -5 -1 -10 6
-10 7 0 10 -3 6 -6 -9 -9 -28 6 -22 17 4 5 8 9 11 9 3 0 2 -4 -1 -10z m135
-67 c0 -8 -5 -11 -10 -8 -6 4 -8 11 -5 16 4 5 2 9 -3 9 -6 0 -13 8 -16 17 -6
15 -4 15 14 -2 11 -10 20 -24 20 -32z m-798 20 c-6 -3 -9 -10 -6 -15 4 -7 2
-8 -5 -4 -9 6 -9 11 0 22 6 8 15 12 18 8 3 -4 0 -9 -7 -11z m88 14 c0 -2 -10
-12 -22 -23 l-23 -19 19 23 c18 21 26 27 26 19z m-55 -27 c3 -5 1 -10 -4 -10
-6 0 -11 5 -11 10 0 6 2 10 4 10 3 0 8 -4 11 -10z m725 0 c0 -5 -5 -10 -11
-10 -5 0 -7 5 -4 10 3 6 8 10 11 10 2 0 4 -4 4 -10z m-807 -40 c-3 -11 -9 -18
-13 -15 -4 2 -8 -16 -9 -42 -1 -40 1 -44 14 -33 9 7 14 19 11 27 -3 8 -1 11 4
8 5 -3 20 -1 32 6 23 12 19 7 -57 -62 -20 -18 -20 -17 -17 39 2 33 10 64 19
75 20 22 22 21 16 -3z m24 -2 c-3 -8 -6 -5 -6 6 -1 11 2 17 5 13 3 -3 4 -12 1
-19z m57 1 c-7 -12 -65 -42 -70 -36 -3 2 9 10 26 17 23 10 28 16 20 25 -9 11
-7 12 9 8 12 -3 18 -9 15 -14z m828 -69 c3 -58 3 -59 -17 -41 -76 69 -80 74
-57 62 12 -7 27 -9 32 -6 5 3 7 0 4 -8 -3 -8 2 -20 11 -27 13 -11 15 -7 15 34
0 26 -4 45 -9 42 -5 -3 -11 4 -14 15 -5 20 -5 20 13 4 13 -12 19 -34 22 -75z
m-102 69 c0 -5 5 -7 12 -3 7 4 8 3 4 -5 -6 -9 -11 -9 -22 0 -17 14 -18 19 -4
19 6 0 10 -5 10 -11z m47 -14 c-4 -8 -12 -15 -19 -14 -10 0 -10 2 0 6 6 2 12
12 12 21 0 8 3 13 6 9 4 -3 4 -13 1 -22z m-916 -108 c-8 -8 -11 -2 -11 19 0
40 14 54 18 19 2 -15 -1 -32 -7 -38z m1009 27 c0 -35 -15 -30 -18 7 -2 19 2
28 8 24 5 -3 10 -17 10 -31z m-1032 -100 l-3 -27 -12 32 c-8 21 -8 29 0 24 6
-4 8 0 4 10 -3 10 -3 25 1 35 5 13 8 9 10 -16 2 -18 2 -44 0 -58z m89 71 c0
-9 -17 -29 -37 -45 l-36 -29 5 32 c3 19 6 25 9 15 3 -15 7 -16 24 -7 11 6 17
13 14 16 -3 4 -1 12 5 20 14 17 16 16 16 -2z m888 -13 c-3 -3 1 -12 7 -21 8
-10 4 -9 -10 3 -12 11 -22 26 -22 34 0 12 3 12 15 2 9 -7 13 -15 10 -18z m81
-18 c2 -20 -1 -32 -6 -29 -6 4 -10 22 -10 42 0 45 13 35 16 -13z m-902 -93 c4
-6 1 -18 -8 -26 -13 -13 -16 -11 -26 20 -6 19 -9 41 -7 48 3 6 6 3 6 -8 1 -11
5 -26 9 -32 4 -7 7 18 6 55 l-3 67 8 -56 c5 -31 11 -61 15 -68z m761 33 c-3
-24 -11 -47 -17 -50 -8 -5 -9 1 -4 17 3 13 10 47 13 74 5 32 9 41 11 26 2 -13
1 -44 -3 -67z m107 46 c3 -22 2 -27 -8 -19 -6 5 -10 19 -7 29 7 27 10 25 15
-10z m-976 -58 c-14 -15 -26 -23 -26 -20 0 4 10 17 23 29 20 20 20 21 2 15
-20 -6 -20 -6 0 9 31 24 32 -3 1 -33z m939 29 c-2 -5 7 -19 20 -31 16 -15 25
-19 25 -10 0 7 3 11 6 7 3 -3 3 -11 -1 -17 -5 -8 -17 -3 -36 16 -27 26 -41 63
-19 49 6 -4 8 -10 5 -14z m-1011 -54 c-4 -14 -3 -17 6 -12 9 5 11 4 6 -3 -4
-6 -2 -21 4 -33 11 -20 12 -20 31 -3 20 18 27 40 9 29 -15 -9 -12 1 4 14 28
23 25 -7 -4 -44 l-29 -36 -25 50 c-26 51 -34 78 -15 51 8 -11 9 -6 5 20 -5 30
-5 32 4 11 6 -13 8 -33 4 -44z m1101 31 c-5 -26 -4 -30 5 -18 9 12 11 12 8 1
-2 -8 -11 -15 -20 -17 -13 -2 -14 3 -5 32 13 43 21 44 12 2z m-200 -25 c-3
-27 -15 -66 -26 -88 -27 -57 -98 -137 -116 -131 -8 3 -11 2 -8 -3 3 -5 -5 -17
-17 -25 -12 -9 -19 -16 -14 -16 5 0 1 -10 -10 -22 -19 -21 -19 -21 0 -14 16 5
17 4 6 -9 -7 -8 -16 -15 -21 -15 -14 0 -11 48 4 53 6 2 4 3 -5 2 -10 -2 -18 1
-18 6 0 5 -7 9 -15 9 -17 0 -20 -17 -4 -22 15 -5 23 -84 10 -93 -6 -3 -11 -12
-11 -18 0 -7 4 -6 10 3 6 9 10 10 10 3 0 -21 -12 -43 -21 -37 -5 3 -9 -2 -9
-11 0 -9 3 -14 8 -12 4 3 8 -11 9 -31 1 -21 -1 -31 -3 -25 -4 10 -9 10 -20 -1
-7 -8 -19 -16 -26 -19 -7 -2 -9 -8 -5 -13 4 -5 11 -4 15 1 10 14 41 15 36 1
-4 -11 -74 -18 -74 -7 0 3 -16 6 -35 6 -19 0 -35 -4 -35 -9 0 -5 -13 -6 -29
-3 -21 5 -31 2 -35 -10 -9 -22 3 -31 15 -13 8 11 9 9 4 -10 -4 -14 -8 -34 -8
-46 -1 -11 -8 -28 -15 -37 -7 -8 -15 -28 -16 -43 -2 -16 -9 -30 -16 -32 -8 -3
-10 0 -5 8 6 10 4 11 -6 4 -19 -12 -39 -14 -39 -4 0 4 11 11 24 14 14 3 28 16
32 29 4 12 12 25 18 30 8 5 6 10 -4 17 -13 9 -13 10 0 10 13 0 13 1 0 10 -13
9 -13 11 0 20 12 8 13 11 1 19 -9 6 -10 10 -2 16 7 3 9 15 6 26 -5 14 -3 17 9
13 9 -3 16 -1 16 5 0 6 -7 11 -16 11 -13 0 -15 7 -9 41 4 23 3 39 -2 36 -4 -3
-10 21 -11 52 -4 69 22 141 50 141 10 0 18 5 18 11 0 5 -4 7 -10 4 -5 -3 -10
-1 -10 4 0 6 9 11 21 11 12 0 18 -4 13 -11 -6 -10 12 -29 29 -29 17 0 5 40
-15 51 l-22 12 23 18 c24 20 42 25 39 12 0 -5 2 -16 7 -27 5 -12 3 -21 -6 -27
-11 -7 -9 -10 10 -16 23 -6 23 -7 6 -13 -18 -6 -18 -8 4 -19 13 -7 21 -8 17
-3 -3 6 0 13 6 16 10 3 8 9 -5 20 -14 11 -16 19 -9 32 6 11 11 13 16 5 4 -6 2
-11 -4 -11 -21 0 1 -20 23 -21 12 0 16 -3 10 -6 -23 -9 -13 -23 16 -23 15 0
44 11 64 24 19 13 38 22 40 19 9 -9 39 45 48 88 5 23 23 58 39 77 16 19 27 39
24 44 -7 10 14 38 28 38 6 0 8 -18 3 -47z m55 3 c-6 -20 -15 -38 -19 -41 -5
-2 -1 15 8 40 18 52 28 53 11 1z m-118 -33 c-16 -21 -37 -64 -46 -95 -9 -31
-21 -60 -26 -63 -14 -8 -13 1 4 33 7 15 16 43 20 62 3 19 21 49 38 67 42 44
47 42 10 -4z m218 -2 c3 -2 -3 -1 -12 2 -21 7 -23 0 -5 -23 6 -9 2 -5 -11 8
-37 39 -14 50 28 13z m-902 -23 c11 -21 17 -40 12 -43 -11 -7 -40 46 -40 71 0
20 0 20 28 -28z m-165 -21 c-9 -14 -23 4 -23 31 l1 27 13 -25 c8 -14 12 -28 9
-33z m288 36 c13 -16 12 -17 -3 -4 -17 13 -22 21 -14 21 2 0 10 -8 17 -17z
m684 -23 c-21 -40 -18 -50 5 -20 l20 25 -11 -32 c-6 -17 -18 -38 -27 -46 -16
-14 -17 -13 -17 16 1 37 25 98 37 91 4 -3 1 -18 -7 -34z m120 1 c-21 -43 -29
-39 -8 4 9 19 18 33 21 31 2 -2 -4 -18 -13 -35z m45 4 c0 -8 -2 -15 -4 -15 -2
0 -6 7 -10 15 -3 8 -1 15 4 15 6 0 10 -7 10 -15z m-1054 -31 c-4 -15 -15 -37
-24 -49 l-17 -22 -22 30 c-21 28 -22 54 -2 41 5 -3 7 -10 3 -15 -3 -5 0 -16 6
-25 17 -19 36 -3 45 37 4 16 9 29 12 29 3 0 2 -12 -1 -26z m94 -50 c0 -13 -7
-9 -25 16 -14 19 -25 40 -25 48 0 7 11 0 25 -16 14 -17 25 -38 25 -48z m93
-22 c12 -13 21 -38 23 -62 2 -36 0 -40 -17 -35 -28 9 -23 -4 6 -15 14 -5 25
-14 25 -19 0 -15 -30 -2 -65 27 -29 24 -29 25 -5 17 23 -7 23 -5 -10 31 l-35
37 32 -22 c18 -12 35 -26 38 -31 4 -6 11 -10 17 -10 7 0 -2 14 -20 31 -17 17
-34 39 -37 50 -4 10 -10 19 -15 19 -4 0 -11 8 -14 17 -6 14 -3 14 15 -3 22
-19 22 -19 15 1 -19 46 -16 58 4 25 12 -19 31 -45 43 -58z m783 66 c10 -12 13
-18 7 -14 -18 10 -16 -9 1 -23 11 -10 17 -7 30 10 8 12 12 27 9 32 -3 6 -1 7
6 3 6 -4 8 -13 4 -19 -5 -7 -14 -22 -22 -34 l-15 -21 -16 21 c-17 22 -35 67
-27 67 2 0 12 -10 23 -22z m-161 -36 c-24 -36 -57 -72 -67 -72 -5 0 10 23 32
51 22 28 40 56 41 62 0 8 2 8 6 -1 3 -7 -3 -25 -12 -40z m-901 -4 c1 -13 7
-23 16 -23 8 0 14 -8 12 -16 -1 -9 5 -22 13 -29 13 -11 18 -10 30 6 20 26 19
39 -2 23 -13 -11 -13 -8 2 12 29 39 38 13 12 -33 l-22 -39 -37 43 c-22 24 -38
54 -38 67 0 30 12 20 14 -11z m529 16 c-5 -14 -3 -15 15 -5 18 10 22 9 22 -5
0 -10 -6 -14 -14 -11 -7 3 -18 1 -23 -4 -5 -5 -9 1 -11 16 -1 14 3 25 8 25 5
0 7 -7 3 -16z m617 -6 c0 -13 -17 -41 -38 -63 -20 -23 -31 -33 -24 -24 8 10
14 23 16 31 2 13 38 78 43 78 2 0 3 -10 3 -22z m-229 -25 c-21 -42 -67 -90
-77 -80 -5 5 83 114 94 116 1 1 -6 -16 -17 -36z m55 -31 c-17 -17 -26 -22 -26
-12 0 19 44 64 48 50 3 -7 -7 -24 -22 -38z m84 24 c13 -17 13 -18 1 -11 -11 6
-13 4 -8 -11 7 -18 7 -18 -7 -1 -8 11 -12 25 -9 33 3 8 6 14 7 12 1 -2 8 -12
16 -22z m-864 -30 c1 -10 -4 -13 -14 -9 -10 3 -3 -6 13 -20 17 -14 27 -29 23
-33 -5 -4 -17 1 -29 12 -24 22 -48 60 -30 50 6 -4 11 -3 11 3 0 5 -4 13 -10
16 -5 3 -10 11 -10 16 0 15 43 -18 46 -35z m-161 -48 c0 -4 11 -15 24 -24 19
-14 25 -14 33 -3 6 10 7 6 3 -11 -4 -14 -11 -29 -16 -34 -5 -5 -1 -15 9 -23
15 -13 14 -13 -6 -3 -19 9 -21 14 -11 26 11 13 6 21 -29 52 -22 20 -44 48 -48
62 -6 24 -6 24 17 -5 13 -16 24 -33 24 -37z m360 14 c-6 -7 -35 18 -35 31 0 5
9 2 20 -8 11 -10 18 -20 15 -23z m506 -2 c-44 -40 -61 -49 -61 -30 0 6 4 10 9
10 4 0 25 14 46 30 54 43 58 37 6 -10z m89 21 c-14 -28 -69 -66 -66 -46 1 8
18 25 37 39 42 30 42 30 29 7z m-878 -33 c-13 -13 -24 5 -16 27 7 16 8 16 17
0 6 -11 6 -20 -1 -27z m923 21 c-5 -16 -4 -19 5 -14 9 6 11 4 5 -4 -10 -18
-27 2 -19 22 9 25 17 21 9 -4z m64 -40 c-37 -31 -41 -39 -31 -52 11 -13 10
-17 -10 -27 -20 -10 -21 -10 -6 3 10 8 14 18 9 23 -5 5 -11 20 -15 34 -3 14
-3 19 0 13 9 -20 24 -15 18 5 -4 11 -3 13 3 5 6 -8 13 -8 27 3 11 8 16 14 11
14 -4 0 0 9 11 21 13 14 20 17 23 8 2 -7 -16 -29 -40 -50z m-302 3 c-15 -15
-27 -21 -27 -13 0 14 42 52 49 45 3 -3 -7 -17 -22 -32z m94 -16 c-24 -25 -61
-41 -61 -25 0 7 65 47 79 49 3 0 -6 -11 -18 -24z m83 10 c-5 -14 -47 -46 -59
-46 -21 0 27 46 62 59 1 1 0 -5 -3 -13z m-923 -49 c-13 -13 -34 2 -27 19 3 8
1 14 -4 14 -6 0 -10 5 -10 12 0 6 11 1 25 -12 16 -15 22 -27 16 -33z m189 13
c0 -14 -12 -12 -38 6 -33 23 -27 37 8 19 17 -9 30 -20 30 -25z m129 1 c-6 -2
-21 6 -33 19 l-21 21 32 -18 c18 -10 28 -20 22 -22z m754 22 c-7 -2 -9 -12 -6
-21 4 -15 3 -15 -6 -2 -10 14 -16 7 -12 -13 1 -5 -3 -5 -10 -2 -7 5 -3 15 12
31 12 13 25 21 28 18 3 -4 1 -9 -6 -11z m-996 -15 c2 -17 0 -19 -7 -8 -5 8 -6
18 -4 22 8 12 10 10 11 -14z m299 7 c10 -8 14 -15 8 -15 -5 0 -19 7 -30 15
-10 8 -14 15 -8 15 5 0 19 -7 30 -15z m384 0 c-7 -8 -22 -15 -34 -15 -17 1
-16 3 9 15 39 18 40 18 25 0z m216 -31 c2 -20 1 -34 -2 -31 -3 3 -7 22 -9 42
-2 20 -1 34 2 31 3 -3 7 -22 9 -42z m-867 -27 c1 -5 -3 -5 -9 -2 -5 3 -10 16
-9 28 0 21 1 21 9 2 5 -11 9 -24 9 -28z m146 23 c15 -6 25 -13 22 -16 -6 -6
-67 23 -67 32 0 3 4 3 9 0 4 -3 21 -10 36 -16z m79 -11 c-3 -5 -16 -2 -30 7
-32 22 -30 25 6 13 16 -6 27 -15 24 -20z m46 9 c0 -6 -6 -5 -15 2 -8 7 -15 14
-15 16 0 2 7 1 15 -2 8 -4 15 -11 15 -16z m-168 -23 c4 -5 5 -11 4 -13 -7 -6
-55 21 -60 34 -4 11 0 11 22 1 15 -6 30 -16 34 -22z m526 21 c-19 -14 -25 -32
-8 -21 6 3 10 1 10 -4 0 -10 -11 -14 -27 -9 -11 3 -3 32 10 40 21 13 33 8 15
-6z m68 -1 c-23 -17 -36 -19 -36 -6 0 5 8 12 18 14 32 9 37 6 18 -8z m88 1
c-5 -13 -53 -40 -60 -34 -8 9 30 37 63 47 1 1 0 -5 -3 -13z m52 -12 c-4 -9 -9
-15 -11 -12 -3 3 -3 13 1 22 4 9 9 15 11 12 3 -3 3 -13 -1 -22z m-879 -6 c-3
-8 -6 -5 -6 6 -1 11 2 17 5 13 3 -3 4 -12 1 -19z m-47 -17 c8 -2 22 -4 31 -5
9 0 16 -6 16 -13 0 -16 3 -16 -40 2 -19 8 -37 22 -41 32 -5 16 -4 16 7 3 6 -8
19 -17 27 -19z m360 7 c0 -6 -6 -5 -15 2 -8 7 -15 14 -15 16 0 2 7 1 15 -2 8
-4 15 -11 15 -16z m311 9 c-6 -8 -9 -16 -6 -19 3 -3 -1 -11 -10 -18 -10 -8
-15 -9 -15 -1 0 6 6 11 13 12 10 0 10 2 0 6 -18 7 -16 21 5 26 9 3 19 5 21 6
2 0 -2 -5 -8 -12z m362 -2 c-3 -9 -21 -22 -40 -30 -48 -20 -54 -19 -19 4 17
11 33 18 37 15 4 -2 9 3 13 11 3 8 8 15 10 15 3 0 3 -7 -1 -15z m-723 -5 c8
-5 12 -11 9 -14 -3 -3 -14 1 -25 9 -21 16 -8 20 16 5z m476 -5 c-22 -17 -46
-20 -46 -6 0 5 12 12 28 14 15 2 29 5 32 5 3 1 -4 -5 -14 -13z m-521 -5 c3 -5
-3 -10 -14 -10 -11 0 -23 5 -26 10 -3 6 3 10 14 10 11 0 23 -4 26 -10z m-171
-52 c7 -5 4 -8 -7 -8 -10 0 -15 -4 -12 -10 6 -10 -28 0 -67 21 -33 18 -14 20
26 4 29 -12 37 -13 35 -3 -1 7 0 22 1 33 2 16 4 15 7 -5 3 -14 10 -28 17 -32z
m261 34 c-3 -3 -11 0 -18 7 -9 10 -8 11 6 5 10 -3 15 -9 12 -12z m-237 -36 c2
-29 -1 -36 -15 -36 -14 0 -15 2 -4 9 9 6 11 18 6 41 -4 19 -3 30 2 27 5 -3 10
-22 11 -41z m99 27 c3 -7 -3 -9 -17 -6 -29 8 -37 25 -9 21 12 -1 24 -8 26 -15z
m98 7 c13 -6 15 -9 5 -9 -8 0 -22 4 -30 9 -18 12 -2 12 25 0z m400 0 c-3 -5
-14 -10 -23 -9 -14 0 -13 2 3 9 27 11 27 11 20 0z m120 1 c-6 -5 -21 -12 -35
-16 -22 -7 -23 -6 -11 9 7 9 23 16 34 16 13 0 17 -4 12 -9z m61 -25 c-5 -23
-3 -36 6 -39 8 -3 6 -6 -5 -6 -15 -1 -18 5 -16 32 3 35 7 47 16 47 3 0 2 -15
-1 -34z m26 -8 c-6 -6 -7 0 -4 19 5 21 7 23 10 9 2 -10 0 -22 -6 -28z m-647
22 c3 -5 -1 -10 -9 -10 -8 0 -18 5 -21 10 -3 6 1 10 9 10 8 0 18 -4 21 -10z
m485 0 c-19 -13 -30 -13 -30 0 0 6 10 10 23 10 18 0 19 -2 7 -10z m-395 -18
c-3 -3 -11 0 -18 7 -9 10 -8 11 6 5 10 -3 15 -9 12 -12z m300 8 c-3 -5 -12
-10 -18 -10 -7 0 -6 4 3 10 19 12 23 12 15 0z m340 1 c-12 -12 -85 -43 -85
-36 0 6 72 44 85 45 6 0 6 -3 0 -9z m-670 -19 c-3 -3 -11 0 -18 7 -9 10 -8 11
6 5 10 -3 15 -9 12 -12z m360 8 c-3 -5 -12 -10 -18 -10 -7 0 -6 4 3 10 19 12
23 12 15 0z m126 -4 c-6 -8 -23 -16 -37 -19 -36 -6 -25 16 12 24 16 4 31 7 33
8 2 0 -2 -5 -8 -13z m-661 -51 c0 -30 -2 -32 -22 -27 -19 5 -20 7 -5 10 20 4
23 41 5 62 -11 12 -10 12 5 1 10 -8 17 -27 17 -46z m87 39 c2 -7 -6 -10 -22
-6 -35 6 -44 24 -9 20 15 -2 29 -8 31 -14z m58 -14 c8 -13 -5 -13 -25 0 -13 8
-13 10 2 10 9 0 20 -4 23 -10z m425 0 c-8 -5 -19 -10 -25 -10 -5 0 -3 5 5 10
8 5 20 10 25 10 6 0 3 -5 -5 -10z m-624 -37 c-7 -8 -70 13 -73 24 -3 8 10 6
36 -4 23 -9 39 -18 37 -20z m858 22 c-4 -8 -11 -15 -18 -15 -6 0 -22 -3 -36
-5 -16 -4 -11 2 15 14 22 11 41 20 42 20 1 1 0 -6 -3 -14z m-682 -15 c19 -17
19 -20 5 -20 -9 0 -17 4 -17 8 0 5 -10 14 -22 20 -19 9 -20 11 -5 11 10 1 27
-8 39 -19z m372 6 c-10 -8 -21 -12 -24 -10 -5 6 21 24 34 24 6 0 1 -6 -10 -14z
m111 4 c-3 -5 -13 -10 -21 -10 -8 0 -12 -4 -9 -10 3 -5 -1 -10 -9 -10 -14 0
-14 3 -4 20 7 11 21 20 31 20 10 0 15 -4 12 -10z m100 -22 c10 -2 7 -7 -8 -14
-22 -10 -23 -8 -18 20 3 18 6 24 9 14 2 -9 10 -18 17 -20z m-667 -14 c-3 -14
-5 -12 -10 9 -3 19 -2 25 4 19 6 -6 8 -18 6 -28z m129 30 c-3 -3 -12 -4 -19
-1 -8 3 -5 6 6 6 11 1 17 -2 13 -5z m53 2 c0 -3 -4 -8 -10 -11 -5 -3 -10 -1
-10 4 0 6 5 11 10 11 6 0 10 -2 10 -4z m433 -16 c-3 -12 -8 -19 -11 -16 -5 6
5 36 12 36 2 0 2 -9 -1 -20z m-596 -57 c-7 -7 -123 20 -135 32 -9 8 15 5 62
-8 42 -11 75 -22 73 -24z m18 38 c3 -5 1 -12 -5 -16 -5 -3 -10 1 -10 9 0 18 6
21 15 7z m132 -6 c0 -8 -4 -12 -9 -9 -4 3 -8 9 -8 15 0 5 4 9 8 9 5 0 9 -7 9
-15z m293 5 c0 -5 -7 -7 -15 -4 -8 4 -15 8 -15 10 0 2 7 4 15 4 8 0 15 -4 15
-10z m111 -18 c-20 -38 -14 -45 35 -37 26 3 54 9 63 12 13 4 14 3 1 -5 -13
-10 -108 -27 -120 -23 -6 3 -2 25 11 59 5 13 12 22 15 19 3 -3 1 -14 -5 -25z
m149 14 c-8 -8 -37 -17 -65 -20 l-50 -6 60 19 c33 10 62 19 65 20 2 0 -2 -5
-10 -13z m-190 -42 c-15 -39 -13 -43 28 -47 24 -3 20 -3 -11 -2 -47 2 -47 2
-30 -19 10 -12 4 -8 -14 7 -20 19 -29 35 -26 48 7 25 15 25 11 -1 -2 -10 2
-20 7 -22 6 -2 12 8 14 22 2 20 16 39 28 40 1 0 -2 -12 -7 -26z m-477 -3 c4
-18 0 -20 -49 -16 -30 2 -62 9 -71 15 -15 9 -15 11 -2 7 9 -3 37 -9 63 -12 39
-6 46 -5 46 9 0 22 7 20 13 -3z m34 -18 c-3 -10 -5 -4 -5 12 0 17 2 24 5 18 2
-7 2 -21 0 -30z m27 -44 c-18 -20 -50 -25 -73 -10 -8 5 1 8 25 7 28 -1 38 3
36 12 -1 8 2 11 8 7 6 -4 8 6 5 27 l-5 33 11 -28 c9 -23 8 -32 -7 -48z m312
34 c-10 -10 -19 5 -10 18 6 11 8 11 12 0 2 -7 1 -15 -2 -18z m-102 2 c-4 -8
-13 -15 -20 -15 -12 0 -12 3 -2 15 17 19 29 19 22 0z m-159 -12 c-10 -25 -12
-83 -3 -77 14 9 9 -11 -8 -32 -15 -19 -16 -19 -10 1 5 17 4 18 -6 4 -7 -8 -22
-19 -33 -23 -19 -7 -19 -8 4 -27 12 -10 27 -17 31 -14 4 3 14 -3 21 -12 12
-14 11 -15 -6 -10 -11 3 -39 11 -63 18 -41 12 -43 14 -36 43 4 17 30 56 58 88
55 62 62 68 51 41z m379 -105 c-3 -10 -1 -18 5 -18 6 0 11 -7 11 -16 0 -14 -2
-15 -17 -3 -11 9 -14 10 -9 2 5 -9 2 -11 -8 -7 -18 7 -22 24 -5 24 5 0 7 5 3
12 -6 9 -9 9 -12 0 -7 -21 -60 -14 -67 8 -3 11 -3 25 0 31 4 5 7 26 7 46 l0
35 49 -48 c34 -34 47 -54 43 -66z m-303 75 c-12 -20 -14 -14 -5 12 4 9 9 14
11 11 3 -2 0 -13 -6 -23z m174 21 c13 -6 14 -9 3 -16 -10 -7 -10 -11 0 -15 18
-7 15 -19 -6 -20 -14 -1 -19 6 -20 28 -1 32 -1 32 23 23z m-5 -103 c0 -32 -16
-25 -28 12 -11 31 -11 31 -6 2 4 -16 7 -36 7 -43 0 -17 57 -31 86 -20 34 12
37 3 6 -18 -32 -21 -200 -32 -242 -16 -15 5 -36 13 -46 16 -17 5 -17 7 -3 22
9 8 14 20 10 25 -3 6 2 22 11 36 14 21 19 23 27 12 8 -11 9 -11 5 2 -3 8 4 26
15 40 l20 24 -7 -45 c-3 -25 -6 -52 -7 -60 -1 -21 -18 -41 -29 -34 -5 3 -7 17
-4 32 l5 27 -11 -25 c-23 -49 -23 -50 67 -50 62 0 83 3 78 11 -4 7 -8 24 -10
38 -2 14 -8 40 -13 56 -8 25 -9 21 -8 -29 1 -39 -2 -60 -10 -63 -10 -3 -13 13
-13 61 0 53 3 66 16 66 9 0 12 5 8 13 -4 6 11 -7 34 -29 23 -23 42 -51 42 -63z
m160 85 c0 -2 -7 -7 -16 -10 -8 -3 -12 -2 -9 4 6 10 25 14 25 6z m-550 -16 c0
-5 -15 -10 -32 -9 -31 1 -32 1 -8 9 35 11 40 11 40 0z m279 -55 c2 -53 -1 -65
-13 -65 -18 0 -19 14 -10 84 9 66 20 57 23 -19z m289 32 c2 -11 -3 -17 -17
-17 -25 0 -38 19 -20 31 19 12 33 6 37 -14z m-520 -7 c-14 -22 -33 -26 -43
-10 -10 16 4 30 31 30 22 0 23 -2 12 -20z m375 -65 c-2 -6 -12 -11 -23 -12
-17 -2 -18 0 -6 12 7 8 12 26 9 42 l-4 28 14 -30 c8 -16 12 -35 10 -40z m47 1
c0 -2 -7 -7 -16 -10 -8 -3 -12 -2 -9 4 6 10 25 14 25 6z"/>
<path d="M1271 1657 c-1 -26 -3 -27 -23 -16 -22 11 -22 11 -7 -7 9 -10 14 -26
11 -34 -3 -12 -1 -11 14 2 16 16 18 16 31 0 12 -16 13 -16 7 1 -3 9 -1 24 6
32 11 13 10 14 -2 10 -9 -4 -19 3 -26 17 -11 23 -11 23 -11 -5z"/>
<path d="M1150 1601 c0 -19 -4 -22 -21 -18 -19 5 -20 4 -5 -12 13 -14 13 -20
3 -30 -10 -11 -8 -11 11 -2 12 7 26 10 30 7 4 -2 13 7 19 20 9 19 9 24 0 21
-7 -2 -17 5 -24 17 -12 21 -12 21 -13 -3z"/>
<path d="M1397 1594 c5 -14 2 -16 -23 -10 -26 6 -27 5 -11 -8 11 -9 15 -20 11
-32 -6 -18 -6 -18 11 -2 17 16 19 16 33 0 13 -16 13 -16 8 2 -4 10 -1 25 5 32
10 12 9 13 -5 8 -11 -4 -16 -1 -16 10 0 9 -4 16 -10 16 -5 0 -7 -7 -3 -16z"/>
<path d="M1271 1522 c-1 -47 3 -45 -61 -24 -8 2 -4 -4 10 -14 14 -10 28 -18
33 -16 12 4 8 -11 -10 -30 -25 -28 -9 -31 21 -3 l27 25 11 -25 c15 -34 30 -32
17 2 -9 24 -7 30 11 45 25 20 10 24 -22 7 -17 -9 -20 -9 -16 3 3 7 0 27 -7 43
l-13 30 -1 -43z"/>
<path d="M1128 1485 c-4 -4 -4 -14 -1 -23 5 -12 1 -14 -16 -9 -22 5 -22 5 -5
-14 10 -11 12 -19 6 -19 -7 0 -12 -5 -12 -12 0 -8 6 -6 17 4 15 16 17 16 31 0
13 -16 13 -16 8 2 -4 10 -1 25 5 32 9 12 9 13 -4 8 -11 -4 -16 1 -19 16 -2 12
-6 19 -10 15z"/>
<path d="M1425 1470 c7 -21 5 -22 -20 -16 -17 4 -24 3 -20 -4 3 -5 13 -10 22
-10 13 0 13 -3 3 -15 -7 -9 -11 -18 -8 -20 3 -3 11 1 18 10 11 14 14 13 27 -2
14 -17 14 -17 9 1 -4 10 -1 25 5 32 10 12 9 13 -5 8 -10 -4 -16 -1 -16 9 0 9
-5 19 -11 23 -8 4 -9 -1 -4 -16z"/>
<path d="M1210 1368 c0 -22 -4 -26 -17 -21 -14 5 -15 3 -6 -7 6 -7 9 -20 5
-29 -5 -14 -4 -14 13 -1 14 11 19 12 22 3 8 -22 18 -14 18 12 0 17 -4 24 -13
20 -7 -3 -10 0 -7 5 3 5 1 18 -4 27 -9 16 -10 14 -11 -9z"/>
<path d="M1341 1368 c-1 -21 -5 -26 -18 -22 -17 5 -17 4 0 -9 13 -11 15 -16 5
-20 -7 -2 -10 -7 -7 -11 4 -4 13 -1 20 7 12 12 15 12 26 -2 12 -14 12 -14 7 3
-4 10 -1 22 7 28 12 8 11 9 -1 5 -9 -2 -20 7 -27 22 l-11 26 -1 -27z"/>
<path d="M1440 1075 c-14 -8 -20 -14 -14 -15 5 0 19 7 30 15 24 18 16 19 -16
0z"/>
<path d="M1200 1060 c0 -5 5 -10 10 -10 6 0 10 5 10 10 0 6 -4 10 -10 10 -5 0
-10 -4 -10 -10z"/>
<path d="M1235 1060 c4 -6 11 -8 16 -5 14 9 11 15 -7 15 -8 0 -12 -5 -9 -10z"/>
<path d="M1188 1016 c-15 -21 -16 -28 -2 -72 8 -27 13 -61 10 -76 -4 -21 1
-32 22 -48 l27 -22 3 97 3 97 69 -7 c39 -4 70 -3 70 2 0 5 -7 19 -16 31 -13
20 -24 22 -92 22 -69 -1 -79 -3 -94 -24z"/>
<path d="M1328 890 c-2 -44 0 -80 3 -80 17 0 34 37 35 74 1 23 4 52 8 64 6 19
4 22 -18 22 -24 0 -25 -2 -28 -80z"/>
<path d="M1210 790 c0 -5 5 -10 11 -10 5 0 7 5 4 10 -3 6 -8 10 -11 10 -2 0
-4 -4 -4 -10z"/>
<path d="M950 1164 c0 -13 48 -59 55 -52 3 2 -9 17 -25 33 -17 16 -30 24 -30
19z"/>
<path d="M1831 1157 c-13 -21 -12 -21 5 -5 10 10 16 20 13 22 -3 3 -11 -5 -18
-17z"/>
<path d="M740 1020 c0 -5 5 -10 11 -10 5 0 7 5 4 10 -3 6 -8 10 -11 10 -2 0
-4 -4 -4 -10z"/>
<path d="M1093 652 c-18 -21 -36 -42 -40 -46 -4 -4 0 -4 8 -1 14 5 42 37 63
73 13 22 1 12 -31 -26z"/>
<path d="M1465 660 c10 -11 20 -20 22 -20 2 0 -2 9 -9 20 -7 11 -17 20 -22 20
-5 0 -1 -9 9 -20z"/>
<path d="M1658 627 c-3 -15 -2 -30 3 -32 12 -8 16 8 9 35 l-6 25 -6 -28z"/>
<path d="M1010 540 c-9 -6 -10 -10 -3 -10 6 0 15 5 18 10 8 12 4 12 -15 0z"/>
<path d="M1042 531 c-11 -6 -10 -10 4 -15 9 -3 19 -4 22 -1 3 3 0 5 -7 5 -7 0
-9 5 -6 10 7 12 4 12 -13 1z"/>
<path d="M1418 513 c7 -3 16 -2 19 1 4 3 -2 6 -13 5 -11 0 -14 -3 -6 -6z"/>
<path d="M1275 489 c-22 -5 -13 -7 33 -8 34 0 62 1 62 3 0 8 -66 11 -95 5z"/>
<path d="M1218 483 c7 -3 16 -2 19 1 4 3 -2 6 -13 5 -11 0 -14 -3 -6 -6z"/>
<path d="M1100 395 c0 -28 -4 -35 -19 -35 -11 0 -22 6 -24 13 -4 9 -7 9 -15
-1 -12 -18 -198 -13 -195 6 2 6 -3 12 -10 12 -14 0 -37 -20 -37 -32 0 -4 90
-8 200 -8 198 0 201 0 190 20 -13 24 -32 27 -23 4 5 -12 0 -15 -23 -12 -26 3
-29 6 -26 36 2 18 -1 32 -7 32 -6 0 -11 -16 -11 -35z"/>
<path d="M1213 390 c0 -25 2 -35 4 -22 2 12 2 32 0 45 -2 12 -4 2 -4 -23z"/>
<path d="M1530 395 l0 -35 -125 0 c-104 0 -125 2 -125 15 0 8 -9 15 -20 15
-25 0 -27 -20 -2 -21 11 -1 9 -4 -8 -9 -15 -5 38 -8 133 -9 l157 -1 0 40 c0
22 -2 40 -5 40 -3 0 -5 -16 -5 -35z"/>
<path d="M1550 390 c0 -22 3 -40 8 -40 4 0 6 18 4 40 -2 22 -6 40 -8 40 -2 0
-4 -18 -4 -40z"/>
<path d="M1687 423 c-11 -10 -8 -73 3 -73 6 0 10 18 10 40 0 41 -2 45 -13 33z"/>
<path d="M1608 413 c6 -2 18 -2 25 0 6 3 1 5 -13 5 -14 0 -19 -2 -12 -5z"/>
<path d="M1607 383 c-14 -13 -6 -33 13 -33 13 0 20 7 20 20 0 19 -20 27 -33
13z"/>
<path d="M1743 373 c-4 -10 -1 -19 6 -21 11 -4 11 -6 0 -13 -17 -10 -5 -23 16
-16 21 8 21 67 0 67 -9 0 -19 -8 -22 -17z"/>
<path d="M1660 356 c0 -8 -6 -17 -12 -19 -8 -3 -6 -6 5 -6 11 -1 17 6 17 19 0
11 -2 20 -5 20 -3 0 -5 -6 -5 -14z"/>
<path d="M1710 350 c-9 -16 -8 -20 5 -20 8 0 15 9 15 20 0 11 -2 20 -5 20 -2
0 -9 -9 -15 -20z"/>
<path d="M800 240 c0 -22 4 -40 10 -40 5 0 7 8 4 18 -5 14 -3 14 11 -3 14 -17
17 -18 25 -5 7 10 10 11 10 3 0 -7 5 -13 10 -13 6 0 10 18 10 40 0 44 -16 54
-26 15 -3 -14 -10 -25 -14 -25 -4 0 -11 11 -14 25 -10 39 -26 29 -26 -15z"/>
<path d="M1328 268 c-6 -16 3 -68 11 -68 3 0 7 18 8 40 2 37 -10 55 -19 28z"/>
<path d="M1403 240 c0 -25 2 -35 4 -22 2 12 2 32 0 45 -2 12 -4 2 -4 -23z"/>
<path d="M1089 264 c-3 -21 3 -60 10 -67 4 -4 7 8 7 27 -1 32 -14 63 -17 40z"/>
<path d="M1499 264 c-3 -21 3 -60 10 -67 4 -4 7 8 7 27 -1 32 -14 63 -17 40z"/>
<path d="M902 230 c0 -19 2 -27 5 -17 2 9 2 25 0 35 -3 9 -5 1 -5 -18z"/>
<path d="M931 228 c1 -28 2 -29 7 -10 8 26 28 26 26 0 -1 -10 3 -18 8 -18 5 0
8 12 6 28 -2 19 -9 28 -25 30 -20 3 -23 -1 -22 -30z"/>
<path d="M1002 230 c0 -19 2 -27 5 -17 2 9 2 25 0 35 -3 9 -5 1 -5 -18z"/>
<path d="M1032 230 c1 -36 13 -46 34 -29 14 11 13 15 -8 32 -16 13 -18 17 -5
13 9 -3 17 -1 17 4 0 6 -9 10 -19 10 -15 0 -19 -7 -19 -30z"/>
<path d="M1131 228 c1 -22 3 -26 6 -13 3 11 10 26 15 33 8 9 6 12 -6 12 -12 0
-16 -9 -15 -32z"/>
<path d="M1174 217 c1 -51 10 -51 31 0 18 44 19 54 1 30 -13 -17 -15 -17 -24
-2 -6 13 -9 5 -8 -28z"/>
<path d="M1267 253 c-12 -11 -8 -40 7 -52 11 -9 18 -8 30 4 19 20 20 27 4 43
-13 13 -31 16 -41 5z m33 -29 c0 -16 -16 -19 -25 -4 -8 13 4 32 16 25 5 -4 9
-13 9 -21z"/>
<path d="M1430 230 c0 -16 5 -30 11 -30 5 0 7 4 4 10 -3 5 -2 18 4 27 8 15 10
16 15 3 2 -8 7 -22 9 -30 3 -8 6 0 6 18 1 28 -2 32 -24 32 -21 0 -25 -5 -25
-30z"/>
<path d="M1535 239 c-8 -25 17 -55 36 -43 9 5 8 9 -7 15 -17 7 -17 8 5 8 17 1
22 5 17 17 -3 9 -6 18 -6 20 0 2 -9 4 -19 4 -11 0 -23 -9 -26 -21z m35 1 c0
-5 -2 -10 -4 -10 -3 0 -8 5 -11 10 -3 6 -1 10 4 10 6 0 11 -4 11 -10z"/>
<path d="M1600 230 c0 -16 5 -30 10 -30 6 0 10 6 10 14 0 8 3 21 6 30 4 11 1
16 -10 16 -11 0 -16 -9 -16 -30z"/>
<path d="M1647 253 c-11 -10 -8 -53 3 -53 6 0 10 14 10 30 0 31 -2 35 -13 23z"/>
<path d="M1675 239 c-10 -30 18 -58 40 -39 22 18 15 54 -12 58 -15 2 -23 -3
-28 -19z m35 -9 c0 -11 -4 -20 -10 -20 -5 0 -10 9 -10 20 0 11 5 20 10 20 6 0
10 -9 10 -20z"/>
<path d="M1740 230 c0 -16 5 -30 10 -30 6 0 10 8 10 18 0 10 5 23 12 30 9 9 7
12 -10 12 -18 0 -22 -6 -22 -30z"/>
</g>
</svg>
